%TF.GenerationSoftware,KiCad,Pcbnew,10.0.4*%
%TF.CreationDate,2026-07-29T23:15:59+02:00*%
%TF.ProjectId,RPi-DroneRover-HAT,5250692d-4472-46f6-9e65-526f7665722d,rev?*%
%TF.SameCoordinates,Original*%
%TF.FileFunction,Soldermask,Top*%
%TF.FilePolarity,Negative*%
%FSLAX46Y46*%
G04 Gerber Fmt 4.6, Leading zero omitted, Abs format (unit mm)*
G04 Created by KiCad (PCBNEW 10.0.4) date 2026-07-29 23:15:59*
%MOMM*%
%LPD*%
G01*
G04 APERTURE LIST*
G04 Aperture macros list*
%AMRoundRect*
0 Rectangle with rounded corners*
0 $1 Rounding radius*
0 $2 $3 $4 $5 $6 $7 $8 $9 X,Y pos of 4 corners*
0 Add a 4 corners polygon primitive as box body*
4,1,4,$2,$3,$4,$5,$6,$7,$8,$9,$2,$3,0*
0 Add four circle primitives for the rounded corners*
1,1,$1+$1,$2,$3*
1,1,$1+$1,$4,$5*
1,1,$1+$1,$6,$7*
1,1,$1+$1,$8,$9*
0 Add four rect primitives between the rounded corners*
20,1,$1+$1,$2,$3,$4,$5,0*
20,1,$1+$1,$4,$5,$6,$7,0*
20,1,$1+$1,$6,$7,$8,$9,0*
20,1,$1+$1,$8,$9,$2,$3,0*%
G04 Aperture macros list end*
%ADD10R,1.700000X1.700000*%
%ADD11C,1.700000*%
%ADD12C,1.600000*%
%ADD13C,3.750000*%
%ADD14RoundRect,0.250000X-0.550000X-0.550000X0.550000X-0.550000X0.550000X0.550000X-0.550000X0.550000X0*%
%ADD15R,1.800000X1.800000*%
%ADD16C,1.800000*%
%ADD17RoundRect,0.250000X-1.050000X-1.050000X1.050000X-1.050000X1.050000X1.050000X-1.050000X1.050000X0*%
%ADD18C,2.600000*%
%ADD19RoundRect,0.249999X-0.850001X-0.850001X0.850001X-0.850001X0.850001X0.850001X-0.850001X0.850001X0*%
%ADD20C,2.200000*%
G04 APERTURE END LIST*
D10*
%TO.C,BZ*%
X10000000Y-20000000D03*
D11*
X10000000Y-22540000D03*
%TD*%
D10*
%TO.C,J_M1*%
X15000000Y-4000000D03*
D11*
X15000000Y-6540000D03*
X15000000Y-9080000D03*
%TD*%
D12*
%TO.C,C_DEC*%
X40000000Y-40000000D03*
X42500000Y-40000000D03*
%TD*%
D10*
%TO.C,J_IMU*%
X30000000Y-14000000D03*
D11*
X30000000Y-16540000D03*
X30000000Y-19080000D03*
X30000000Y-21620000D03*
X30000000Y-24160000D03*
X30000000Y-26700000D03*
X30000000Y-29240000D03*
X30000000Y-31780000D03*
%TD*%
D13*
%TO.C,MH2*%
X61500000Y-3500000D03*
%TD*%
D10*
%TO.C,J_M3*%
X39000000Y-4000000D03*
D11*
X39000000Y-6540000D03*
X39000000Y-9080000D03*
%TD*%
D13*
%TO.C,MH4*%
X61500000Y-52500000D03*
%TD*%
D10*
%TO.C,J_PI*%
X8400000Y-49500000D03*
D11*
X8400000Y-52040000D03*
X10940000Y-49500000D03*
X10940000Y-52040000D03*
X13480000Y-49500000D03*
X13480000Y-52040000D03*
X16020000Y-49500000D03*
X16020000Y-52040000D03*
X18560000Y-49500000D03*
X18560000Y-52040000D03*
X21100000Y-49500000D03*
X21100000Y-52040000D03*
X23640000Y-49500000D03*
X23640000Y-52040000D03*
X26180000Y-49500000D03*
X26180000Y-52040000D03*
X28720000Y-49500000D03*
X28720000Y-52040000D03*
X31260000Y-49500000D03*
X31260000Y-52040000D03*
X33800000Y-49500000D03*
X33800000Y-52040000D03*
X36340000Y-49500000D03*
X36340000Y-52040000D03*
X38880000Y-49500000D03*
X38880000Y-52040000D03*
X41420000Y-49500000D03*
X41420000Y-52040000D03*
X43960000Y-49500000D03*
X43960000Y-52040000D03*
X46500000Y-49500000D03*
X46500000Y-52040000D03*
X49040000Y-49500000D03*
X49040000Y-52040000D03*
X51580000Y-49500000D03*
X51580000Y-52040000D03*
X54120000Y-49500000D03*
X54120000Y-52040000D03*
X56660000Y-49500000D03*
X56660000Y-52040000D03*
%TD*%
D10*
%TO.C,J_M4*%
X51000000Y-4000000D03*
D11*
X51000000Y-6540000D03*
X51000000Y-9080000D03*
%TD*%
D12*
%TO.C,R_LED*%
X44000000Y-30000000D03*
X51620000Y-30000000D03*
%TD*%
D13*
%TO.C,MH3*%
X3500000Y-52500000D03*
%TD*%
D14*
%TO.C,C_BULK*%
X30000000Y-40000000D03*
D12*
X33500000Y-40000000D03*
%TD*%
D15*
%TO.C,LED1*%
X56000000Y-30000000D03*
D16*
X58540000Y-30000000D03*
%TD*%
D12*
%TO.C,R_SCL*%
X44000000Y-25000000D03*
X51620000Y-25000000D03*
%TD*%
%TO.C,R_SDA*%
X44000000Y-20000000D03*
X51620000Y-20000000D03*
%TD*%
D17*
%TO.C,J_BEC*%
X5000000Y-32000000D03*
D18*
X10080000Y-32000000D03*
%TD*%
D10*
%TO.C,J_M2*%
X27000000Y-4000000D03*
D11*
X27000000Y-6540000D03*
X27000000Y-9080000D03*
%TD*%
D13*
%TO.C,MH1*%
X3500000Y-3500000D03*
%TD*%
D19*
%TO.C,D_PWR*%
X14000000Y-40000000D03*
D20*
X24160000Y-40000000D03*
%TD*%
M02*
