%TF.GenerationSoftware,KiCad,Pcbnew,10.0.4*%
%TF.CreationDate,2026-07-29T23:15:59+02:00*%
%TF.ProjectId,RPi-DroneRover-HAT,5250692d-4472-46f6-9e65-526f7665722d,rev?*%
%TF.SameCoordinates,Original*%
%TF.FileFunction,Legend,Top*%
%TF.FilePolarity,Positive*%
%FSLAX46Y46*%
G04 Gerber Fmt 4.6, Leading zero omitted, Abs format (unit mm)*
G04 Created by KiCad (PCBNEW 10.0.4) date 2026-07-29 23:15:59*
%MOMM*%
%LPD*%
G01*
G04 APERTURE LIST*
%ADD10C,0.150000*%
%ADD11C,0.158750*%
%ADD12C,0.120000*%
G04 APERTURE END LIST*
D10*
X9595238Y-17551009D02*
X9738095Y-17598628D01*
X9738095Y-17598628D02*
X9785714Y-17646247D01*
X9785714Y-17646247D02*
X9833333Y-17741485D01*
X9833333Y-17741485D02*
X9833333Y-17884342D01*
X9833333Y-17884342D02*
X9785714Y-17979580D01*
X9785714Y-17979580D02*
X9738095Y-18027200D01*
X9738095Y-18027200D02*
X9642857Y-18074819D01*
X9642857Y-18074819D02*
X9261905Y-18074819D01*
X9261905Y-18074819D02*
X9261905Y-17074819D01*
X9261905Y-17074819D02*
X9595238Y-17074819D01*
X9595238Y-17074819D02*
X9690476Y-17122438D01*
X9690476Y-17122438D02*
X9738095Y-17170057D01*
X9738095Y-17170057D02*
X9785714Y-17265295D01*
X9785714Y-17265295D02*
X9785714Y-17360533D01*
X9785714Y-17360533D02*
X9738095Y-17455771D01*
X9738095Y-17455771D02*
X9690476Y-17503390D01*
X9690476Y-17503390D02*
X9595238Y-17551009D01*
X9595238Y-17551009D02*
X9261905Y-17551009D01*
X10166667Y-17074819D02*
X10833333Y-17074819D01*
X10833333Y-17074819D02*
X10166667Y-18074819D01*
X10166667Y-18074819D02*
X10833333Y-18074819D01*
X13714285Y-1074819D02*
X13714285Y-1789104D01*
X13714285Y-1789104D02*
X13666666Y-1931961D01*
X13666666Y-1931961D02*
X13571428Y-2027200D01*
X13571428Y-2027200D02*
X13428571Y-2074819D01*
X13428571Y-2074819D02*
X13333333Y-2074819D01*
X13952381Y-2170057D02*
X14714285Y-2170057D01*
X14952381Y-2074819D02*
X14952381Y-1074819D01*
X14952381Y-1074819D02*
X15285714Y-1789104D01*
X15285714Y-1789104D02*
X15619047Y-1074819D01*
X15619047Y-1074819D02*
X15619047Y-2074819D01*
X16619047Y-2074819D02*
X16047619Y-2074819D01*
X16333333Y-2074819D02*
X16333333Y-1074819D01*
X16333333Y-1074819D02*
X16238095Y-1217676D01*
X16238095Y-1217676D02*
X16142857Y-1312914D01*
X16142857Y-1312914D02*
X16047619Y-1360533D01*
X39726190Y-38309580D02*
X39678571Y-38357200D01*
X39678571Y-38357200D02*
X39535714Y-38404819D01*
X39535714Y-38404819D02*
X39440476Y-38404819D01*
X39440476Y-38404819D02*
X39297619Y-38357200D01*
X39297619Y-38357200D02*
X39202381Y-38261961D01*
X39202381Y-38261961D02*
X39154762Y-38166723D01*
X39154762Y-38166723D02*
X39107143Y-37976247D01*
X39107143Y-37976247D02*
X39107143Y-37833390D01*
X39107143Y-37833390D02*
X39154762Y-37642914D01*
X39154762Y-37642914D02*
X39202381Y-37547676D01*
X39202381Y-37547676D02*
X39297619Y-37452438D01*
X39297619Y-37452438D02*
X39440476Y-37404819D01*
X39440476Y-37404819D02*
X39535714Y-37404819D01*
X39535714Y-37404819D02*
X39678571Y-37452438D01*
X39678571Y-37452438D02*
X39726190Y-37500057D01*
X39916667Y-38500057D02*
X40678571Y-38500057D01*
X40916667Y-38404819D02*
X40916667Y-37404819D01*
X40916667Y-37404819D02*
X41154762Y-37404819D01*
X41154762Y-37404819D02*
X41297619Y-37452438D01*
X41297619Y-37452438D02*
X41392857Y-37547676D01*
X41392857Y-37547676D02*
X41440476Y-37642914D01*
X41440476Y-37642914D02*
X41488095Y-37833390D01*
X41488095Y-37833390D02*
X41488095Y-37976247D01*
X41488095Y-37976247D02*
X41440476Y-38166723D01*
X41440476Y-38166723D02*
X41392857Y-38261961D01*
X41392857Y-38261961D02*
X41297619Y-38357200D01*
X41297619Y-38357200D02*
X41154762Y-38404819D01*
X41154762Y-38404819D02*
X40916667Y-38404819D01*
X41916667Y-37881009D02*
X42250000Y-37881009D01*
X42392857Y-38404819D02*
X41916667Y-38404819D01*
X41916667Y-38404819D02*
X41916667Y-37404819D01*
X41916667Y-37404819D02*
X42392857Y-37404819D01*
X43392857Y-38309580D02*
X43345238Y-38357200D01*
X43345238Y-38357200D02*
X43202381Y-38404819D01*
X43202381Y-38404819D02*
X43107143Y-38404819D01*
X43107143Y-38404819D02*
X42964286Y-38357200D01*
X42964286Y-38357200D02*
X42869048Y-38261961D01*
X42869048Y-38261961D02*
X42821429Y-38166723D01*
X42821429Y-38166723D02*
X42773810Y-37976247D01*
X42773810Y-37976247D02*
X42773810Y-37833390D01*
X42773810Y-37833390D02*
X42821429Y-37642914D01*
X42821429Y-37642914D02*
X42869048Y-37547676D01*
X42869048Y-37547676D02*
X42964286Y-37452438D01*
X42964286Y-37452438D02*
X43107143Y-37404819D01*
X43107143Y-37404819D02*
X43202381Y-37404819D01*
X43202381Y-37404819D02*
X43345238Y-37452438D01*
X43345238Y-37452438D02*
X43392857Y-37500057D01*
X28428571Y-10684819D02*
X28428571Y-11399104D01*
X28428571Y-11399104D02*
X28380952Y-11541961D01*
X28380952Y-11541961D02*
X28285714Y-11637200D01*
X28285714Y-11637200D02*
X28142857Y-11684819D01*
X28142857Y-11684819D02*
X28047619Y-11684819D01*
X28666667Y-11780057D02*
X29428571Y-11780057D01*
X29666667Y-11684819D02*
X29666667Y-10684819D01*
X30142857Y-11684819D02*
X30142857Y-10684819D01*
X30142857Y-10684819D02*
X30476190Y-11399104D01*
X30476190Y-11399104D02*
X30809523Y-10684819D01*
X30809523Y-10684819D02*
X30809523Y-11684819D01*
X31285714Y-10684819D02*
X31285714Y-11494342D01*
X31285714Y-11494342D02*
X31333333Y-11589580D01*
X31333333Y-11589580D02*
X31380952Y-11637200D01*
X31380952Y-11637200D02*
X31476190Y-11684819D01*
X31476190Y-11684819D02*
X31666666Y-11684819D01*
X31666666Y-11684819D02*
X31761904Y-11637200D01*
X31761904Y-11637200D02*
X31809523Y-11589580D01*
X31809523Y-11589580D02*
X31857142Y-11494342D01*
X31857142Y-11494342D02*
X31857142Y-10684819D01*
D11*
X59806666Y-4079271D02*
X59806666Y-2809271D01*
X59806666Y-2809271D02*
X60230000Y-3716414D01*
X60230000Y-3716414D02*
X60653333Y-2809271D01*
X60653333Y-2809271D02*
X60653333Y-4079271D01*
X61258095Y-4079271D02*
X61258095Y-2809271D01*
X61258095Y-3414033D02*
X61983810Y-3414033D01*
X61983810Y-4079271D02*
X61983810Y-2809271D01*
X62528095Y-2930223D02*
X62588571Y-2869747D01*
X62588571Y-2869747D02*
X62709524Y-2809271D01*
X62709524Y-2809271D02*
X63011905Y-2809271D01*
X63011905Y-2809271D02*
X63132857Y-2869747D01*
X63132857Y-2869747D02*
X63193333Y-2930223D01*
X63193333Y-2930223D02*
X63253810Y-3051175D01*
X63253810Y-3051175D02*
X63253810Y-3172128D01*
X63253810Y-3172128D02*
X63193333Y-3353556D01*
X63193333Y-3353556D02*
X62467619Y-4079271D01*
X62467619Y-4079271D02*
X63253810Y-4079271D01*
D10*
X37714285Y-1074819D02*
X37714285Y-1789104D01*
X37714285Y-1789104D02*
X37666666Y-1931961D01*
X37666666Y-1931961D02*
X37571428Y-2027200D01*
X37571428Y-2027200D02*
X37428571Y-2074819D01*
X37428571Y-2074819D02*
X37333333Y-2074819D01*
X37952381Y-2170057D02*
X38714285Y-2170057D01*
X38952381Y-2074819D02*
X38952381Y-1074819D01*
X38952381Y-1074819D02*
X39285714Y-1789104D01*
X39285714Y-1789104D02*
X39619047Y-1074819D01*
X39619047Y-1074819D02*
X39619047Y-2074819D01*
X40000000Y-1074819D02*
X40619047Y-1074819D01*
X40619047Y-1074819D02*
X40285714Y-1455771D01*
X40285714Y-1455771D02*
X40428571Y-1455771D01*
X40428571Y-1455771D02*
X40523809Y-1503390D01*
X40523809Y-1503390D02*
X40571428Y-1551009D01*
X40571428Y-1551009D02*
X40619047Y-1646247D01*
X40619047Y-1646247D02*
X40619047Y-1884342D01*
X40619047Y-1884342D02*
X40571428Y-1979580D01*
X40571428Y-1979580D02*
X40523809Y-2027200D01*
X40523809Y-2027200D02*
X40428571Y-2074819D01*
X40428571Y-2074819D02*
X40142857Y-2074819D01*
X40142857Y-2074819D02*
X40047619Y-2027200D01*
X40047619Y-2027200D02*
X40000000Y-1979580D01*
D11*
X59806666Y-53079271D02*
X59806666Y-51809271D01*
X59806666Y-51809271D02*
X60230000Y-52716414D01*
X60230000Y-52716414D02*
X60653333Y-51809271D01*
X60653333Y-51809271D02*
X60653333Y-53079271D01*
X61258095Y-53079271D02*
X61258095Y-51809271D01*
X61258095Y-52414033D02*
X61983810Y-52414033D01*
X61983810Y-53079271D02*
X61983810Y-51809271D01*
X63132857Y-52232604D02*
X63132857Y-53079271D01*
X62830476Y-51748795D02*
X62528095Y-52655937D01*
X62528095Y-52655937D02*
X63314286Y-52655937D01*
D10*
X5084819Y-51746190D02*
X5799104Y-51746190D01*
X5799104Y-51746190D02*
X5941961Y-51793809D01*
X5941961Y-51793809D02*
X6037200Y-51889047D01*
X6037200Y-51889047D02*
X6084819Y-52031904D01*
X6084819Y-52031904D02*
X6084819Y-52127142D01*
X6180057Y-51508095D02*
X6180057Y-50746190D01*
X6084819Y-50508094D02*
X5084819Y-50508094D01*
X5084819Y-50508094D02*
X5084819Y-50127142D01*
X5084819Y-50127142D02*
X5132438Y-50031904D01*
X5132438Y-50031904D02*
X5180057Y-49984285D01*
X5180057Y-49984285D02*
X5275295Y-49936666D01*
X5275295Y-49936666D02*
X5418152Y-49936666D01*
X5418152Y-49936666D02*
X5513390Y-49984285D01*
X5513390Y-49984285D02*
X5561009Y-50031904D01*
X5561009Y-50031904D02*
X5608628Y-50127142D01*
X5608628Y-50127142D02*
X5608628Y-50508094D01*
X6084819Y-49508094D02*
X5084819Y-49508094D01*
X49714285Y-1074819D02*
X49714285Y-1789104D01*
X49714285Y-1789104D02*
X49666666Y-1931961D01*
X49666666Y-1931961D02*
X49571428Y-2027200D01*
X49571428Y-2027200D02*
X49428571Y-2074819D01*
X49428571Y-2074819D02*
X49333333Y-2074819D01*
X49952381Y-2170057D02*
X50714285Y-2170057D01*
X50952381Y-2074819D02*
X50952381Y-1074819D01*
X50952381Y-1074819D02*
X51285714Y-1789104D01*
X51285714Y-1789104D02*
X51619047Y-1074819D01*
X51619047Y-1074819D02*
X51619047Y-2074819D01*
X52523809Y-1408152D02*
X52523809Y-2074819D01*
X52285714Y-1027200D02*
X52047619Y-1741485D01*
X52047619Y-1741485D02*
X52666666Y-1741485D01*
X46381428Y-28084819D02*
X46048095Y-27608628D01*
X45810000Y-28084819D02*
X45810000Y-27084819D01*
X45810000Y-27084819D02*
X46190952Y-27084819D01*
X46190952Y-27084819D02*
X46286190Y-27132438D01*
X46286190Y-27132438D02*
X46333809Y-27180057D01*
X46333809Y-27180057D02*
X46381428Y-27275295D01*
X46381428Y-27275295D02*
X46381428Y-27418152D01*
X46381428Y-27418152D02*
X46333809Y-27513390D01*
X46333809Y-27513390D02*
X46286190Y-27561009D01*
X46286190Y-27561009D02*
X46190952Y-27608628D01*
X46190952Y-27608628D02*
X45810000Y-27608628D01*
X46571905Y-28180057D02*
X47333809Y-28180057D01*
X48048095Y-28084819D02*
X47571905Y-28084819D01*
X47571905Y-28084819D02*
X47571905Y-27084819D01*
X48381429Y-27561009D02*
X48714762Y-27561009D01*
X48857619Y-28084819D02*
X48381429Y-28084819D01*
X48381429Y-28084819D02*
X48381429Y-27084819D01*
X48381429Y-27084819D02*
X48857619Y-27084819D01*
X49286191Y-28084819D02*
X49286191Y-27084819D01*
X49286191Y-27084819D02*
X49524286Y-27084819D01*
X49524286Y-27084819D02*
X49667143Y-27132438D01*
X49667143Y-27132438D02*
X49762381Y-27227676D01*
X49762381Y-27227676D02*
X49810000Y-27322914D01*
X49810000Y-27322914D02*
X49857619Y-27513390D01*
X49857619Y-27513390D02*
X49857619Y-27656247D01*
X49857619Y-27656247D02*
X49810000Y-27846723D01*
X49810000Y-27846723D02*
X49762381Y-27941961D01*
X49762381Y-27941961D02*
X49667143Y-28037200D01*
X49667143Y-28037200D02*
X49524286Y-28084819D01*
X49524286Y-28084819D02*
X49286191Y-28084819D01*
D11*
X1806666Y-53079271D02*
X1806666Y-51809271D01*
X1806666Y-51809271D02*
X2230000Y-52716414D01*
X2230000Y-52716414D02*
X2653333Y-51809271D01*
X2653333Y-51809271D02*
X2653333Y-53079271D01*
X3258095Y-53079271D02*
X3258095Y-51809271D01*
X3258095Y-52414033D02*
X3983810Y-52414033D01*
X3983810Y-53079271D02*
X3983810Y-51809271D01*
X4467619Y-51809271D02*
X5253810Y-51809271D01*
X5253810Y-51809271D02*
X4830476Y-52293080D01*
X4830476Y-52293080D02*
X5011905Y-52293080D01*
X5011905Y-52293080D02*
X5132857Y-52353556D01*
X5132857Y-52353556D02*
X5193333Y-52414033D01*
X5193333Y-52414033D02*
X5253810Y-52534985D01*
X5253810Y-52534985D02*
X5253810Y-52837366D01*
X5253810Y-52837366D02*
X5193333Y-52958318D01*
X5193333Y-52958318D02*
X5132857Y-53018795D01*
X5132857Y-53018795D02*
X5011905Y-53079271D01*
X5011905Y-53079271D02*
X4649048Y-53079271D01*
X4649048Y-53079271D02*
X4528095Y-53018795D01*
X4528095Y-53018795D02*
X4467619Y-52958318D01*
D10*
X29749999Y-35109580D02*
X29702380Y-35157200D01*
X29702380Y-35157200D02*
X29559523Y-35204819D01*
X29559523Y-35204819D02*
X29464285Y-35204819D01*
X29464285Y-35204819D02*
X29321428Y-35157200D01*
X29321428Y-35157200D02*
X29226190Y-35061961D01*
X29226190Y-35061961D02*
X29178571Y-34966723D01*
X29178571Y-34966723D02*
X29130952Y-34776247D01*
X29130952Y-34776247D02*
X29130952Y-34633390D01*
X29130952Y-34633390D02*
X29178571Y-34442914D01*
X29178571Y-34442914D02*
X29226190Y-34347676D01*
X29226190Y-34347676D02*
X29321428Y-34252438D01*
X29321428Y-34252438D02*
X29464285Y-34204819D01*
X29464285Y-34204819D02*
X29559523Y-34204819D01*
X29559523Y-34204819D02*
X29702380Y-34252438D01*
X29702380Y-34252438D02*
X29749999Y-34300057D01*
X29940476Y-35300057D02*
X30702380Y-35300057D01*
X31273809Y-34681009D02*
X31416666Y-34728628D01*
X31416666Y-34728628D02*
X31464285Y-34776247D01*
X31464285Y-34776247D02*
X31511904Y-34871485D01*
X31511904Y-34871485D02*
X31511904Y-35014342D01*
X31511904Y-35014342D02*
X31464285Y-35109580D01*
X31464285Y-35109580D02*
X31416666Y-35157200D01*
X31416666Y-35157200D02*
X31321428Y-35204819D01*
X31321428Y-35204819D02*
X30940476Y-35204819D01*
X30940476Y-35204819D02*
X30940476Y-34204819D01*
X30940476Y-34204819D02*
X31273809Y-34204819D01*
X31273809Y-34204819D02*
X31369047Y-34252438D01*
X31369047Y-34252438D02*
X31416666Y-34300057D01*
X31416666Y-34300057D02*
X31464285Y-34395295D01*
X31464285Y-34395295D02*
X31464285Y-34490533D01*
X31464285Y-34490533D02*
X31416666Y-34585771D01*
X31416666Y-34585771D02*
X31369047Y-34633390D01*
X31369047Y-34633390D02*
X31273809Y-34681009D01*
X31273809Y-34681009D02*
X30940476Y-34681009D01*
X31940476Y-34204819D02*
X31940476Y-35014342D01*
X31940476Y-35014342D02*
X31988095Y-35109580D01*
X31988095Y-35109580D02*
X32035714Y-35157200D01*
X32035714Y-35157200D02*
X32130952Y-35204819D01*
X32130952Y-35204819D02*
X32321428Y-35204819D01*
X32321428Y-35204819D02*
X32416666Y-35157200D01*
X32416666Y-35157200D02*
X32464285Y-35109580D01*
X32464285Y-35109580D02*
X32511904Y-35014342D01*
X32511904Y-35014342D02*
X32511904Y-34204819D01*
X33464285Y-35204819D02*
X32988095Y-35204819D01*
X32988095Y-35204819D02*
X32988095Y-34204819D01*
X33797619Y-35204819D02*
X33797619Y-34204819D01*
X34369047Y-35204819D02*
X33940476Y-34633390D01*
X34369047Y-34204819D02*
X33797619Y-34776247D01*
X56150952Y-26494819D02*
X55674762Y-26494819D01*
X55674762Y-26494819D02*
X55674762Y-25494819D01*
X56484286Y-25971009D02*
X56817619Y-25971009D01*
X56960476Y-26494819D02*
X56484286Y-26494819D01*
X56484286Y-26494819D02*
X56484286Y-25494819D01*
X56484286Y-25494819D02*
X56960476Y-25494819D01*
X57389048Y-26494819D02*
X57389048Y-25494819D01*
X57389048Y-25494819D02*
X57627143Y-25494819D01*
X57627143Y-25494819D02*
X57770000Y-25542438D01*
X57770000Y-25542438D02*
X57865238Y-25637676D01*
X57865238Y-25637676D02*
X57912857Y-25732914D01*
X57912857Y-25732914D02*
X57960476Y-25923390D01*
X57960476Y-25923390D02*
X57960476Y-26066247D01*
X57960476Y-26066247D02*
X57912857Y-26256723D01*
X57912857Y-26256723D02*
X57865238Y-26351961D01*
X57865238Y-26351961D02*
X57770000Y-26447200D01*
X57770000Y-26447200D02*
X57627143Y-26494819D01*
X57627143Y-26494819D02*
X57389048Y-26494819D01*
X58912857Y-26494819D02*
X58341429Y-26494819D01*
X58627143Y-26494819D02*
X58627143Y-25494819D01*
X58627143Y-25494819D02*
X58531905Y-25637676D01*
X58531905Y-25637676D02*
X58436667Y-25732914D01*
X58436667Y-25732914D02*
X58341429Y-25780533D01*
X46357618Y-23084819D02*
X46024285Y-22608628D01*
X45786190Y-23084819D02*
X45786190Y-22084819D01*
X45786190Y-22084819D02*
X46167142Y-22084819D01*
X46167142Y-22084819D02*
X46262380Y-22132438D01*
X46262380Y-22132438D02*
X46309999Y-22180057D01*
X46309999Y-22180057D02*
X46357618Y-22275295D01*
X46357618Y-22275295D02*
X46357618Y-22418152D01*
X46357618Y-22418152D02*
X46309999Y-22513390D01*
X46309999Y-22513390D02*
X46262380Y-22561009D01*
X46262380Y-22561009D02*
X46167142Y-22608628D01*
X46167142Y-22608628D02*
X45786190Y-22608628D01*
X46548095Y-23180057D02*
X47309999Y-23180057D01*
X47500476Y-23037200D02*
X47643333Y-23084819D01*
X47643333Y-23084819D02*
X47881428Y-23084819D01*
X47881428Y-23084819D02*
X47976666Y-23037200D01*
X47976666Y-23037200D02*
X48024285Y-22989580D01*
X48024285Y-22989580D02*
X48071904Y-22894342D01*
X48071904Y-22894342D02*
X48071904Y-22799104D01*
X48071904Y-22799104D02*
X48024285Y-22703866D01*
X48024285Y-22703866D02*
X47976666Y-22656247D01*
X47976666Y-22656247D02*
X47881428Y-22608628D01*
X47881428Y-22608628D02*
X47690952Y-22561009D01*
X47690952Y-22561009D02*
X47595714Y-22513390D01*
X47595714Y-22513390D02*
X47548095Y-22465771D01*
X47548095Y-22465771D02*
X47500476Y-22370533D01*
X47500476Y-22370533D02*
X47500476Y-22275295D01*
X47500476Y-22275295D02*
X47548095Y-22180057D01*
X47548095Y-22180057D02*
X47595714Y-22132438D01*
X47595714Y-22132438D02*
X47690952Y-22084819D01*
X47690952Y-22084819D02*
X47929047Y-22084819D01*
X47929047Y-22084819D02*
X48071904Y-22132438D01*
X49071904Y-22989580D02*
X49024285Y-23037200D01*
X49024285Y-23037200D02*
X48881428Y-23084819D01*
X48881428Y-23084819D02*
X48786190Y-23084819D01*
X48786190Y-23084819D02*
X48643333Y-23037200D01*
X48643333Y-23037200D02*
X48548095Y-22941961D01*
X48548095Y-22941961D02*
X48500476Y-22846723D01*
X48500476Y-22846723D02*
X48452857Y-22656247D01*
X48452857Y-22656247D02*
X48452857Y-22513390D01*
X48452857Y-22513390D02*
X48500476Y-22322914D01*
X48500476Y-22322914D02*
X48548095Y-22227676D01*
X48548095Y-22227676D02*
X48643333Y-22132438D01*
X48643333Y-22132438D02*
X48786190Y-22084819D01*
X48786190Y-22084819D02*
X48881428Y-22084819D01*
X48881428Y-22084819D02*
X49024285Y-22132438D01*
X49024285Y-22132438D02*
X49071904Y-22180057D01*
X49976666Y-23084819D02*
X49500476Y-23084819D01*
X49500476Y-23084819D02*
X49500476Y-22084819D01*
X46333809Y-18084819D02*
X46000476Y-17608628D01*
X45762381Y-18084819D02*
X45762381Y-17084819D01*
X45762381Y-17084819D02*
X46143333Y-17084819D01*
X46143333Y-17084819D02*
X46238571Y-17132438D01*
X46238571Y-17132438D02*
X46286190Y-17180057D01*
X46286190Y-17180057D02*
X46333809Y-17275295D01*
X46333809Y-17275295D02*
X46333809Y-17418152D01*
X46333809Y-17418152D02*
X46286190Y-17513390D01*
X46286190Y-17513390D02*
X46238571Y-17561009D01*
X46238571Y-17561009D02*
X46143333Y-17608628D01*
X46143333Y-17608628D02*
X45762381Y-17608628D01*
X46524286Y-18180057D02*
X47286190Y-18180057D01*
X47476667Y-18037200D02*
X47619524Y-18084819D01*
X47619524Y-18084819D02*
X47857619Y-18084819D01*
X47857619Y-18084819D02*
X47952857Y-18037200D01*
X47952857Y-18037200D02*
X48000476Y-17989580D01*
X48000476Y-17989580D02*
X48048095Y-17894342D01*
X48048095Y-17894342D02*
X48048095Y-17799104D01*
X48048095Y-17799104D02*
X48000476Y-17703866D01*
X48000476Y-17703866D02*
X47952857Y-17656247D01*
X47952857Y-17656247D02*
X47857619Y-17608628D01*
X47857619Y-17608628D02*
X47667143Y-17561009D01*
X47667143Y-17561009D02*
X47571905Y-17513390D01*
X47571905Y-17513390D02*
X47524286Y-17465771D01*
X47524286Y-17465771D02*
X47476667Y-17370533D01*
X47476667Y-17370533D02*
X47476667Y-17275295D01*
X47476667Y-17275295D02*
X47524286Y-17180057D01*
X47524286Y-17180057D02*
X47571905Y-17132438D01*
X47571905Y-17132438D02*
X47667143Y-17084819D01*
X47667143Y-17084819D02*
X47905238Y-17084819D01*
X47905238Y-17084819D02*
X48048095Y-17132438D01*
X48476667Y-18084819D02*
X48476667Y-17084819D01*
X48476667Y-17084819D02*
X48714762Y-17084819D01*
X48714762Y-17084819D02*
X48857619Y-17132438D01*
X48857619Y-17132438D02*
X48952857Y-17227676D01*
X48952857Y-17227676D02*
X49000476Y-17322914D01*
X49000476Y-17322914D02*
X49048095Y-17513390D01*
X49048095Y-17513390D02*
X49048095Y-17656247D01*
X49048095Y-17656247D02*
X49000476Y-17846723D01*
X49000476Y-17846723D02*
X48952857Y-17941961D01*
X48952857Y-17941961D02*
X48857619Y-18037200D01*
X48857619Y-18037200D02*
X48714762Y-18084819D01*
X48714762Y-18084819D02*
X48476667Y-18084819D01*
X49429048Y-17799104D02*
X49905238Y-17799104D01*
X49333810Y-18084819D02*
X49667143Y-17084819D01*
X49667143Y-17084819D02*
X50000476Y-18084819D01*
X5849523Y-25134819D02*
X5849523Y-25849104D01*
X5849523Y-25849104D02*
X5801904Y-25991961D01*
X5801904Y-25991961D02*
X5706666Y-26087200D01*
X5706666Y-26087200D02*
X5563809Y-26134819D01*
X5563809Y-26134819D02*
X5468571Y-26134819D01*
X6087619Y-26230057D02*
X6849523Y-26230057D01*
X7420952Y-25611009D02*
X7563809Y-25658628D01*
X7563809Y-25658628D02*
X7611428Y-25706247D01*
X7611428Y-25706247D02*
X7659047Y-25801485D01*
X7659047Y-25801485D02*
X7659047Y-25944342D01*
X7659047Y-25944342D02*
X7611428Y-26039580D01*
X7611428Y-26039580D02*
X7563809Y-26087200D01*
X7563809Y-26087200D02*
X7468571Y-26134819D01*
X7468571Y-26134819D02*
X7087619Y-26134819D01*
X7087619Y-26134819D02*
X7087619Y-25134819D01*
X7087619Y-25134819D02*
X7420952Y-25134819D01*
X7420952Y-25134819D02*
X7516190Y-25182438D01*
X7516190Y-25182438D02*
X7563809Y-25230057D01*
X7563809Y-25230057D02*
X7611428Y-25325295D01*
X7611428Y-25325295D02*
X7611428Y-25420533D01*
X7611428Y-25420533D02*
X7563809Y-25515771D01*
X7563809Y-25515771D02*
X7516190Y-25563390D01*
X7516190Y-25563390D02*
X7420952Y-25611009D01*
X7420952Y-25611009D02*
X7087619Y-25611009D01*
X8087619Y-25611009D02*
X8420952Y-25611009D01*
X8563809Y-26134819D02*
X8087619Y-26134819D01*
X8087619Y-26134819D02*
X8087619Y-25134819D01*
X8087619Y-25134819D02*
X8563809Y-25134819D01*
X9563809Y-26039580D02*
X9516190Y-26087200D01*
X9516190Y-26087200D02*
X9373333Y-26134819D01*
X9373333Y-26134819D02*
X9278095Y-26134819D01*
X9278095Y-26134819D02*
X9135238Y-26087200D01*
X9135238Y-26087200D02*
X9040000Y-25991961D01*
X9040000Y-25991961D02*
X8992381Y-25896723D01*
X8992381Y-25896723D02*
X8944762Y-25706247D01*
X8944762Y-25706247D02*
X8944762Y-25563390D01*
X8944762Y-25563390D02*
X8992381Y-25372914D01*
X8992381Y-25372914D02*
X9040000Y-25277676D01*
X9040000Y-25277676D02*
X9135238Y-25182438D01*
X9135238Y-25182438D02*
X9278095Y-25134819D01*
X9278095Y-25134819D02*
X9373333Y-25134819D01*
X9373333Y-25134819D02*
X9516190Y-25182438D01*
X9516190Y-25182438D02*
X9563809Y-25230057D01*
X25714285Y-1074819D02*
X25714285Y-1789104D01*
X25714285Y-1789104D02*
X25666666Y-1931961D01*
X25666666Y-1931961D02*
X25571428Y-2027200D01*
X25571428Y-2027200D02*
X25428571Y-2074819D01*
X25428571Y-2074819D02*
X25333333Y-2074819D01*
X25952381Y-2170057D02*
X26714285Y-2170057D01*
X26952381Y-2074819D02*
X26952381Y-1074819D01*
X26952381Y-1074819D02*
X27285714Y-1789104D01*
X27285714Y-1789104D02*
X27619047Y-1074819D01*
X27619047Y-1074819D02*
X27619047Y-2074819D01*
X28047619Y-1170057D02*
X28095238Y-1122438D01*
X28095238Y-1122438D02*
X28190476Y-1074819D01*
X28190476Y-1074819D02*
X28428571Y-1074819D01*
X28428571Y-1074819D02*
X28523809Y-1122438D01*
X28523809Y-1122438D02*
X28571428Y-1170057D01*
X28571428Y-1170057D02*
X28619047Y-1265295D01*
X28619047Y-1265295D02*
X28619047Y-1360533D01*
X28619047Y-1360533D02*
X28571428Y-1503390D01*
X28571428Y-1503390D02*
X28000000Y-2074819D01*
X28000000Y-2074819D02*
X28619047Y-2074819D01*
D11*
X1806666Y-4079271D02*
X1806666Y-2809271D01*
X1806666Y-2809271D02*
X2230000Y-3716414D01*
X2230000Y-3716414D02*
X2653333Y-2809271D01*
X2653333Y-2809271D02*
X2653333Y-4079271D01*
X3258095Y-4079271D02*
X3258095Y-2809271D01*
X3258095Y-3414033D02*
X3983810Y-3414033D01*
X3983810Y-4079271D02*
X3983810Y-2809271D01*
X5253810Y-4079271D02*
X4528095Y-4079271D01*
X4890952Y-4079271D02*
X4890952Y-2809271D01*
X4890952Y-2809271D02*
X4770000Y-2990699D01*
X4770000Y-2990699D02*
X4649048Y-3111652D01*
X4649048Y-3111652D02*
X4528095Y-3172128D01*
D10*
X16865714Y-37984819D02*
X16865714Y-36984819D01*
X16865714Y-36984819D02*
X17103809Y-36984819D01*
X17103809Y-36984819D02*
X17246666Y-37032438D01*
X17246666Y-37032438D02*
X17341904Y-37127676D01*
X17341904Y-37127676D02*
X17389523Y-37222914D01*
X17389523Y-37222914D02*
X17437142Y-37413390D01*
X17437142Y-37413390D02*
X17437142Y-37556247D01*
X17437142Y-37556247D02*
X17389523Y-37746723D01*
X17389523Y-37746723D02*
X17341904Y-37841961D01*
X17341904Y-37841961D02*
X17246666Y-37937200D01*
X17246666Y-37937200D02*
X17103809Y-37984819D01*
X17103809Y-37984819D02*
X16865714Y-37984819D01*
X17627619Y-38080057D02*
X18389523Y-38080057D01*
X18627619Y-37984819D02*
X18627619Y-36984819D01*
X18627619Y-36984819D02*
X19008571Y-36984819D01*
X19008571Y-36984819D02*
X19103809Y-37032438D01*
X19103809Y-37032438D02*
X19151428Y-37080057D01*
X19151428Y-37080057D02*
X19199047Y-37175295D01*
X19199047Y-37175295D02*
X19199047Y-37318152D01*
X19199047Y-37318152D02*
X19151428Y-37413390D01*
X19151428Y-37413390D02*
X19103809Y-37461009D01*
X19103809Y-37461009D02*
X19008571Y-37508628D01*
X19008571Y-37508628D02*
X18627619Y-37508628D01*
X19532381Y-36984819D02*
X19770476Y-37984819D01*
X19770476Y-37984819D02*
X19960952Y-37270533D01*
X19960952Y-37270533D02*
X20151428Y-37984819D01*
X20151428Y-37984819D02*
X20389524Y-36984819D01*
X21341904Y-37984819D02*
X21008571Y-37508628D01*
X20770476Y-37984819D02*
X20770476Y-36984819D01*
X20770476Y-36984819D02*
X21151428Y-36984819D01*
X21151428Y-36984819D02*
X21246666Y-37032438D01*
X21246666Y-37032438D02*
X21294285Y-37080057D01*
X21294285Y-37080057D02*
X21341904Y-37175295D01*
X21341904Y-37175295D02*
X21341904Y-37318152D01*
X21341904Y-37318152D02*
X21294285Y-37413390D01*
X21294285Y-37413390D02*
X21246666Y-37461009D01*
X21246666Y-37461009D02*
X21151428Y-37508628D01*
X21151428Y-37508628D02*
X20770476Y-37508628D01*
X13738095Y-38354819D02*
X13738095Y-37354819D01*
X14309523Y-38354819D02*
X13880952Y-37783390D01*
X14309523Y-37354819D02*
X13738095Y-37926247D01*
%TO.C,BZ*%
D12*
X8620000Y-18620000D02*
X10000000Y-18620000D01*
X8620000Y-20000000D02*
X8620000Y-18620000D01*
X8620000Y-21270000D02*
X8620000Y-23920000D01*
X8620000Y-21270000D02*
X11380000Y-21270000D01*
X8620000Y-23920000D02*
X11380000Y-23920000D01*
X11380000Y-21270000D02*
X11380000Y-23920000D01*
%TO.C,J_M1*%
X13620000Y-2620000D02*
X15000000Y-2620000D01*
X13620000Y-4000000D02*
X13620000Y-2620000D01*
X13620000Y-5270000D02*
X13620000Y-10460000D01*
X13620000Y-5270000D02*
X16380000Y-5270000D01*
X13620000Y-10460000D02*
X16380000Y-10460000D01*
X16380000Y-5270000D02*
X16380000Y-10460000D01*
%TO.C,C_DEC*%
X40485000Y-39080000D02*
X42015000Y-39080000D01*
X42015000Y-40920000D02*
X40485000Y-40920000D01*
%TO.C,J_IMU*%
X28670000Y-15270000D02*
X28670000Y-33110000D01*
X28670000Y-15270000D02*
X31330000Y-15270000D01*
X28670000Y-33110000D02*
X31330000Y-33110000D01*
X30000000Y-12670000D02*
X31330000Y-12670000D01*
X31330000Y-12670000D02*
X31330000Y-14000000D01*
X31330000Y-15270000D02*
X31330000Y-33110000D01*
%TO.C,J_M3*%
X37620000Y-2620000D02*
X39000000Y-2620000D01*
X37620000Y-4000000D02*
X37620000Y-2620000D01*
X37620000Y-5270000D02*
X37620000Y-10460000D01*
X37620000Y-5270000D02*
X40380000Y-5270000D01*
X37620000Y-10460000D02*
X40380000Y-10460000D01*
X40380000Y-5270000D02*
X40380000Y-10460000D01*
%TO.C,J_PI*%
X7070000Y-48170000D02*
X8400000Y-48170000D01*
X7070000Y-49500000D02*
X7070000Y-48170000D01*
X7070000Y-50770000D02*
X9670000Y-50770000D01*
X7070000Y-53370000D02*
X7070000Y-50770000D01*
X7070000Y-53370000D02*
X57990000Y-53370000D01*
X9670000Y-48170000D02*
X57990000Y-48170000D01*
X9670000Y-50770000D02*
X9670000Y-48170000D01*
X57990000Y-53370000D02*
X57990000Y-48170000D01*
%TO.C,J_M4*%
X49620000Y-2620000D02*
X51000000Y-2620000D01*
X49620000Y-4000000D02*
X49620000Y-2620000D01*
X49620000Y-5270000D02*
X49620000Y-10460000D01*
X49620000Y-5270000D02*
X52380000Y-5270000D01*
X49620000Y-10460000D02*
X52380000Y-10460000D01*
X52380000Y-5270000D02*
X52380000Y-10460000D01*
%TO.C,R_LED*%
X44540000Y-28630000D02*
X51080000Y-28630000D01*
X44540000Y-28960000D02*
X44540000Y-28630000D01*
X44540000Y-31040000D02*
X44540000Y-31370000D01*
X44540000Y-31370000D02*
X51080000Y-31370000D01*
X51080000Y-28630000D02*
X51080000Y-28960000D01*
X51080000Y-31370000D02*
X51080000Y-31040000D01*
%TO.C,C_BULK*%
X27340302Y-37685000D02*
X28140302Y-37685000D01*
X27740302Y-37285000D02*
X27740302Y-38085000D01*
X31750000Y-35920000D02*
X31750000Y-44080000D01*
X31790000Y-35920000D02*
X31790000Y-44080000D01*
X31830000Y-35921000D02*
X31830000Y-44079000D01*
X31870000Y-35922000D02*
X31870000Y-44078000D01*
X31910000Y-35923000D02*
X31910000Y-44077000D01*
X31950000Y-35925000D02*
X31950000Y-44075000D01*
X31990000Y-35927000D02*
X31990000Y-44073000D01*
X32030000Y-35930000D02*
X32030000Y-44070000D01*
X32070000Y-35932000D02*
X32070000Y-44068000D01*
X32110000Y-35936000D02*
X32110000Y-44064000D01*
X32150000Y-35939000D02*
X32150000Y-44061000D01*
X32190000Y-35944000D02*
X32190000Y-44056000D01*
X32230000Y-35948000D02*
X32230000Y-44052000D01*
X32270000Y-35953000D02*
X32270000Y-44047000D01*
X32310000Y-35958000D02*
X32310000Y-44042000D01*
X32350000Y-35964000D02*
X32350000Y-44036000D01*
X32390000Y-35970000D02*
X32390000Y-44030000D01*
X32430000Y-35977000D02*
X32430000Y-44023000D01*
X32470000Y-35983000D02*
X32470000Y-38960000D01*
X32470000Y-41040000D02*
X32470000Y-44017000D01*
X32510000Y-35991000D02*
X32510000Y-38960000D01*
X32510000Y-41040000D02*
X32510000Y-44009000D01*
X32550000Y-35998000D02*
X32550000Y-38960000D01*
X32550000Y-41040000D02*
X32550000Y-44002000D01*
X32590000Y-36007000D02*
X32590000Y-38960000D01*
X32590000Y-41040000D02*
X32590000Y-43993000D01*
X32630000Y-36015000D02*
X32630000Y-38960000D01*
X32630000Y-41040000D02*
X32630000Y-43985000D01*
X32670000Y-36024000D02*
X32670000Y-38960000D01*
X32670000Y-41040000D02*
X32670000Y-43976000D01*
X32710000Y-36033000D02*
X32710000Y-38960000D01*
X32710000Y-41040000D02*
X32710000Y-43967000D01*
X32750000Y-36043000D02*
X32750000Y-38960000D01*
X32750000Y-41040000D02*
X32750000Y-43957000D01*
X32790000Y-36053000D02*
X32790000Y-38960000D01*
X32790000Y-41040000D02*
X32790000Y-43947000D01*
X32830000Y-36064000D02*
X32830000Y-38960000D01*
X32830000Y-41040000D02*
X32830000Y-43936000D01*
X32870000Y-36075000D02*
X32870000Y-38960000D01*
X32870000Y-41040000D02*
X32870000Y-43925000D01*
X32910000Y-36087000D02*
X32910000Y-38960000D01*
X32910000Y-41040000D02*
X32910000Y-43913000D01*
X32950000Y-36099000D02*
X32950000Y-38960000D01*
X32950000Y-41040000D02*
X32950000Y-43901000D01*
X32990000Y-36111000D02*
X32990000Y-38960000D01*
X32990000Y-41040000D02*
X32990000Y-43889000D01*
X33030000Y-36124000D02*
X33030000Y-38960000D01*
X33030000Y-41040000D02*
X33030000Y-43876000D01*
X33070000Y-36137000D02*
X33070000Y-38960000D01*
X33070000Y-41040000D02*
X33070000Y-43863000D01*
X33110000Y-36151000D02*
X33110000Y-38960000D01*
X33110000Y-41040000D02*
X33110000Y-43849000D01*
X33150000Y-36165000D02*
X33150000Y-38960000D01*
X33150000Y-41040000D02*
X33150000Y-43835000D01*
X33190000Y-36180000D02*
X33190000Y-38960000D01*
X33190000Y-41040000D02*
X33190000Y-43820000D01*
X33230000Y-36195000D02*
X33230000Y-38960000D01*
X33230000Y-41040000D02*
X33230000Y-43805000D01*
X33270000Y-36211000D02*
X33270000Y-38960000D01*
X33270000Y-41040000D02*
X33270000Y-43789000D01*
X33310000Y-36227000D02*
X33310000Y-38960000D01*
X33310000Y-41040000D02*
X33310000Y-43773000D01*
X33350000Y-36243000D02*
X33350000Y-38960000D01*
X33350000Y-41040000D02*
X33350000Y-43757000D01*
X33390000Y-36260000D02*
X33390000Y-38960000D01*
X33390000Y-41040000D02*
X33390000Y-43740000D01*
X33430000Y-36278000D02*
X33430000Y-38960000D01*
X33430000Y-41040000D02*
X33430000Y-43722000D01*
X33470000Y-36296000D02*
X33470000Y-38960000D01*
X33470000Y-41040000D02*
X33470000Y-43704000D01*
X33510000Y-36315000D02*
X33510000Y-38960000D01*
X33510000Y-41040000D02*
X33510000Y-43685000D01*
X33550000Y-36334000D02*
X33550000Y-38960000D01*
X33550000Y-41040000D02*
X33550000Y-43666000D01*
X33590000Y-36354000D02*
X33590000Y-38960000D01*
X33590000Y-41040000D02*
X33590000Y-43646000D01*
X33630000Y-36374000D02*
X33630000Y-38960000D01*
X33630000Y-41040000D02*
X33630000Y-43626000D01*
X33670000Y-36395000D02*
X33670000Y-38960000D01*
X33670000Y-41040000D02*
X33670000Y-43605000D01*
X33710000Y-36416000D02*
X33710000Y-38960000D01*
X33710000Y-41040000D02*
X33710000Y-43584000D01*
X33750000Y-36438000D02*
X33750000Y-38960000D01*
X33750000Y-41040000D02*
X33750000Y-43562000D01*
X33790000Y-36461000D02*
X33790000Y-38960000D01*
X33790000Y-41040000D02*
X33790000Y-43539000D01*
X33830000Y-36484000D02*
X33830000Y-38960000D01*
X33830000Y-41040000D02*
X33830000Y-43516000D01*
X33870000Y-36507000D02*
X33870000Y-38960000D01*
X33870000Y-41040000D02*
X33870000Y-43493000D01*
X33910000Y-36532000D02*
X33910000Y-38960000D01*
X33910000Y-41040000D02*
X33910000Y-43468000D01*
X33950000Y-36557000D02*
X33950000Y-38960000D01*
X33950000Y-41040000D02*
X33950000Y-43443000D01*
X33990000Y-36582000D02*
X33990000Y-38960000D01*
X33990000Y-41040000D02*
X33990000Y-43418000D01*
X34030000Y-36608000D02*
X34030000Y-38960000D01*
X34030000Y-41040000D02*
X34030000Y-43392000D01*
X34070000Y-36635000D02*
X34070000Y-38960000D01*
X34070000Y-41040000D02*
X34070000Y-43365000D01*
X34110000Y-36663000D02*
X34110000Y-38960000D01*
X34110000Y-41040000D02*
X34110000Y-43337000D01*
X34150000Y-36691000D02*
X34150000Y-38960000D01*
X34150000Y-41040000D02*
X34150000Y-43309000D01*
X34190000Y-36720000D02*
X34190000Y-38960000D01*
X34190000Y-41040000D02*
X34190000Y-43280000D01*
X34230000Y-36750000D02*
X34230000Y-38960000D01*
X34230000Y-41040000D02*
X34230000Y-43250000D01*
X34270000Y-36781000D02*
X34270000Y-38960000D01*
X34270000Y-41040000D02*
X34270000Y-43219000D01*
X34310000Y-36812000D02*
X34310000Y-38960000D01*
X34310000Y-41040000D02*
X34310000Y-43188000D01*
X34350000Y-36844000D02*
X34350000Y-38960000D01*
X34350000Y-41040000D02*
X34350000Y-43156000D01*
X34390000Y-36877000D02*
X34390000Y-38960000D01*
X34390000Y-41040000D02*
X34390000Y-43123000D01*
X34430000Y-36911000D02*
X34430000Y-38960000D01*
X34430000Y-41040000D02*
X34430000Y-43089000D01*
X34470000Y-36945000D02*
X34470000Y-38960000D01*
X34470000Y-41040000D02*
X34470000Y-43055000D01*
X34510000Y-36981000D02*
X34510000Y-38960000D01*
X34510000Y-41040000D02*
X34510000Y-43019000D01*
X34550000Y-37018000D02*
X34550000Y-42982000D01*
X34590000Y-37055000D02*
X34590000Y-42945000D01*
X34630000Y-37094000D02*
X34630000Y-42906000D01*
X34670000Y-37133000D02*
X34670000Y-42867000D01*
X34710000Y-37174000D02*
X34710000Y-42826000D01*
X34750000Y-37216000D02*
X34750000Y-42784000D01*
X34790000Y-37259000D02*
X34790000Y-42741000D01*
X34830000Y-37304000D02*
X34830000Y-42696000D01*
X34870000Y-37349000D02*
X34870000Y-42651000D01*
X34910000Y-37396000D02*
X34910000Y-42604000D01*
X34950000Y-37445000D02*
X34950000Y-42555000D01*
X34990000Y-37495000D02*
X34990000Y-42505000D01*
X35030000Y-37547000D02*
X35030000Y-42453000D01*
X35070000Y-37600000D02*
X35070000Y-42400000D01*
X35110000Y-37656000D02*
X35110000Y-42344000D01*
X35150000Y-37713000D02*
X35150000Y-42287000D01*
X35190000Y-37773000D02*
X35190000Y-42227000D01*
X35230000Y-37835000D02*
X35230000Y-42165000D01*
X35270000Y-37899000D02*
X35270000Y-42101000D01*
X35310000Y-37966000D02*
X35310000Y-42034000D01*
X35350000Y-38036000D02*
X35350000Y-41964000D01*
X35390000Y-38110000D02*
X35390000Y-41890000D01*
X35430000Y-38187000D02*
X35430000Y-41813000D01*
X35470000Y-38269000D02*
X35470000Y-41731000D01*
X35510000Y-38356000D02*
X35510000Y-41644000D01*
X35550000Y-38448000D02*
X35550000Y-41552000D01*
X35590000Y-38547000D02*
X35590000Y-41453000D01*
X35630000Y-38654000D02*
X35630000Y-41346000D01*
X35670000Y-38772000D02*
X35670000Y-41228000D01*
X35710000Y-38903000D02*
X35710000Y-41097000D01*
X35750000Y-39053000D02*
X35750000Y-40947000D01*
X35790000Y-39232000D02*
X35790000Y-40768000D01*
X35830000Y-39467000D02*
X35830000Y-40533000D01*
X35870000Y-40000000D02*
G75*
G02*
X27630000Y-40000000I-4120000J0D01*
G01*
X27630000Y-40000000D02*
G75*
G02*
X35870000Y-40000000I4120000J0D01*
G01*
%TO.C,LED1*%
X54710000Y-28455000D02*
X54710000Y-31545000D01*
X54710000Y-28455170D02*
G75*
G02*
X60260000Y-30000000I2560000J-1544830D01*
G01*
X60260000Y-30000000D02*
G75*
G02*
X54710000Y-31544830I-2990000J0D01*
G01*
X59770000Y-30000000D02*
G75*
G02*
X54770000Y-30000000I-2500000J0D01*
G01*
X54770000Y-30000000D02*
G75*
G02*
X59770000Y-30000000I2500000J0D01*
G01*
%TO.C,R_SCL*%
X44540000Y-23630000D02*
X51080000Y-23630000D01*
X44540000Y-23960000D02*
X44540000Y-23630000D01*
X44540000Y-26040000D02*
X44540000Y-26370000D01*
X44540000Y-26370000D02*
X51080000Y-26370000D01*
X51080000Y-23630000D02*
X51080000Y-23960000D01*
X51080000Y-26370000D02*
X51080000Y-26040000D01*
%TO.C,R_SDA*%
X44540000Y-18630000D02*
X51080000Y-18630000D01*
X44540000Y-18960000D02*
X44540000Y-18630000D01*
X44540000Y-21040000D02*
X44540000Y-21370000D01*
X44540000Y-21370000D02*
X51080000Y-21370000D01*
X51080000Y-18630000D02*
X51080000Y-18960000D01*
X51080000Y-21370000D02*
X51080000Y-21040000D01*
%TO.C,J_BEC*%
X2340000Y-26680000D02*
X12740000Y-26680000D01*
X2340000Y-29700000D02*
X12740000Y-29700000D01*
X2340000Y-34600000D02*
X12740000Y-34600000D01*
X2340000Y-36100000D02*
X12740000Y-36100000D01*
X2340000Y-36720000D02*
X2340000Y-26680000D01*
X4700000Y-36720000D02*
X2340000Y-36720000D01*
X12740000Y-26680000D02*
X12740000Y-36720000D01*
X12740000Y-36720000D02*
X5300000Y-36720000D01*
X5000000Y-36720000D02*
X5440000Y-37330000D01*
X4560000Y-37330000D01*
X5000000Y-36720000D01*
G36*
X5440000Y-37330000D02*
G01*
X4560000Y-37330000D01*
X5000000Y-36720000D01*
X5440000Y-37330000D01*
G37*
%TO.C,J_M2*%
X25620000Y-2620000D02*
X27000000Y-2620000D01*
X25620000Y-4000000D02*
X25620000Y-2620000D01*
X25620000Y-5270000D02*
X25620000Y-10460000D01*
X25620000Y-5270000D02*
X28380000Y-5270000D01*
X25620000Y-10460000D02*
X28380000Y-10460000D01*
X28380000Y-5270000D02*
X28380000Y-10460000D01*
%TO.C,D_PWR*%
X15340000Y-40000000D02*
X16360000Y-40000000D01*
X17140000Y-38530000D02*
X17140000Y-41470000D01*
X17260000Y-38530000D02*
X17260000Y-41470000D01*
X17380000Y-38530000D02*
X17380000Y-41470000D01*
X22820000Y-40000000D02*
X21800000Y-40000000D01*
X16360000Y-38530000D02*
X21800000Y-38530000D01*
X21800000Y-41470000D01*
X16360000Y-41470000D01*
X16360000Y-38530000D01*
%TD*%
M02*
