%TF.GenerationSoftware,KiCad,Pcbnew,10.0.4*%
%TF.CreationDate,2026-07-29T23:15:59+02:00*%
%TF.ProjectId,RPi-DroneRover-HAT,5250692d-4472-46f6-9e65-526f7665722d,rev?*%
%TF.SameCoordinates,Original*%
%TF.FileFunction,Copper,L1,Top*%
%TF.FilePolarity,Positive*%
%FSLAX46Y46*%
G04 Gerber Fmt 4.6, Leading zero omitted, Abs format (unit mm)*
G04 Created by KiCad (PCBNEW 10.0.4) date 2026-07-29 23:15:59*
%MOMM*%
%LPD*%
G01*
G04 APERTURE LIST*
G04 Aperture macros list*
%AMRoundRect*
0 Rectangle with rounded corners*
0 $1 Rounding radius*
0 $2 $3 $4 $5 $6 $7 $8 $9 X,Y pos of 4 corners*
0 Add a 4 corners polygon primitive as box body*
4,1,4,$2,$3,$4,$5,$6,$7,$8,$9,$2,$3,0*
0 Add four circle primitives for the rounded corners*
1,1,$1+$1,$2,$3*
1,1,$1+$1,$4,$5*
1,1,$1+$1,$6,$7*
1,1,$1+$1,$8,$9*
0 Add four rect primitives between the rounded corners*
20,1,$1+$1,$2,$3,$4,$5,0*
20,1,$1+$1,$4,$5,$6,$7,0*
20,1,$1+$1,$6,$7,$8,$9,0*
20,1,$1+$1,$8,$9,$2,$3,0*%
G04 Aperture macros list end*
%TA.AperFunction,ComponentPad*%
%ADD10R,1.700000X1.700000*%
%TD*%
%TA.AperFunction,ComponentPad*%
%ADD11C,1.700000*%
%TD*%
%TA.AperFunction,ComponentPad*%
%ADD12C,1.600000*%
%TD*%
%TA.AperFunction,ComponentPad*%
%ADD13RoundRect,0.250000X-0.550000X-0.550000X0.550000X-0.550000X0.550000X0.550000X-0.550000X0.550000X0*%
%TD*%
%TA.AperFunction,ComponentPad*%
%ADD14R,1.800000X1.800000*%
%TD*%
%TA.AperFunction,ComponentPad*%
%ADD15C,1.800000*%
%TD*%
%TA.AperFunction,ComponentPad*%
%ADD16RoundRect,0.250000X-1.050000X-1.050000X1.050000X-1.050000X1.050000X1.050000X-1.050000X1.050000X0*%
%TD*%
%TA.AperFunction,ComponentPad*%
%ADD17C,2.600000*%
%TD*%
%TA.AperFunction,ComponentPad*%
%ADD18RoundRect,0.249999X-0.850001X-0.850001X0.850001X-0.850001X0.850001X0.850001X-0.850001X0.850001X0*%
%TD*%
%TA.AperFunction,ComponentPad*%
%ADD19C,2.200000*%
%TD*%
%TA.AperFunction,ViaPad*%
%ADD20C,0.600000*%
%TD*%
%TA.AperFunction,Conductor*%
%ADD21C,0.400000*%
%TD*%
G04 APERTURE END LIST*
D10*
%TO.P,BZ,1*%
%TO.N,BZ_SIG*%
X10000000Y-20000000D03*
D11*
%TO.P,BZ,2*%
%TO.N,GND*%
X10000000Y-22540000D03*
%TD*%
D10*
%TO.P,J_M1,1*%
%TO.N,PWM1*%
X15000000Y-4000000D03*
D11*
%TO.P,J_M1,2*%
%TO.N,+5V*%
X15000000Y-6540000D03*
%TO.P,J_M1,3*%
%TO.N,GND*%
X15000000Y-9080000D03*
%TD*%
D12*
%TO.P,C_DEC,1*%
%TO.N,+5V*%
X40000000Y-40000000D03*
%TO.P,C_DEC,2*%
%TO.N,GND*%
X42500000Y-40000000D03*
%TD*%
D10*
%TO.P,J_IMU,1*%
%TO.N,+5V*%
X30000000Y-14000000D03*
D11*
%TO.P,J_IMU,2*%
%TO.N,GND*%
X30000000Y-16540000D03*
%TO.P,J_IMU,3*%
%TO.N,SCL*%
X30000000Y-19080000D03*
%TO.P,J_IMU,4*%
%TO.N,SDA*%
X30000000Y-21620000D03*
%TO.P,J_IMU,5*%
%TO.N,N/C*%
X30000000Y-24160000D03*
%TO.P,J_IMU,6*%
X30000000Y-26700000D03*
%TO.P,J_IMU,7*%
%TO.N,GND*%
X30000000Y-29240000D03*
%TO.P,J_IMU,8*%
%TO.N,IMU_INT*%
X30000000Y-31780000D03*
%TD*%
D10*
%TO.P,J_M3,1*%
%TO.N,PWM3*%
X39000000Y-4000000D03*
D11*
%TO.P,J_M3,2*%
%TO.N,+5V*%
X39000000Y-6540000D03*
%TO.P,J_M3,3*%
%TO.N,GND*%
X39000000Y-9080000D03*
%TD*%
D10*
%TO.P,J_PI,1*%
%TO.N,+3V3*%
X8400000Y-49500000D03*
D11*
%TO.P,J_PI,2*%
%TO.N,+5V*%
X8400000Y-52040000D03*
%TO.P,J_PI,3*%
%TO.N,SDA*%
X10940000Y-49500000D03*
%TO.P,J_PI,4*%
%TO.N,+5V*%
X10940000Y-52040000D03*
%TO.P,J_PI,5*%
%TO.N,SCL*%
X13480000Y-49500000D03*
%TO.P,J_PI,6*%
%TO.N,GND*%
X13480000Y-52040000D03*
%TO.P,J_PI,7*%
%TO.N,IMU_INT*%
X16020000Y-49500000D03*
%TO.P,J_PI,8*%
%TO.N,N/C*%
X16020000Y-52040000D03*
%TO.P,J_PI,9*%
%TO.N,GND*%
X18560000Y-49500000D03*
%TO.P,J_PI,10*%
%TO.N,N/C*%
X18560000Y-52040000D03*
%TO.P,J_PI,11*%
X21100000Y-49500000D03*
%TO.P,J_PI,12*%
%TO.N,PWM3*%
X21100000Y-52040000D03*
%TO.P,J_PI,13*%
%TO.N,N/C*%
X23640000Y-49500000D03*
%TO.P,J_PI,14*%
%TO.N,GND*%
X23640000Y-52040000D03*
%TO.P,J_PI,15*%
%TO.N,N/C*%
X26180000Y-49500000D03*
%TO.P,J_PI,16*%
X26180000Y-52040000D03*
%TO.P,J_PI,17*%
X28720000Y-49500000D03*
%TO.P,J_PI,18*%
X28720000Y-52040000D03*
%TO.P,J_PI,19*%
X31260000Y-49500000D03*
%TO.P,J_PI,20*%
%TO.N,GND*%
X31260000Y-52040000D03*
%TO.P,J_PI,21*%
%TO.N,N/C*%
X33800000Y-49500000D03*
%TO.P,J_PI,22*%
X33800000Y-52040000D03*
%TO.P,J_PI,23*%
X36340000Y-49500000D03*
%TO.P,J_PI,24*%
X36340000Y-52040000D03*
%TO.P,J_PI,25*%
%TO.N,GND*%
X38880000Y-49500000D03*
%TO.P,J_PI,26*%
%TO.N,N/C*%
X38880000Y-52040000D03*
%TO.P,J_PI,27*%
X41420000Y-49500000D03*
%TO.P,J_PI,28*%
X41420000Y-52040000D03*
%TO.P,J_PI,29*%
X43960000Y-49500000D03*
%TO.P,J_PI,30*%
%TO.N,GND*%
X43960000Y-52040000D03*
%TO.P,J_PI,31*%
%TO.N,N/C*%
X46500000Y-49500000D03*
%TO.P,J_PI,32*%
%TO.N,PWM1*%
X46500000Y-52040000D03*
%TO.P,J_PI,33*%
%TO.N,PWM2*%
X49040000Y-49500000D03*
%TO.P,J_PI,34*%
%TO.N,GND*%
X49040000Y-52040000D03*
%TO.P,J_PI,35*%
%TO.N,PWM4*%
X51580000Y-49500000D03*
%TO.P,J_PI,36*%
%TO.N,LED_DRV*%
X51580000Y-52040000D03*
%TO.P,J_PI,37*%
%TO.N,BZ_SIG*%
X54120000Y-49500000D03*
%TO.P,J_PI,38*%
%TO.N,N/C*%
X54120000Y-52040000D03*
%TO.P,J_PI,39*%
%TO.N,GND*%
X56660000Y-49500000D03*
%TO.P,J_PI,40*%
%TO.N,N/C*%
X56660000Y-52040000D03*
%TD*%
D10*
%TO.P,J_M4,1*%
%TO.N,PWM4*%
X51000000Y-4000000D03*
D11*
%TO.P,J_M4,2*%
%TO.N,+5V*%
X51000000Y-6540000D03*
%TO.P,J_M4,3*%
%TO.N,GND*%
X51000000Y-9080000D03*
%TD*%
D12*
%TO.P,R_LED,1*%
%TO.N,LED_DRV*%
X44000000Y-30000000D03*
%TO.P,R_LED,2*%
%TO.N,LED_A*%
X51620000Y-30000000D03*
%TD*%
D13*
%TO.P,C_BULK,1*%
%TO.N,+5V*%
X30000000Y-40000000D03*
D12*
%TO.P,C_BULK,2*%
%TO.N,GND*%
X33500000Y-40000000D03*
%TD*%
D14*
%TO.P,LED1,1*%
%TO.N,GND*%
X56000000Y-30000000D03*
D15*
%TO.P,LED1,2*%
%TO.N,LED_A*%
X58540000Y-30000000D03*
%TD*%
D12*
%TO.P,R_SCL,1*%
%TO.N,+3V3*%
X44000000Y-25000000D03*
%TO.P,R_SCL,2*%
%TO.N,SCL*%
X51620000Y-25000000D03*
%TD*%
%TO.P,R_SDA,1*%
%TO.N,+3V3*%
X44000000Y-20000000D03*
%TO.P,R_SDA,2*%
%TO.N,SDA*%
X51620000Y-20000000D03*
%TD*%
D16*
%TO.P,J_BEC,1*%
%TO.N,BEC_IN*%
X5000000Y-32000000D03*
D17*
%TO.P,J_BEC,2*%
%TO.N,GND*%
X10080000Y-32000000D03*
%TD*%
D10*
%TO.P,J_M2,1*%
%TO.N,PWM2*%
X27000000Y-4000000D03*
D11*
%TO.P,J_M2,2*%
%TO.N,+5V*%
X27000000Y-6540000D03*
%TO.P,J_M2,3*%
%TO.N,GND*%
X27000000Y-9080000D03*
%TD*%
D18*
%TO.P,D_PWR,1*%
%TO.N,+5V*%
X14000000Y-40000000D03*
D19*
%TO.P,D_PWR,2*%
%TO.N,BEC_IN*%
X24160000Y-40000000D03*
%TD*%
D20*
%TO.N,PWM1*%
X10273000Y-54566000D03*
%TO.N,SDA*%
X14199300Y-48085700D03*
%TO.N,PWM3*%
X6753900Y-51090000D03*
%TO.N,+3V3*%
X31650900Y-39831500D03*
%TD*%
%TO.N,PWM1*%
D21*
X10273000Y-54566000D02*
X8943800Y-54566000D01*
X3168700Y-15831300D02*
X3168700Y-48790900D01*
X8943800Y-54566000D02*
X10273000Y-54566000D01*
X15000000Y-4000000D02*
X3168700Y-15831300D01*
X3168700Y-48790900D02*
X8943800Y-54566000D01*
X8943800Y-54566000D02*
X10273000Y-54566000D01*
%TO.N,SCL*%
X13397600Y-49417600D02*
X13480000Y-49500000D01*
X30000000Y-19080000D02*
X16036900Y-33043100D01*
X16036900Y-33043100D02*
X16036900Y-44403100D01*
X13397600Y-47042400D02*
X13397600Y-49417600D01*
X16036900Y-44403100D02*
X13397600Y-47042400D01*
%TO.N,SDA*%
X17396700Y-44888300D02*
X17396700Y-34223300D01*
X17396700Y-34223300D02*
X30000000Y-21620000D01*
X14199300Y-48085700D02*
X17396700Y-44888300D01*
%TO.N,IMU_INT*%
X16020000Y-49500000D02*
X18346000Y-47174000D01*
X18346000Y-43434000D02*
X30000000Y-31780000D01*
X18346000Y-47174000D02*
X18346000Y-43434000D01*
%TO.N,PWM3*%
X39000000Y-4000000D02*
X37577600Y-4000000D01*
X12398900Y-29178700D02*
X12398900Y-37921100D01*
X6753900Y-50870900D02*
X6753900Y-51090000D01*
X12398900Y-37921100D02*
X6753900Y-43566100D01*
X6753900Y-43566100D02*
X6753900Y-50870900D01*
X37577600Y-4000000D02*
X12398900Y-29178700D01*
%TO.N,+3V3*%
X31650900Y-40586800D02*
X31650900Y-39831500D01*
X31650900Y-39831500D02*
X31650900Y-40586800D01*
X44000000Y-25000000D02*
X44000000Y-23640300D01*
X31650900Y-37349100D02*
X31650900Y-39831500D01*
X44000000Y-23640300D02*
X44000000Y-22582700D01*
X44000000Y-25000000D02*
X31650900Y-37349100D01*
X44000000Y-22582700D02*
X44000000Y-22500000D01*
X44000000Y-22500000D02*
X44000000Y-20000000D01*
%TO.N,PWM2*%
X28351700Y-4000000D02*
X29703400Y-2648300D01*
X49040000Y-11629000D02*
X49040000Y-49500000D01*
X27000000Y-4000000D02*
X28351700Y-4000000D01*
X40059300Y-2648300D02*
X49040000Y-11629000D01*
X29703400Y-2648300D02*
X40059300Y-2648300D01*
%TO.N,PWM4*%
X52924500Y-48155500D02*
X51580000Y-49500000D01*
X51000000Y-4000000D02*
X52924500Y-5924500D01*
X52924500Y-5924500D02*
X52924500Y-48155500D01*
%TD*%
M02*
