M48
; DRILL file KiCad 10.0.4 date 2026-07-29T23:15:59
; FORMAT={-:-/ absolute / metric / decimal}
; #@! TF.CreationDate,2026-07-29T23:15:59+02:00
; #@! TF.GenerationSoftware,Kicad,Pcbnew,10.0.4
; #@! TF.FileFunction,MixedPlating,1,4
FMAT,2
METRIC
; #@! TA.AperFunction,Plated,PTH,ViaDrill
T1C0.300
; #@! TA.AperFunction,Plated,PTH,ComponentDrill
T2C0.800
; #@! TA.AperFunction,Plated,PTH,ComponentDrill
T3C0.900
; #@! TA.AperFunction,Plated,PTH,ComponentDrill
T4C1.000
; #@! TA.AperFunction,Plated,PTH,ComponentDrill
T5C1.100
; #@! TA.AperFunction,Plated,PTH,ComponentDrill
T6C1.300
; #@! TA.AperFunction,NonPlated,NPTH,ComponentDrill
T7C2.750
%
G90
G05
T1
X6.754Y-51.09
X10.273Y-54.566
X14.199Y-48.086
X31.651Y-39.831
T2
X30.0Y-40.0
X33.5Y-40.0
X40.0Y-40.0
X42.5Y-40.0
X44.0Y-20.0
X44.0Y-25.0
X44.0Y-30.0
X51.62Y-20.0
X51.62Y-25.0
X51.62Y-30.0
T3
X56.0Y-30.0
X58.54Y-30.0
T4
X8.4Y-49.5
X8.4Y-52.04
X10.0Y-20.0
X10.0Y-22.54
X10.94Y-49.5
X10.94Y-52.04
X13.48Y-49.5
X13.48Y-52.04
X15.0Y-4.0
X15.0Y-6.54
X15.0Y-9.08
X16.02Y-49.5
X16.02Y-52.04
X18.56Y-49.5
X18.56Y-52.04
X21.1Y-49.5
X21.1Y-52.04
X23.64Y-49.5
X23.64Y-52.04
X26.18Y-49.5
X26.18Y-52.04
X27.0Y-4.0
X27.0Y-6.54
X27.0Y-9.08
X28.72Y-49.5
X28.72Y-52.04
X30.0Y-14.0
X30.0Y-16.54
X30.0Y-19.08
X30.0Y-21.62
X30.0Y-24.16
X30.0Y-26.7
X30.0Y-29.24
X30.0Y-31.78
X31.26Y-49.5
X31.26Y-52.04
X33.8Y-49.5
X33.8Y-52.04
X36.34Y-49.5
X36.34Y-52.04
X38.88Y-49.5
X38.88Y-52.04
X39.0Y-4.0
X39.0Y-6.54
X39.0Y-9.08
X41.42Y-49.5
X41.42Y-52.04
X43.96Y-49.5
X43.96Y-52.04
X46.5Y-49.5
X46.5Y-52.04
X49.04Y-49.5
X49.04Y-52.04
X51.0Y-4.0
X51.0Y-6.54
X51.0Y-9.08
X51.58Y-49.5
X51.58Y-52.04
X54.12Y-49.5
X54.12Y-52.04
X56.66Y-49.5
X56.66Y-52.04
T5
X14.0Y-40.0
X24.16Y-40.0
T6
X5.0Y-32.0
X10.08Y-32.0
T7
X3.5Y-3.5
X3.5Y-52.5
X61.5Y-3.5
X61.5Y-52.5
M30
