%TF.GenerationSoftware,KiCad,Pcbnew,10.0.4*%
%TF.CreationDate,2026-07-29T23:15:59+02:00*%
%TF.ProjectId,RPi-DroneRover-HAT,5250692d-4472-46f6-9e65-526f7665722d,rev?*%
%TF.SameCoordinates,Original*%
%TF.FileFunction,Copper,L2,Inr*%
%TF.FilePolarity,Positive*%
%FSLAX46Y46*%
G04 Gerber Fmt 4.6, Leading zero omitted, Abs format (unit mm)*
G04 Created by KiCad (PCBNEW 10.0.4) date 2026-07-29 23:15:59*
%MOMM*%
%LPD*%
G01*
G04 APERTURE LIST*
G04 Aperture macros list*
%AMRoundRect*
0 Rectangle with rounded corners*
0 $1 Rounding radius*
0 $2 $3 $4 $5 $6 $7 $8 $9 X,Y pos of 4 corners*
0 Add a 4 corners polygon primitive as box body*
4,1,4,$2,$3,$4,$5,$6,$7,$8,$9,$2,$3,0*
0 Add four circle primitives for the rounded corners*
1,1,$1+$1,$2,$3*
1,1,$1+$1,$4,$5*
1,1,$1+$1,$6,$7*
1,1,$1+$1,$8,$9*
0 Add four rect primitives between the rounded corners*
20,1,$1+$1,$2,$3,$4,$5,0*
20,1,$1+$1,$4,$5,$6,$7,0*
20,1,$1+$1,$6,$7,$8,$9,0*
20,1,$1+$1,$8,$9,$2,$3,0*%
G04 Aperture macros list end*
%TA.AperFunction,ComponentPad*%
%ADD10R,1.700000X1.700000*%
%TD*%
%TA.AperFunction,ComponentPad*%
%ADD11C,1.700000*%
%TD*%
%TA.AperFunction,ComponentPad*%
%ADD12C,1.600000*%
%TD*%
%TA.AperFunction,ComponentPad*%
%ADD13RoundRect,0.250000X-0.550000X-0.550000X0.550000X-0.550000X0.550000X0.550000X-0.550000X0.550000X0*%
%TD*%
%TA.AperFunction,ComponentPad*%
%ADD14R,1.800000X1.800000*%
%TD*%
%TA.AperFunction,ComponentPad*%
%ADD15C,1.800000*%
%TD*%
%TA.AperFunction,ComponentPad*%
%ADD16RoundRect,0.250000X-1.050000X-1.050000X1.050000X-1.050000X1.050000X1.050000X-1.050000X1.050000X0*%
%TD*%
%TA.AperFunction,ComponentPad*%
%ADD17C,2.600000*%
%TD*%
%TA.AperFunction,ComponentPad*%
%ADD18RoundRect,0.249999X-0.850001X-0.850001X0.850001X-0.850001X0.850001X0.850001X-0.850001X0.850001X0*%
%TD*%
%TA.AperFunction,ComponentPad*%
%ADD19C,2.200000*%
%TD*%
%TA.AperFunction,ViaPad*%
%ADD20C,0.600000*%
%TD*%
G04 APERTURE END LIST*
D10*
%TO.N,BZ_SIG*%
%TO.C,BZ*%
X10000000Y-20000000D03*
D11*
%TO.N,GND*%
X10000000Y-22540000D03*
%TD*%
D10*
%TO.N,PWM1*%
%TO.C,J_M1*%
X15000000Y-4000000D03*
D11*
%TO.N,+5V*%
X15000000Y-6540000D03*
%TO.N,GND*%
X15000000Y-9080000D03*
%TD*%
D12*
%TO.N,+5V*%
%TO.C,C_DEC*%
X40000000Y-40000000D03*
%TO.N,GND*%
X42500000Y-40000000D03*
%TD*%
D10*
%TO.N,+5V*%
%TO.C,J_IMU*%
X30000000Y-14000000D03*
D11*
%TO.N,GND*%
X30000000Y-16540000D03*
%TO.N,SCL*%
X30000000Y-19080000D03*
%TO.N,SDA*%
X30000000Y-21620000D03*
%TO.N,N/C*%
X30000000Y-24160000D03*
X30000000Y-26700000D03*
%TO.N,GND*%
X30000000Y-29240000D03*
%TO.N,IMU_INT*%
X30000000Y-31780000D03*
%TD*%
D10*
%TO.N,PWM3*%
%TO.C,J_M3*%
X39000000Y-4000000D03*
D11*
%TO.N,+5V*%
X39000000Y-6540000D03*
%TO.N,GND*%
X39000000Y-9080000D03*
%TD*%
D10*
%TO.N,+3V3*%
%TO.C,J_PI*%
X8400000Y-49500000D03*
D11*
%TO.N,+5V*%
X8400000Y-52040000D03*
%TO.N,SDA*%
X10940000Y-49500000D03*
%TO.N,+5V*%
X10940000Y-52040000D03*
%TO.N,SCL*%
X13480000Y-49500000D03*
%TO.N,GND*%
X13480000Y-52040000D03*
%TO.N,IMU_INT*%
X16020000Y-49500000D03*
%TO.N,N/C*%
X16020000Y-52040000D03*
%TO.N,GND*%
X18560000Y-49500000D03*
%TO.N,N/C*%
X18560000Y-52040000D03*
X21100000Y-49500000D03*
%TO.N,PWM3*%
X21100000Y-52040000D03*
%TO.N,N/C*%
X23640000Y-49500000D03*
%TO.N,GND*%
X23640000Y-52040000D03*
%TO.N,N/C*%
X26180000Y-49500000D03*
X26180000Y-52040000D03*
X28720000Y-49500000D03*
X28720000Y-52040000D03*
X31260000Y-49500000D03*
%TO.N,GND*%
X31260000Y-52040000D03*
%TO.N,N/C*%
X33800000Y-49500000D03*
X33800000Y-52040000D03*
X36340000Y-49500000D03*
X36340000Y-52040000D03*
%TO.N,GND*%
X38880000Y-49500000D03*
%TO.N,N/C*%
X38880000Y-52040000D03*
X41420000Y-49500000D03*
X41420000Y-52040000D03*
X43960000Y-49500000D03*
%TO.N,GND*%
X43960000Y-52040000D03*
%TO.N,N/C*%
X46500000Y-49500000D03*
%TO.N,PWM1*%
X46500000Y-52040000D03*
%TO.N,PWM2*%
X49040000Y-49500000D03*
%TO.N,GND*%
X49040000Y-52040000D03*
%TO.N,PWM4*%
X51580000Y-49500000D03*
%TO.N,LED_DRV*%
X51580000Y-52040000D03*
%TO.N,BZ_SIG*%
X54120000Y-49500000D03*
%TO.N,N/C*%
X54120000Y-52040000D03*
%TO.N,GND*%
X56660000Y-49500000D03*
%TO.N,N/C*%
X56660000Y-52040000D03*
%TD*%
D10*
%TO.N,PWM4*%
%TO.C,J_M4*%
X51000000Y-4000000D03*
D11*
%TO.N,+5V*%
X51000000Y-6540000D03*
%TO.N,GND*%
X51000000Y-9080000D03*
%TD*%
D12*
%TO.N,LED_DRV*%
%TO.C,R_LED*%
X44000000Y-30000000D03*
%TO.N,LED_A*%
X51620000Y-30000000D03*
%TD*%
D13*
%TO.N,+5V*%
%TO.C,C_BULK*%
X30000000Y-40000000D03*
D12*
%TO.N,GND*%
X33500000Y-40000000D03*
%TD*%
D14*
%TO.N,GND*%
%TO.C,LED1*%
X56000000Y-30000000D03*
D15*
%TO.N,LED_A*%
X58540000Y-30000000D03*
%TD*%
D12*
%TO.N,+3V3*%
%TO.C,R_SCL*%
X44000000Y-25000000D03*
%TO.N,SCL*%
X51620000Y-25000000D03*
%TD*%
%TO.N,+3V3*%
%TO.C,R_SDA*%
X44000000Y-20000000D03*
%TO.N,SDA*%
X51620000Y-20000000D03*
%TD*%
D16*
%TO.N,BEC_IN*%
%TO.C,J_BEC*%
X5000000Y-32000000D03*
D17*
%TO.N,GND*%
X10080000Y-32000000D03*
%TD*%
D10*
%TO.N,PWM2*%
%TO.C,J_M2*%
X27000000Y-4000000D03*
D11*
%TO.N,+5V*%
X27000000Y-6540000D03*
%TO.N,GND*%
X27000000Y-9080000D03*
%TD*%
D18*
%TO.N,+5V*%
%TO.C,D_PWR*%
X14000000Y-40000000D03*
D19*
%TO.N,BEC_IN*%
X24160000Y-40000000D03*
%TD*%
D20*
%TO.N,PWM1*%
X10273000Y-54566000D03*
%TO.N,SDA*%
X14199300Y-48085700D03*
%TO.N,PWM3*%
X6753900Y-51090000D03*
%TO.N,+3V3*%
X31650900Y-39831500D03*
%TD*%
%TA.AperFunction,Conductor*%
%TO.N,GND*%
G36*
X61517183Y-618907D02*
G01*
X61528996Y-628996D01*
X64371004Y-3471004D01*
X64398781Y-3525521D01*
X64400000Y-3541008D01*
X64400000Y-52458992D01*
X64381093Y-52517183D01*
X64371004Y-52528996D01*
X61528996Y-55371004D01*
X61474479Y-55398781D01*
X61458992Y-55400000D01*
X3541008Y-55400000D01*
X3482817Y-55381093D01*
X3471004Y-55371004D01*
X2586943Y-54486943D01*
X9672500Y-54486943D01*
X9672500Y-54645057D01*
X9713423Y-54797784D01*
X9792480Y-54934716D01*
X9904284Y-55046520D01*
X10041216Y-55125577D01*
X10193943Y-55166500D01*
X10193945Y-55166500D01*
X10352055Y-55166500D01*
X10352057Y-55166500D01*
X10504784Y-55125577D01*
X10641716Y-55046520D01*
X10753520Y-54934716D01*
X10832577Y-54797784D01*
X10873500Y-54645057D01*
X10873500Y-54486943D01*
X10832577Y-54334216D01*
X10753520Y-54197284D01*
X10641716Y-54085480D01*
X10504784Y-54006423D01*
X10352057Y-53965500D01*
X10193943Y-53965500D01*
X10041216Y-54006423D01*
X9904284Y-54085480D01*
X9792480Y-54197284D01*
X9713423Y-54334216D01*
X9672500Y-54486943D01*
X2586943Y-54486943D01*
X628996Y-52528996D01*
X625369Y-52521878D01*
X618907Y-52517183D01*
X611743Y-52495134D01*
X601219Y-52474479D01*
X600000Y-52458992D01*
X600000Y-52372066D01*
X1874500Y-52372066D01*
X1874500Y-52627933D01*
X1914525Y-52880636D01*
X1993589Y-53123973D01*
X2029585Y-53194620D01*
X2109748Y-53351947D01*
X2260138Y-53558942D01*
X2441058Y-53739862D01*
X2648053Y-53890252D01*
X2876025Y-54006410D01*
X3119361Y-54085474D01*
X3220444Y-54101484D01*
X3372067Y-54125500D01*
X3372070Y-54125500D01*
X3627933Y-54125500D01*
X3754284Y-54105487D01*
X3880639Y-54085474D01*
X4123975Y-54006410D01*
X4351947Y-53890252D01*
X4558942Y-53739862D01*
X4739862Y-53558942D01*
X4890252Y-53351947D01*
X5006410Y-53123975D01*
X5085474Y-52880639D01*
X5125500Y-52627930D01*
X5125500Y-52372070D01*
X5125500Y-52372066D01*
X5087246Y-52130549D01*
X5085474Y-52119361D01*
X5006410Y-51876025D01*
X4890252Y-51648053D01*
X4739862Y-51441058D01*
X4558942Y-51260138D01*
X4351947Y-51109748D01*
X4351946Y-51109747D01*
X4351944Y-51109746D01*
X4318418Y-51092664D01*
X4158032Y-51010943D01*
X6153400Y-51010943D01*
X6153400Y-51169057D01*
X6194323Y-51321784D01*
X6273380Y-51458716D01*
X6385184Y-51570520D01*
X6522116Y-51649577D01*
X6674843Y-51690500D01*
X6674845Y-51690500D01*
X6832955Y-51690500D01*
X6832957Y-51690500D01*
X6985684Y-51649577D01*
X7122616Y-51570520D01*
X7157243Y-51535892D01*
X7211757Y-51508116D01*
X7272189Y-51517687D01*
X7315454Y-51560951D01*
X7325026Y-51621383D01*
X7321400Y-51636489D01*
X7277828Y-51770593D01*
X7249500Y-51949450D01*
X7249500Y-52130549D01*
X7277828Y-52309406D01*
X7333788Y-52481637D01*
X7372806Y-52558215D01*
X7416004Y-52642994D01*
X7522447Y-52789501D01*
X7650499Y-52917553D01*
X7797006Y-53023996D01*
X7958361Y-53106211D01*
X8130591Y-53162171D01*
X8202136Y-53173502D01*
X8309451Y-53190500D01*
X8309454Y-53190500D01*
X8490549Y-53190500D01*
X8579977Y-53176335D01*
X8669409Y-53162171D01*
X8841639Y-53106211D01*
X9002994Y-53023996D01*
X9149501Y-52917553D01*
X9277553Y-52789501D01*
X9383996Y-52642994D01*
X9466211Y-52481639D01*
X9522171Y-52309409D01*
X9550500Y-52130546D01*
X9550500Y-51949454D01*
X9550500Y-51949450D01*
X9789500Y-51949450D01*
X9789500Y-52130549D01*
X9817828Y-52309406D01*
X9873788Y-52481637D01*
X9912806Y-52558215D01*
X9956004Y-52642994D01*
X10062447Y-52789501D01*
X10190499Y-52917553D01*
X10337006Y-53023996D01*
X10498361Y-53106211D01*
X10670591Y-53162171D01*
X10742136Y-53173502D01*
X10849451Y-53190500D01*
X10849454Y-53190500D01*
X11030549Y-53190500D01*
X11119977Y-53176335D01*
X11209409Y-53162171D01*
X11381639Y-53106211D01*
X11381642Y-53106209D01*
X11381646Y-53106208D01*
X11485608Y-53053235D01*
X11532527Y-53029329D01*
X11532530Y-53029328D01*
X11536166Y-53027474D01*
X11542994Y-53023996D01*
X11689501Y-52917553D01*
X11817553Y-52789501D01*
X11923996Y-52642994D01*
X12006211Y-52481639D01*
X12006213Y-52481633D01*
X12010962Y-52467018D01*
X12046924Y-52417517D01*
X12105115Y-52398608D01*
X12163306Y-52417514D01*
X12199271Y-52467013D01*
X12199272Y-52467015D01*
X12228904Y-52558215D01*
X12325376Y-52747553D01*
X12325380Y-52747559D01*
X12364728Y-52801716D01*
X12364729Y-52801716D01*
X12997037Y-52169407D01*
X13014075Y-52232993D01*
X13079901Y-52347007D01*
X13172993Y-52440099D01*
X13287007Y-52505925D01*
X13350589Y-52522962D01*
X12718282Y-53155269D01*
X12718282Y-53155270D01*
X12772440Y-53194619D01*
X12772446Y-53194623D01*
X12961784Y-53291095D01*
X13163878Y-53356759D01*
X13373750Y-53390000D01*
X13586250Y-53390000D01*
X13796121Y-53356759D01*
X13998215Y-53291095D01*
X14187556Y-53194620D01*
X14241716Y-53155270D01*
X13609408Y-52522962D01*
X13672993Y-52505925D01*
X13787007Y-52440099D01*
X13880099Y-52347007D01*
X13945925Y-52232993D01*
X13962962Y-52169408D01*
X14595270Y-52801716D01*
X14634620Y-52747556D01*
X14731096Y-52558213D01*
X14760727Y-52467016D01*
X14796690Y-52417516D01*
X14854881Y-52398608D01*
X14913072Y-52417515D01*
X14949036Y-52467013D01*
X14953788Y-52481637D01*
X14992806Y-52558215D01*
X15036004Y-52642994D01*
X15142447Y-52789501D01*
X15270499Y-52917553D01*
X15417006Y-53023996D01*
X15578361Y-53106211D01*
X15750591Y-53162171D01*
X15822136Y-53173502D01*
X15929451Y-53190500D01*
X15929454Y-53190500D01*
X16110549Y-53190500D01*
X16199977Y-53176335D01*
X16289409Y-53162171D01*
X16461639Y-53106211D01*
X16622994Y-53023996D01*
X16769501Y-52917553D01*
X16897553Y-52789501D01*
X17003996Y-52642994D01*
X17086211Y-52481639D01*
X17142171Y-52309409D01*
X17170500Y-52130546D01*
X17170500Y-51949454D01*
X17170500Y-51949450D01*
X17142171Y-51770593D01*
X17142171Y-51770591D01*
X17086211Y-51598361D01*
X17003996Y-51437006D01*
X16897553Y-51290499D01*
X16769501Y-51162447D01*
X16622994Y-51056004D01*
X16622993Y-51056003D01*
X16622991Y-51056002D01*
X16461637Y-50973788D01*
X16289406Y-50917828D01*
X16110549Y-50889500D01*
X16110546Y-50889500D01*
X15929454Y-50889500D01*
X15929451Y-50889500D01*
X15750593Y-50917828D01*
X15578362Y-50973788D01*
X15417008Y-51056002D01*
X15343752Y-51109225D01*
X15270499Y-51162447D01*
X15142447Y-51290499D01*
X15112500Y-51331718D01*
X15036002Y-51437008D01*
X14953787Y-51598364D01*
X14953786Y-51598366D01*
X14949035Y-51612988D01*
X14913069Y-51662486D01*
X14854878Y-51681391D01*
X14796688Y-51662481D01*
X14760727Y-51612983D01*
X14731096Y-51521786D01*
X14634623Y-51332446D01*
X14634619Y-51332440D01*
X14595270Y-51278282D01*
X14595269Y-51278282D01*
X13962962Y-51910589D01*
X13945925Y-51847007D01*
X13880099Y-51732993D01*
X13787007Y-51639901D01*
X13672993Y-51574075D01*
X13609407Y-51557037D01*
X14241716Y-50924729D01*
X14241716Y-50924728D01*
X14187559Y-50885380D01*
X14187553Y-50885376D01*
X13998215Y-50788904D01*
X13907015Y-50759272D01*
X13857515Y-50723308D01*
X13838608Y-50665117D01*
X13857515Y-50606926D01*
X13907013Y-50570962D01*
X13907017Y-50570962D01*
X13907018Y-50570962D01*
X13921633Y-50566213D01*
X13921633Y-50566212D01*
X13921639Y-50566211D01*
X14082994Y-50483996D01*
X14229501Y-50377553D01*
X14357553Y-50249501D01*
X14463996Y-50102994D01*
X14546211Y-49941639D01*
X14602171Y-49769409D01*
X14630500Y-49590546D01*
X14630500Y-49409454D01*
X14630500Y-49409450D01*
X14869500Y-49409450D01*
X14869500Y-49590549D01*
X14897828Y-49769406D01*
X14953788Y-49941637D01*
X14992806Y-50018215D01*
X15036004Y-50102994D01*
X15142447Y-50249501D01*
X15270499Y-50377553D01*
X15417006Y-50483996D01*
X15578361Y-50566211D01*
X15750591Y-50622171D01*
X15822136Y-50633502D01*
X15929451Y-50650500D01*
X15929454Y-50650500D01*
X16110549Y-50650500D01*
X16199977Y-50636335D01*
X16289409Y-50622171D01*
X16461639Y-50566211D01*
X16622994Y-50483996D01*
X16769501Y-50377553D01*
X16897553Y-50249501D01*
X17003996Y-50102994D01*
X17086211Y-49941639D01*
X17090962Y-49927018D01*
X17126924Y-49877517D01*
X17185115Y-49858608D01*
X17243306Y-49877514D01*
X17279271Y-49927013D01*
X17279272Y-49927015D01*
X17308904Y-50018215D01*
X17405376Y-50207553D01*
X17405380Y-50207559D01*
X17444728Y-50261716D01*
X17444729Y-50261716D01*
X18077037Y-49629407D01*
X18094075Y-49692993D01*
X18159901Y-49807007D01*
X18252993Y-49900099D01*
X18367007Y-49965925D01*
X18430589Y-49982962D01*
X17798282Y-50615269D01*
X17798282Y-50615270D01*
X17852440Y-50654619D01*
X17852446Y-50654623D01*
X18041786Y-50751096D01*
X18132983Y-50780727D01*
X18182483Y-50816691D01*
X18201391Y-50874881D01*
X18182484Y-50933072D01*
X18132988Y-50969035D01*
X18118366Y-50973786D01*
X18118364Y-50973787D01*
X17957008Y-51056002D01*
X17883752Y-51109225D01*
X17810499Y-51162447D01*
X17682447Y-51290499D01*
X17652500Y-51331718D01*
X17576002Y-51437008D01*
X17493788Y-51598362D01*
X17437828Y-51770593D01*
X17409500Y-51949450D01*
X17409500Y-52130549D01*
X17437828Y-52309406D01*
X17493788Y-52481637D01*
X17532806Y-52558215D01*
X17576004Y-52642994D01*
X17682447Y-52789501D01*
X17810499Y-52917553D01*
X17957006Y-53023996D01*
X18118361Y-53106211D01*
X18290591Y-53162171D01*
X18362136Y-53173502D01*
X18469451Y-53190500D01*
X18469454Y-53190500D01*
X18650549Y-53190500D01*
X18739977Y-53176335D01*
X18829409Y-53162171D01*
X19001639Y-53106211D01*
X19162994Y-53023996D01*
X19309501Y-52917553D01*
X19437553Y-52789501D01*
X19543996Y-52642994D01*
X19626211Y-52481639D01*
X19682171Y-52309409D01*
X19710500Y-52130546D01*
X19710500Y-51949454D01*
X19710500Y-51949450D01*
X19949500Y-51949450D01*
X19949500Y-52130549D01*
X19977828Y-52309406D01*
X20033788Y-52481637D01*
X20072806Y-52558215D01*
X20116004Y-52642994D01*
X20222447Y-52789501D01*
X20350499Y-52917553D01*
X20497006Y-53023996D01*
X20658361Y-53106211D01*
X20830591Y-53162171D01*
X20902136Y-53173502D01*
X21009451Y-53190500D01*
X21009454Y-53190500D01*
X21190549Y-53190500D01*
X21279977Y-53176335D01*
X21369409Y-53162171D01*
X21541639Y-53106211D01*
X21541642Y-53106209D01*
X21541646Y-53106208D01*
X21645608Y-53053235D01*
X21692527Y-53029329D01*
X21692530Y-53029328D01*
X21696166Y-53027474D01*
X21702994Y-53023996D01*
X21849501Y-52917553D01*
X21977553Y-52789501D01*
X22083996Y-52642994D01*
X22166211Y-52481639D01*
X22166213Y-52481633D01*
X22170962Y-52467018D01*
X22206924Y-52417517D01*
X22265115Y-52398608D01*
X22323306Y-52417514D01*
X22359271Y-52467013D01*
X22359272Y-52467015D01*
X22388904Y-52558215D01*
X22485376Y-52747553D01*
X22485380Y-52747559D01*
X22524728Y-52801716D01*
X22524729Y-52801716D01*
X23157037Y-52169407D01*
X23174075Y-52232993D01*
X23239901Y-52347007D01*
X23332993Y-52440099D01*
X23447007Y-52505925D01*
X23510589Y-52522962D01*
X22878282Y-53155269D01*
X22878282Y-53155270D01*
X22932440Y-53194619D01*
X22932446Y-53194623D01*
X23121784Y-53291095D01*
X23323878Y-53356759D01*
X23533750Y-53390000D01*
X23746250Y-53390000D01*
X23956121Y-53356759D01*
X24158215Y-53291095D01*
X24347556Y-53194620D01*
X24401716Y-53155270D01*
X23769408Y-52522962D01*
X23832993Y-52505925D01*
X23947007Y-52440099D01*
X24040099Y-52347007D01*
X24105925Y-52232993D01*
X24122962Y-52169408D01*
X24755270Y-52801716D01*
X24794620Y-52747556D01*
X24891096Y-52558213D01*
X24920727Y-52467016D01*
X24956690Y-52417516D01*
X25014881Y-52398608D01*
X25073072Y-52417515D01*
X25109036Y-52467013D01*
X25113788Y-52481637D01*
X25152806Y-52558215D01*
X25196004Y-52642994D01*
X25302447Y-52789501D01*
X25430499Y-52917553D01*
X25577006Y-53023996D01*
X25738361Y-53106211D01*
X25910591Y-53162171D01*
X25982136Y-53173502D01*
X26089451Y-53190500D01*
X26089454Y-53190500D01*
X26270549Y-53190500D01*
X26359977Y-53176335D01*
X26449409Y-53162171D01*
X26621639Y-53106211D01*
X26782994Y-53023996D01*
X26929501Y-52917553D01*
X27057553Y-52789501D01*
X27163996Y-52642994D01*
X27246211Y-52481639D01*
X27302171Y-52309409D01*
X27330500Y-52130546D01*
X27330500Y-51949454D01*
X27330500Y-51949450D01*
X27569500Y-51949450D01*
X27569500Y-52130549D01*
X27597828Y-52309406D01*
X27653788Y-52481637D01*
X27692806Y-52558215D01*
X27736004Y-52642994D01*
X27842447Y-52789501D01*
X27970499Y-52917553D01*
X28117006Y-53023996D01*
X28278361Y-53106211D01*
X28450591Y-53162171D01*
X28522136Y-53173502D01*
X28629451Y-53190500D01*
X28629454Y-53190500D01*
X28810549Y-53190500D01*
X28899977Y-53176335D01*
X28989409Y-53162171D01*
X29161639Y-53106211D01*
X29161642Y-53106209D01*
X29161646Y-53106208D01*
X29265608Y-53053235D01*
X29312527Y-53029329D01*
X29312530Y-53029328D01*
X29316166Y-53027474D01*
X29322994Y-53023996D01*
X29469501Y-52917553D01*
X29597553Y-52789501D01*
X29703996Y-52642994D01*
X29786211Y-52481639D01*
X29786213Y-52481633D01*
X29790962Y-52467018D01*
X29826924Y-52417517D01*
X29885115Y-52398608D01*
X29943306Y-52417514D01*
X29979271Y-52467013D01*
X29979272Y-52467015D01*
X30008904Y-52558215D01*
X30105376Y-52747553D01*
X30105380Y-52747559D01*
X30144728Y-52801716D01*
X30144729Y-52801716D01*
X30777037Y-52169407D01*
X30794075Y-52232993D01*
X30859901Y-52347007D01*
X30952993Y-52440099D01*
X31067007Y-52505925D01*
X31130589Y-52522962D01*
X30498282Y-53155269D01*
X30498282Y-53155270D01*
X30552440Y-53194619D01*
X30552446Y-53194623D01*
X30741784Y-53291095D01*
X30943878Y-53356759D01*
X31153750Y-53390000D01*
X31366250Y-53390000D01*
X31576121Y-53356759D01*
X31778215Y-53291095D01*
X31967556Y-53194620D01*
X32021716Y-53155270D01*
X31389408Y-52522962D01*
X31452993Y-52505925D01*
X31567007Y-52440099D01*
X31660099Y-52347007D01*
X31725925Y-52232993D01*
X31742962Y-52169408D01*
X32375270Y-52801716D01*
X32414620Y-52747556D01*
X32511096Y-52558213D01*
X32540727Y-52467016D01*
X32576690Y-52417516D01*
X32634881Y-52398608D01*
X32693072Y-52417515D01*
X32729036Y-52467013D01*
X32733788Y-52481637D01*
X32772806Y-52558215D01*
X32816004Y-52642994D01*
X32922447Y-52789501D01*
X33050499Y-52917553D01*
X33197006Y-53023996D01*
X33358361Y-53106211D01*
X33530591Y-53162171D01*
X33602136Y-53173502D01*
X33709451Y-53190500D01*
X33709454Y-53190500D01*
X33890549Y-53190500D01*
X33979977Y-53176335D01*
X34069409Y-53162171D01*
X34241639Y-53106211D01*
X34402994Y-53023996D01*
X34549501Y-52917553D01*
X34677553Y-52789501D01*
X34783996Y-52642994D01*
X34866211Y-52481639D01*
X34922171Y-52309409D01*
X34950500Y-52130546D01*
X34950500Y-51949454D01*
X34950500Y-51949450D01*
X35189500Y-51949450D01*
X35189500Y-52130549D01*
X35217828Y-52309406D01*
X35273788Y-52481637D01*
X35312806Y-52558215D01*
X35356004Y-52642994D01*
X35462447Y-52789501D01*
X35590499Y-52917553D01*
X35737006Y-53023996D01*
X35898361Y-53106211D01*
X36070591Y-53162171D01*
X36142136Y-53173502D01*
X36249451Y-53190500D01*
X36249454Y-53190500D01*
X36430549Y-53190500D01*
X36519977Y-53176335D01*
X36609409Y-53162171D01*
X36781639Y-53106211D01*
X36942994Y-53023996D01*
X37089501Y-52917553D01*
X37217553Y-52789501D01*
X37323996Y-52642994D01*
X37406211Y-52481639D01*
X37462171Y-52309409D01*
X37490500Y-52130546D01*
X37490500Y-51949454D01*
X37490500Y-51949450D01*
X37462171Y-51770593D01*
X37462171Y-51770591D01*
X37406211Y-51598361D01*
X37323996Y-51437006D01*
X37217553Y-51290499D01*
X37089501Y-51162447D01*
X36942994Y-51056004D01*
X36942993Y-51056003D01*
X36942991Y-51056002D01*
X36781637Y-50973788D01*
X36609406Y-50917828D01*
X36430549Y-50889500D01*
X36430546Y-50889500D01*
X36249454Y-50889500D01*
X36249451Y-50889500D01*
X36070593Y-50917828D01*
X35898362Y-50973788D01*
X35737008Y-51056002D01*
X35663752Y-51109225D01*
X35590499Y-51162447D01*
X35462447Y-51290499D01*
X35432500Y-51331718D01*
X35356002Y-51437008D01*
X35273788Y-51598362D01*
X35217828Y-51770593D01*
X35189500Y-51949450D01*
X34950500Y-51949450D01*
X34922171Y-51770593D01*
X34922171Y-51770591D01*
X34866211Y-51598361D01*
X34783996Y-51437006D01*
X34677553Y-51290499D01*
X34549501Y-51162447D01*
X34402994Y-51056004D01*
X34402993Y-51056003D01*
X34402991Y-51056002D01*
X34241637Y-50973788D01*
X34069406Y-50917828D01*
X33890549Y-50889500D01*
X33890546Y-50889500D01*
X33709454Y-50889500D01*
X33709451Y-50889500D01*
X33530593Y-50917828D01*
X33358362Y-50973788D01*
X33197008Y-51056002D01*
X33123752Y-51109225D01*
X33050499Y-51162447D01*
X32922447Y-51290499D01*
X32892500Y-51331718D01*
X32816002Y-51437008D01*
X32733787Y-51598364D01*
X32733786Y-51598366D01*
X32729035Y-51612988D01*
X32693069Y-51662486D01*
X32634878Y-51681391D01*
X32576688Y-51662481D01*
X32540727Y-51612983D01*
X32511096Y-51521786D01*
X32414623Y-51332446D01*
X32414619Y-51332440D01*
X32375270Y-51278282D01*
X32375269Y-51278282D01*
X31742962Y-51910589D01*
X31725925Y-51847007D01*
X31660099Y-51732993D01*
X31567007Y-51639901D01*
X31452993Y-51574075D01*
X31389407Y-51557037D01*
X32021716Y-50924729D01*
X32021716Y-50924728D01*
X31967559Y-50885380D01*
X31967553Y-50885376D01*
X31778215Y-50788904D01*
X31687015Y-50759272D01*
X31637515Y-50723308D01*
X31618608Y-50665117D01*
X31637515Y-50606926D01*
X31687013Y-50570962D01*
X31687017Y-50570962D01*
X31687018Y-50570962D01*
X31701633Y-50566213D01*
X31701633Y-50566212D01*
X31701639Y-50566211D01*
X31862994Y-50483996D01*
X32009501Y-50377553D01*
X32137553Y-50249501D01*
X32243996Y-50102994D01*
X32326211Y-49941639D01*
X32382171Y-49769409D01*
X32410500Y-49590546D01*
X32410500Y-49409454D01*
X32410500Y-49409450D01*
X32649500Y-49409450D01*
X32649500Y-49590549D01*
X32677828Y-49769406D01*
X32733788Y-49941637D01*
X32772806Y-50018215D01*
X32816004Y-50102994D01*
X32922447Y-50249501D01*
X33050499Y-50377553D01*
X33197006Y-50483996D01*
X33358361Y-50566211D01*
X33530591Y-50622171D01*
X33602136Y-50633502D01*
X33709451Y-50650500D01*
X33709454Y-50650500D01*
X33890549Y-50650500D01*
X33979977Y-50636335D01*
X34069409Y-50622171D01*
X34241639Y-50566211D01*
X34402994Y-50483996D01*
X34549501Y-50377553D01*
X34677553Y-50249501D01*
X34783996Y-50102994D01*
X34866211Y-49941639D01*
X34922171Y-49769409D01*
X34950500Y-49590546D01*
X34950500Y-49409454D01*
X34950500Y-49409450D01*
X35189500Y-49409450D01*
X35189500Y-49590549D01*
X35217828Y-49769406D01*
X35273788Y-49941637D01*
X35312806Y-50018215D01*
X35356004Y-50102994D01*
X35462447Y-50249501D01*
X35590499Y-50377553D01*
X35737006Y-50483996D01*
X35898361Y-50566211D01*
X36070591Y-50622171D01*
X36142136Y-50633502D01*
X36249451Y-50650500D01*
X36249454Y-50650500D01*
X36430549Y-50650500D01*
X36519977Y-50636335D01*
X36609409Y-50622171D01*
X36781639Y-50566211D01*
X36942994Y-50483996D01*
X37089501Y-50377553D01*
X37217553Y-50249501D01*
X37323996Y-50102994D01*
X37406211Y-49941639D01*
X37410962Y-49927018D01*
X37446924Y-49877517D01*
X37505115Y-49858608D01*
X37563306Y-49877514D01*
X37599271Y-49927013D01*
X37599272Y-49927015D01*
X37628904Y-50018215D01*
X37725376Y-50207553D01*
X37725380Y-50207559D01*
X37764728Y-50261716D01*
X37764729Y-50261716D01*
X38397037Y-49629407D01*
X38414075Y-49692993D01*
X38479901Y-49807007D01*
X38572993Y-49900099D01*
X38687007Y-49965925D01*
X38750589Y-49982962D01*
X38118282Y-50615269D01*
X38118282Y-50615270D01*
X38172440Y-50654619D01*
X38172446Y-50654623D01*
X38361786Y-50751096D01*
X38452983Y-50780727D01*
X38502483Y-50816691D01*
X38521391Y-50874881D01*
X38502484Y-50933072D01*
X38452988Y-50969035D01*
X38438366Y-50973786D01*
X38438364Y-50973787D01*
X38277008Y-51056002D01*
X38203752Y-51109225D01*
X38130499Y-51162447D01*
X38002447Y-51290499D01*
X37972500Y-51331718D01*
X37896002Y-51437008D01*
X37813788Y-51598362D01*
X37757828Y-51770593D01*
X37729500Y-51949450D01*
X37729500Y-52130549D01*
X37757828Y-52309406D01*
X37813788Y-52481637D01*
X37852806Y-52558215D01*
X37896004Y-52642994D01*
X38002447Y-52789501D01*
X38130499Y-52917553D01*
X38277006Y-53023996D01*
X38438361Y-53106211D01*
X38610591Y-53162171D01*
X38682136Y-53173502D01*
X38789451Y-53190500D01*
X38789454Y-53190500D01*
X38970549Y-53190500D01*
X39059977Y-53176335D01*
X39149409Y-53162171D01*
X39321639Y-53106211D01*
X39482994Y-53023996D01*
X39629501Y-52917553D01*
X39757553Y-52789501D01*
X39863996Y-52642994D01*
X39946211Y-52481639D01*
X40002171Y-52309409D01*
X40030500Y-52130546D01*
X40030500Y-51949454D01*
X40030500Y-51949450D01*
X40269500Y-51949450D01*
X40269500Y-52130549D01*
X40297828Y-52309406D01*
X40353788Y-52481637D01*
X40392806Y-52558215D01*
X40436004Y-52642994D01*
X40542447Y-52789501D01*
X40670499Y-52917553D01*
X40817006Y-53023996D01*
X40978361Y-53106211D01*
X41150591Y-53162171D01*
X41222136Y-53173502D01*
X41329451Y-53190500D01*
X41329454Y-53190500D01*
X41510549Y-53190500D01*
X41599977Y-53176335D01*
X41689409Y-53162171D01*
X41861639Y-53106211D01*
X41861642Y-53106209D01*
X41861646Y-53106208D01*
X41965608Y-53053235D01*
X42012527Y-53029329D01*
X42012530Y-53029328D01*
X42016166Y-53027474D01*
X42022994Y-53023996D01*
X42169501Y-52917553D01*
X42297553Y-52789501D01*
X42403996Y-52642994D01*
X42486211Y-52481639D01*
X42486213Y-52481633D01*
X42490962Y-52467018D01*
X42526924Y-52417517D01*
X42585115Y-52398608D01*
X42643306Y-52417514D01*
X42679271Y-52467013D01*
X42679272Y-52467015D01*
X42708904Y-52558215D01*
X42805376Y-52747553D01*
X42805380Y-52747559D01*
X42844728Y-52801716D01*
X42844729Y-52801716D01*
X43477037Y-52169407D01*
X43494075Y-52232993D01*
X43559901Y-52347007D01*
X43652993Y-52440099D01*
X43767007Y-52505925D01*
X43830589Y-52522962D01*
X43198282Y-53155269D01*
X43198282Y-53155270D01*
X43252440Y-53194619D01*
X43252446Y-53194623D01*
X43441784Y-53291095D01*
X43643878Y-53356759D01*
X43853750Y-53390000D01*
X44066250Y-53390000D01*
X44276121Y-53356759D01*
X44478215Y-53291095D01*
X44667556Y-53194620D01*
X44721716Y-53155270D01*
X44089408Y-52522962D01*
X44152993Y-52505925D01*
X44267007Y-52440099D01*
X44360099Y-52347007D01*
X44425925Y-52232993D01*
X44442962Y-52169408D01*
X45075270Y-52801716D01*
X45114620Y-52747556D01*
X45211096Y-52558213D01*
X45240727Y-52467016D01*
X45276690Y-52417516D01*
X45334881Y-52398608D01*
X45393072Y-52417515D01*
X45429036Y-52467013D01*
X45433788Y-52481637D01*
X45472806Y-52558215D01*
X45516004Y-52642994D01*
X45622447Y-52789501D01*
X45750499Y-52917553D01*
X45897006Y-53023996D01*
X46058361Y-53106211D01*
X46230591Y-53162171D01*
X46302136Y-53173502D01*
X46409451Y-53190500D01*
X46409454Y-53190500D01*
X46590549Y-53190500D01*
X46679977Y-53176335D01*
X46769409Y-53162171D01*
X46941639Y-53106211D01*
X46941642Y-53106209D01*
X46941646Y-53106208D01*
X47045608Y-53053235D01*
X47092527Y-53029329D01*
X47092530Y-53029328D01*
X47096166Y-53027474D01*
X47102994Y-53023996D01*
X47249501Y-52917553D01*
X47377553Y-52789501D01*
X47483996Y-52642994D01*
X47566211Y-52481639D01*
X47566213Y-52481633D01*
X47570962Y-52467018D01*
X47606924Y-52417517D01*
X47665115Y-52398608D01*
X47723306Y-52417514D01*
X47759271Y-52467013D01*
X47759272Y-52467015D01*
X47788904Y-52558215D01*
X47885376Y-52747553D01*
X47885380Y-52747559D01*
X47924728Y-52801716D01*
X47924729Y-52801716D01*
X48557037Y-52169407D01*
X48574075Y-52232993D01*
X48639901Y-52347007D01*
X48732993Y-52440099D01*
X48847007Y-52505925D01*
X48910589Y-52522962D01*
X48278282Y-53155269D01*
X48278282Y-53155270D01*
X48332440Y-53194619D01*
X48332446Y-53194623D01*
X48521784Y-53291095D01*
X48723878Y-53356759D01*
X48933750Y-53390000D01*
X49146250Y-53390000D01*
X49356121Y-53356759D01*
X49558215Y-53291095D01*
X49747556Y-53194620D01*
X49801716Y-53155270D01*
X49169408Y-52522962D01*
X49232993Y-52505925D01*
X49347007Y-52440099D01*
X49440099Y-52347007D01*
X49505925Y-52232993D01*
X49522962Y-52169408D01*
X50155270Y-52801716D01*
X50194620Y-52747556D01*
X50291096Y-52558213D01*
X50320727Y-52467016D01*
X50356690Y-52417516D01*
X50414881Y-52398608D01*
X50473072Y-52417515D01*
X50509036Y-52467013D01*
X50513788Y-52481637D01*
X50552806Y-52558215D01*
X50596004Y-52642994D01*
X50702447Y-52789501D01*
X50830499Y-52917553D01*
X50977006Y-53023996D01*
X51138361Y-53106211D01*
X51310591Y-53162171D01*
X51382136Y-53173502D01*
X51489451Y-53190500D01*
X51489454Y-53190500D01*
X51670549Y-53190500D01*
X51759977Y-53176335D01*
X51849409Y-53162171D01*
X52021639Y-53106211D01*
X52182994Y-53023996D01*
X52329501Y-52917553D01*
X52457553Y-52789501D01*
X52563996Y-52642994D01*
X52646211Y-52481639D01*
X52702171Y-52309409D01*
X52730500Y-52130546D01*
X52730500Y-51949454D01*
X52730500Y-51949450D01*
X52969500Y-51949450D01*
X52969500Y-52130549D01*
X52997828Y-52309406D01*
X53053788Y-52481637D01*
X53092806Y-52558215D01*
X53136004Y-52642994D01*
X53242447Y-52789501D01*
X53370499Y-52917553D01*
X53517006Y-53023996D01*
X53678361Y-53106211D01*
X53850591Y-53162171D01*
X53922136Y-53173502D01*
X54029451Y-53190500D01*
X54029454Y-53190500D01*
X54210549Y-53190500D01*
X54299977Y-53176335D01*
X54389409Y-53162171D01*
X54561639Y-53106211D01*
X54722994Y-53023996D01*
X54869501Y-52917553D01*
X54997553Y-52789501D01*
X55103996Y-52642994D01*
X55186211Y-52481639D01*
X55242171Y-52309409D01*
X55270500Y-52130546D01*
X55270500Y-51949454D01*
X55270500Y-51949450D01*
X55242171Y-51770593D01*
X55242171Y-51770591D01*
X55186211Y-51598361D01*
X55103996Y-51437006D01*
X54997553Y-51290499D01*
X54869501Y-51162447D01*
X54722994Y-51056004D01*
X54722993Y-51056003D01*
X54722991Y-51056002D01*
X54561637Y-50973788D01*
X54389406Y-50917828D01*
X54210549Y-50889500D01*
X54210546Y-50889500D01*
X54029454Y-50889500D01*
X54029451Y-50889500D01*
X53850593Y-50917828D01*
X53678362Y-50973788D01*
X53517008Y-51056002D01*
X53443752Y-51109225D01*
X53370499Y-51162447D01*
X53242447Y-51290499D01*
X53212500Y-51331718D01*
X53136002Y-51437008D01*
X53053788Y-51598362D01*
X52997828Y-51770593D01*
X52969500Y-51949450D01*
X52730500Y-51949450D01*
X52702171Y-51770593D01*
X52702171Y-51770591D01*
X52646211Y-51598361D01*
X52563996Y-51437006D01*
X52457553Y-51290499D01*
X52329501Y-51162447D01*
X52182994Y-51056004D01*
X52182993Y-51056003D01*
X52182991Y-51056002D01*
X52021637Y-50973788D01*
X51849406Y-50917828D01*
X51670549Y-50889500D01*
X51670546Y-50889500D01*
X51489454Y-50889500D01*
X51489451Y-50889500D01*
X51310593Y-50917828D01*
X51138362Y-50973788D01*
X50977008Y-51056002D01*
X50903752Y-51109225D01*
X50830499Y-51162447D01*
X50702447Y-51290499D01*
X50672500Y-51331718D01*
X50596002Y-51437008D01*
X50513787Y-51598364D01*
X50513786Y-51598366D01*
X50509035Y-51612988D01*
X50473069Y-51662486D01*
X50414878Y-51681391D01*
X50356688Y-51662481D01*
X50320727Y-51612983D01*
X50291096Y-51521786D01*
X50194623Y-51332446D01*
X50194619Y-51332440D01*
X50155270Y-51278282D01*
X50155269Y-51278282D01*
X49522962Y-51910589D01*
X49505925Y-51847007D01*
X49440099Y-51732993D01*
X49347007Y-51639901D01*
X49232993Y-51574075D01*
X49169407Y-51557037D01*
X49801716Y-50924729D01*
X49801716Y-50924728D01*
X49747559Y-50885380D01*
X49747553Y-50885376D01*
X49558215Y-50788904D01*
X49467015Y-50759272D01*
X49417515Y-50723308D01*
X49398608Y-50665117D01*
X49417515Y-50606926D01*
X49467013Y-50570962D01*
X49467017Y-50570962D01*
X49467018Y-50570962D01*
X49481633Y-50566213D01*
X49481633Y-50566212D01*
X49481639Y-50566211D01*
X49642994Y-50483996D01*
X49789501Y-50377553D01*
X49917553Y-50249501D01*
X50023996Y-50102994D01*
X50106211Y-49941639D01*
X50162171Y-49769409D01*
X50190500Y-49590546D01*
X50190500Y-49409454D01*
X50190500Y-49409450D01*
X50429500Y-49409450D01*
X50429500Y-49590549D01*
X50457828Y-49769406D01*
X50513788Y-49941637D01*
X50552806Y-50018215D01*
X50596004Y-50102994D01*
X50702447Y-50249501D01*
X50830499Y-50377553D01*
X50977006Y-50483996D01*
X51138361Y-50566211D01*
X51310591Y-50622171D01*
X51382136Y-50633502D01*
X51489451Y-50650500D01*
X51489454Y-50650500D01*
X51670549Y-50650500D01*
X51759977Y-50636335D01*
X51849409Y-50622171D01*
X52021639Y-50566211D01*
X52182994Y-50483996D01*
X52329501Y-50377553D01*
X52457553Y-50249501D01*
X52563996Y-50102994D01*
X52646211Y-49941639D01*
X52702171Y-49769409D01*
X52730500Y-49590546D01*
X52730500Y-49409454D01*
X52730500Y-49409450D01*
X52969500Y-49409450D01*
X52969500Y-49590549D01*
X52997828Y-49769406D01*
X53053788Y-49941637D01*
X53092806Y-50018215D01*
X53136004Y-50102994D01*
X53242447Y-50249501D01*
X53370499Y-50377553D01*
X53517006Y-50483996D01*
X53678361Y-50566211D01*
X53850591Y-50622171D01*
X53922136Y-50633502D01*
X54029451Y-50650500D01*
X54029454Y-50650500D01*
X54210549Y-50650500D01*
X54299977Y-50636335D01*
X54389409Y-50622171D01*
X54561639Y-50566211D01*
X54722994Y-50483996D01*
X54869501Y-50377553D01*
X54997553Y-50249501D01*
X55103996Y-50102994D01*
X55186211Y-49941639D01*
X55190962Y-49927018D01*
X55226924Y-49877517D01*
X55285115Y-49858608D01*
X55343306Y-49877514D01*
X55379271Y-49927013D01*
X55379272Y-49927015D01*
X55408904Y-50018215D01*
X55505376Y-50207553D01*
X55505380Y-50207559D01*
X55544728Y-50261716D01*
X55544729Y-50261716D01*
X56177037Y-49629407D01*
X56194075Y-49692993D01*
X56259901Y-49807007D01*
X56352993Y-49900099D01*
X56467007Y-49965925D01*
X56530589Y-49982962D01*
X55898282Y-50615269D01*
X55898282Y-50615270D01*
X55952440Y-50654619D01*
X55952446Y-50654623D01*
X56141786Y-50751096D01*
X56232983Y-50780727D01*
X56282483Y-50816691D01*
X56301391Y-50874881D01*
X56282484Y-50933072D01*
X56232988Y-50969035D01*
X56218366Y-50973786D01*
X56218364Y-50973787D01*
X56057008Y-51056002D01*
X55983752Y-51109225D01*
X55910499Y-51162447D01*
X55782447Y-51290499D01*
X55752500Y-51331718D01*
X55676002Y-51437008D01*
X55593788Y-51598362D01*
X55537828Y-51770593D01*
X55509500Y-51949450D01*
X55509500Y-52130549D01*
X55537828Y-52309406D01*
X55593788Y-52481637D01*
X55632806Y-52558215D01*
X55676004Y-52642994D01*
X55782447Y-52789501D01*
X55910499Y-52917553D01*
X56057006Y-53023996D01*
X56218361Y-53106211D01*
X56390591Y-53162171D01*
X56462136Y-53173502D01*
X56569451Y-53190500D01*
X56569454Y-53190500D01*
X56750549Y-53190500D01*
X56839977Y-53176335D01*
X56929409Y-53162171D01*
X57101639Y-53106211D01*
X57262994Y-53023996D01*
X57409501Y-52917553D01*
X57537553Y-52789501D01*
X57643996Y-52642994D01*
X57726211Y-52481639D01*
X57761813Y-52372066D01*
X59874500Y-52372066D01*
X59874500Y-52627933D01*
X59914525Y-52880636D01*
X59993589Y-53123973D01*
X60029585Y-53194620D01*
X60109748Y-53351947D01*
X60260138Y-53558942D01*
X60441058Y-53739862D01*
X60648053Y-53890252D01*
X60876025Y-54006410D01*
X61119361Y-54085474D01*
X61220444Y-54101484D01*
X61372067Y-54125500D01*
X61372070Y-54125500D01*
X61627933Y-54125500D01*
X61754284Y-54105487D01*
X61880639Y-54085474D01*
X62123975Y-54006410D01*
X62351947Y-53890252D01*
X62558942Y-53739862D01*
X62739862Y-53558942D01*
X62890252Y-53351947D01*
X63006410Y-53123975D01*
X63085474Y-52880639D01*
X63125500Y-52627930D01*
X63125500Y-52372070D01*
X63125500Y-52372066D01*
X63087246Y-52130549D01*
X63085474Y-52119361D01*
X63006410Y-51876025D01*
X62890252Y-51648053D01*
X62739862Y-51441058D01*
X62558942Y-51260138D01*
X62351947Y-51109748D01*
X62351946Y-51109747D01*
X62351944Y-51109746D01*
X62123973Y-50993589D01*
X61880636Y-50914525D01*
X61627933Y-50874500D01*
X61627930Y-50874500D01*
X61372070Y-50874500D01*
X61372067Y-50874500D01*
X61119363Y-50914525D01*
X60876026Y-50993589D01*
X60648055Y-51109746D01*
X60566422Y-51169056D01*
X60441058Y-51260138D01*
X60260138Y-51441058D01*
X60201486Y-51521786D01*
X60109746Y-51648055D01*
X59993589Y-51876026D01*
X59914525Y-52119363D01*
X59874500Y-52372066D01*
X57761813Y-52372066D01*
X57782171Y-52309409D01*
X57810500Y-52130549D01*
X57810500Y-51949450D01*
X57782171Y-51770593D01*
X57782171Y-51770591D01*
X57726211Y-51598361D01*
X57643996Y-51437006D01*
X57537553Y-51290499D01*
X57409501Y-51162447D01*
X57262994Y-51056004D01*
X57262993Y-51056003D01*
X57262991Y-51056002D01*
X57101637Y-50973788D01*
X57087013Y-50969036D01*
X57037514Y-50933071D01*
X57018608Y-50874880D01*
X57037517Y-50816689D01*
X57087016Y-50780727D01*
X57178213Y-50751096D01*
X57367556Y-50654620D01*
X57421716Y-50615270D01*
X56789408Y-49982962D01*
X56852993Y-49965925D01*
X56967007Y-49900099D01*
X57060099Y-49807007D01*
X57125925Y-49692993D01*
X57142962Y-49629408D01*
X57775270Y-50261716D01*
X57814620Y-50207556D01*
X57911095Y-50018215D01*
X57976759Y-49816121D01*
X58010000Y-49606250D01*
X58010000Y-49393749D01*
X57976759Y-49183878D01*
X57911095Y-48981784D01*
X57814623Y-48792446D01*
X57814619Y-48792440D01*
X57775270Y-48738282D01*
X57775269Y-48738282D01*
X57142962Y-49370589D01*
X57125925Y-49307007D01*
X57060099Y-49192993D01*
X56967007Y-49099901D01*
X56852993Y-49034075D01*
X56789407Y-49017037D01*
X57421716Y-48384729D01*
X57421716Y-48384728D01*
X57367559Y-48345380D01*
X57367553Y-48345376D01*
X57178215Y-48248904D01*
X56976121Y-48183240D01*
X56766250Y-48150000D01*
X56553750Y-48150000D01*
X56343878Y-48183240D01*
X56141784Y-48248904D01*
X55952446Y-48345376D01*
X55952442Y-48345378D01*
X55898282Y-48384728D01*
X56530591Y-49017037D01*
X56467007Y-49034075D01*
X56352993Y-49099901D01*
X56259901Y-49192993D01*
X56194075Y-49307007D01*
X56177037Y-49370591D01*
X55544728Y-48738282D01*
X55505378Y-48792442D01*
X55505376Y-48792446D01*
X55408904Y-48981784D01*
X55379272Y-49072984D01*
X55343308Y-49122484D01*
X55285117Y-49141391D01*
X55226926Y-49122484D01*
X55190962Y-49072984D01*
X55190962Y-49072983D01*
X55189824Y-49069483D01*
X55186211Y-49058361D01*
X55103996Y-48897006D01*
X54997553Y-48750499D01*
X54869501Y-48622447D01*
X54722994Y-48516004D01*
X54722990Y-48516001D01*
X54722988Y-48516000D01*
X54712527Y-48510670D01*
X54712526Y-48510670D01*
X54561637Y-48433788D01*
X54389406Y-48377828D01*
X54210549Y-48349500D01*
X54210546Y-48349500D01*
X54029454Y-48349500D01*
X54029451Y-48349500D01*
X53850593Y-48377828D01*
X53678362Y-48433788D01*
X53517008Y-48516002D01*
X53447891Y-48566219D01*
X53370499Y-48622447D01*
X53242447Y-48750499D01*
X53211975Y-48792440D01*
X53136002Y-48897008D01*
X53053788Y-49058362D01*
X52997828Y-49230593D01*
X52969500Y-49409450D01*
X52730500Y-49409450D01*
X52702171Y-49230593D01*
X52702171Y-49230591D01*
X52646211Y-49058361D01*
X52563996Y-48897006D01*
X52457553Y-48750499D01*
X52329501Y-48622447D01*
X52182994Y-48516004D01*
X52182993Y-48516003D01*
X52182991Y-48516002D01*
X52021637Y-48433788D01*
X51849406Y-48377828D01*
X51670549Y-48349500D01*
X51670546Y-48349500D01*
X51489454Y-48349500D01*
X51489451Y-48349500D01*
X51310593Y-48377828D01*
X51138362Y-48433788D01*
X50977008Y-48516002D01*
X50907891Y-48566219D01*
X50830499Y-48622447D01*
X50702447Y-48750499D01*
X50671975Y-48792440D01*
X50596002Y-48897008D01*
X50513788Y-49058362D01*
X50457828Y-49230593D01*
X50429500Y-49409450D01*
X50190500Y-49409450D01*
X50162171Y-49230593D01*
X50162171Y-49230591D01*
X50106211Y-49058361D01*
X50023996Y-48897006D01*
X49917553Y-48750499D01*
X49789501Y-48622447D01*
X49642994Y-48516004D01*
X49642993Y-48516003D01*
X49642991Y-48516002D01*
X49481637Y-48433788D01*
X49309406Y-48377828D01*
X49130549Y-48349500D01*
X49130546Y-48349500D01*
X48949454Y-48349500D01*
X48949451Y-48349500D01*
X48770593Y-48377828D01*
X48598362Y-48433788D01*
X48437008Y-48516002D01*
X48367891Y-48566219D01*
X48290499Y-48622447D01*
X48162447Y-48750499D01*
X48131975Y-48792440D01*
X48056002Y-48897008D01*
X47973788Y-49058362D01*
X47917828Y-49230593D01*
X47889500Y-49409450D01*
X47889500Y-49590549D01*
X47917828Y-49769406D01*
X47973788Y-49941637D01*
X48012806Y-50018215D01*
X48056004Y-50102994D01*
X48162447Y-50249501D01*
X48290499Y-50377553D01*
X48437006Y-50483996D01*
X48598361Y-50566211D01*
X48609483Y-50569824D01*
X48612983Y-50570962D01*
X48662483Y-50606926D01*
X48681391Y-50665116D01*
X48662484Y-50723307D01*
X48612985Y-50759271D01*
X48612984Y-50759272D01*
X48521784Y-50788904D01*
X48332446Y-50885376D01*
X48332442Y-50885378D01*
X48278282Y-50924728D01*
X48910591Y-51557037D01*
X48847007Y-51574075D01*
X48732993Y-51639901D01*
X48639901Y-51732993D01*
X48574075Y-51847007D01*
X48557037Y-51910591D01*
X47924728Y-51278282D01*
X47885378Y-51332442D01*
X47885376Y-51332446D01*
X47788904Y-51521784D01*
X47759272Y-51612984D01*
X47723308Y-51662484D01*
X47665117Y-51681391D01*
X47606926Y-51662484D01*
X47570962Y-51612984D01*
X47570962Y-51612983D01*
X47569824Y-51609483D01*
X47566211Y-51598361D01*
X47483996Y-51437006D01*
X47377553Y-51290499D01*
X47249501Y-51162447D01*
X47102994Y-51056004D01*
X47102993Y-51056003D01*
X47102991Y-51056002D01*
X46941637Y-50973788D01*
X46769406Y-50917828D01*
X46590549Y-50889500D01*
X46590546Y-50889500D01*
X46409454Y-50889500D01*
X46409451Y-50889500D01*
X46230593Y-50917828D01*
X46058362Y-50973788D01*
X45897008Y-51056002D01*
X45823752Y-51109225D01*
X45750499Y-51162447D01*
X45622447Y-51290499D01*
X45592500Y-51331718D01*
X45516002Y-51437008D01*
X45433787Y-51598364D01*
X45433786Y-51598366D01*
X45429035Y-51612988D01*
X45393069Y-51662486D01*
X45334878Y-51681391D01*
X45276688Y-51662481D01*
X45240727Y-51612983D01*
X45211096Y-51521786D01*
X45114623Y-51332446D01*
X45114619Y-51332440D01*
X45075270Y-51278282D01*
X45075269Y-51278282D01*
X44442962Y-51910589D01*
X44425925Y-51847007D01*
X44360099Y-51732993D01*
X44267007Y-51639901D01*
X44152993Y-51574075D01*
X44089407Y-51557037D01*
X44721716Y-50924729D01*
X44721716Y-50924728D01*
X44667559Y-50885380D01*
X44667553Y-50885376D01*
X44478215Y-50788904D01*
X44387015Y-50759272D01*
X44337515Y-50723308D01*
X44318608Y-50665117D01*
X44337515Y-50606926D01*
X44387013Y-50570962D01*
X44387017Y-50570962D01*
X44387018Y-50570962D01*
X44401633Y-50566213D01*
X44401633Y-50566212D01*
X44401639Y-50566211D01*
X44562994Y-50483996D01*
X44709501Y-50377553D01*
X44837553Y-50249501D01*
X44943996Y-50102994D01*
X45026211Y-49941639D01*
X45082171Y-49769409D01*
X45110500Y-49590546D01*
X45110500Y-49409454D01*
X45110500Y-49409450D01*
X45349500Y-49409450D01*
X45349500Y-49590549D01*
X45377828Y-49769406D01*
X45433788Y-49941637D01*
X45472806Y-50018215D01*
X45516004Y-50102994D01*
X45622447Y-50249501D01*
X45750499Y-50377553D01*
X45897006Y-50483996D01*
X46058361Y-50566211D01*
X46230591Y-50622171D01*
X46302136Y-50633502D01*
X46409451Y-50650500D01*
X46409454Y-50650500D01*
X46590549Y-50650500D01*
X46679977Y-50636335D01*
X46769409Y-50622171D01*
X46941639Y-50566211D01*
X47102994Y-50483996D01*
X47249501Y-50377553D01*
X47377553Y-50249501D01*
X47483996Y-50102994D01*
X47566211Y-49941639D01*
X47622171Y-49769409D01*
X47650500Y-49590546D01*
X47650500Y-49409454D01*
X47650500Y-49409450D01*
X47622171Y-49230593D01*
X47622171Y-49230591D01*
X47566211Y-49058361D01*
X47483996Y-48897006D01*
X47377553Y-48750499D01*
X47249501Y-48622447D01*
X47102994Y-48516004D01*
X47102993Y-48516003D01*
X47102991Y-48516002D01*
X46941637Y-48433788D01*
X46769406Y-48377828D01*
X46590549Y-48349500D01*
X46590546Y-48349500D01*
X46409454Y-48349500D01*
X46409451Y-48349500D01*
X46230593Y-48377828D01*
X46058362Y-48433788D01*
X45897008Y-48516002D01*
X45827891Y-48566219D01*
X45750499Y-48622447D01*
X45622447Y-48750499D01*
X45591975Y-48792440D01*
X45516002Y-48897008D01*
X45433788Y-49058362D01*
X45377828Y-49230593D01*
X45349500Y-49409450D01*
X45110500Y-49409450D01*
X45082171Y-49230593D01*
X45082171Y-49230591D01*
X45026211Y-49058361D01*
X44943996Y-48897006D01*
X44837553Y-48750499D01*
X44709501Y-48622447D01*
X44562994Y-48516004D01*
X44562993Y-48516003D01*
X44562991Y-48516002D01*
X44401637Y-48433788D01*
X44229406Y-48377828D01*
X44050549Y-48349500D01*
X44050546Y-48349500D01*
X43869454Y-48349500D01*
X43869451Y-48349500D01*
X43690593Y-48377828D01*
X43518362Y-48433788D01*
X43357008Y-48516002D01*
X43287891Y-48566219D01*
X43210499Y-48622447D01*
X43082447Y-48750499D01*
X43051975Y-48792440D01*
X42976002Y-48897008D01*
X42893788Y-49058362D01*
X42837828Y-49230593D01*
X42809500Y-49409450D01*
X42809500Y-49590549D01*
X42837828Y-49769406D01*
X42893788Y-49941637D01*
X42932806Y-50018215D01*
X42976004Y-50102994D01*
X43082447Y-50249501D01*
X43210499Y-50377553D01*
X43357006Y-50483996D01*
X43518361Y-50566211D01*
X43529483Y-50569824D01*
X43532983Y-50570962D01*
X43582483Y-50606926D01*
X43601391Y-50665116D01*
X43582484Y-50723307D01*
X43532985Y-50759271D01*
X43532984Y-50759272D01*
X43441784Y-50788904D01*
X43252446Y-50885376D01*
X43252442Y-50885378D01*
X43198282Y-50924728D01*
X43830591Y-51557037D01*
X43767007Y-51574075D01*
X43652993Y-51639901D01*
X43559901Y-51732993D01*
X43494075Y-51847007D01*
X43477037Y-51910591D01*
X42844728Y-51278282D01*
X42805378Y-51332442D01*
X42805376Y-51332446D01*
X42708904Y-51521784D01*
X42679272Y-51612984D01*
X42643308Y-51662484D01*
X42585117Y-51681391D01*
X42526926Y-51662484D01*
X42490962Y-51612984D01*
X42490962Y-51612983D01*
X42489824Y-51609483D01*
X42486211Y-51598361D01*
X42403996Y-51437006D01*
X42297553Y-51290499D01*
X42169501Y-51162447D01*
X42022994Y-51056004D01*
X42022993Y-51056003D01*
X42022991Y-51056002D01*
X41861637Y-50973788D01*
X41689406Y-50917828D01*
X41510549Y-50889500D01*
X41510546Y-50889500D01*
X41329454Y-50889500D01*
X41329451Y-50889500D01*
X41150593Y-50917828D01*
X40978362Y-50973788D01*
X40817008Y-51056002D01*
X40743752Y-51109225D01*
X40670499Y-51162447D01*
X40542447Y-51290499D01*
X40512500Y-51331718D01*
X40436002Y-51437008D01*
X40353788Y-51598362D01*
X40297828Y-51770593D01*
X40269500Y-51949450D01*
X40030500Y-51949450D01*
X40002171Y-51770593D01*
X40002171Y-51770591D01*
X39946211Y-51598361D01*
X39863996Y-51437006D01*
X39757553Y-51290499D01*
X39629501Y-51162447D01*
X39482994Y-51056004D01*
X39482993Y-51056003D01*
X39482991Y-51056002D01*
X39321637Y-50973788D01*
X39307013Y-50969036D01*
X39257514Y-50933071D01*
X39238608Y-50874880D01*
X39257517Y-50816689D01*
X39307016Y-50780727D01*
X39398213Y-50751096D01*
X39587556Y-50654620D01*
X39641716Y-50615270D01*
X39009408Y-49982962D01*
X39072993Y-49965925D01*
X39187007Y-49900099D01*
X39280099Y-49807007D01*
X39345925Y-49692993D01*
X39362962Y-49629408D01*
X39995270Y-50261716D01*
X40034620Y-50207556D01*
X40131096Y-50018213D01*
X40160727Y-49927016D01*
X40196690Y-49877516D01*
X40254881Y-49858608D01*
X40313072Y-49877515D01*
X40349036Y-49927013D01*
X40353788Y-49941637D01*
X40392806Y-50018215D01*
X40436004Y-50102994D01*
X40542447Y-50249501D01*
X40670499Y-50377553D01*
X40817006Y-50483996D01*
X40978361Y-50566211D01*
X41150591Y-50622171D01*
X41222136Y-50633502D01*
X41329451Y-50650500D01*
X41329454Y-50650500D01*
X41510549Y-50650500D01*
X41599977Y-50636335D01*
X41689409Y-50622171D01*
X41861639Y-50566211D01*
X42022994Y-50483996D01*
X42169501Y-50377553D01*
X42297553Y-50249501D01*
X42403996Y-50102994D01*
X42486211Y-49941639D01*
X42542171Y-49769409D01*
X42570500Y-49590546D01*
X42570500Y-49409454D01*
X42570500Y-49409450D01*
X42542171Y-49230593D01*
X42542171Y-49230591D01*
X42486211Y-49058361D01*
X42403996Y-48897006D01*
X42297553Y-48750499D01*
X42169501Y-48622447D01*
X42022994Y-48516004D01*
X42022993Y-48516003D01*
X42022991Y-48516002D01*
X41861637Y-48433788D01*
X41689406Y-48377828D01*
X41510549Y-48349500D01*
X41510546Y-48349500D01*
X41329454Y-48349500D01*
X41329451Y-48349500D01*
X41150593Y-48377828D01*
X40978362Y-48433788D01*
X40817008Y-48516002D01*
X40747891Y-48566219D01*
X40670499Y-48622447D01*
X40542447Y-48750499D01*
X40511975Y-48792440D01*
X40436002Y-48897008D01*
X40353787Y-49058364D01*
X40353786Y-49058366D01*
X40349035Y-49072988D01*
X40313069Y-49122486D01*
X40254878Y-49141391D01*
X40196688Y-49122481D01*
X40160727Y-49072983D01*
X40131096Y-48981786D01*
X40034623Y-48792446D01*
X40034619Y-48792440D01*
X39995270Y-48738282D01*
X39995269Y-48738282D01*
X39362962Y-49370589D01*
X39345925Y-49307007D01*
X39280099Y-49192993D01*
X39187007Y-49099901D01*
X39072993Y-49034075D01*
X39009407Y-49017037D01*
X39641716Y-48384729D01*
X39641716Y-48384728D01*
X39587559Y-48345380D01*
X39587553Y-48345376D01*
X39398215Y-48248904D01*
X39196121Y-48183240D01*
X38986250Y-48150000D01*
X38773750Y-48150000D01*
X38563878Y-48183240D01*
X38361784Y-48248904D01*
X38172446Y-48345376D01*
X38172442Y-48345378D01*
X38118282Y-48384728D01*
X38750591Y-49017037D01*
X38687007Y-49034075D01*
X38572993Y-49099901D01*
X38479901Y-49192993D01*
X38414075Y-49307007D01*
X38397037Y-49370591D01*
X37764728Y-48738282D01*
X37725378Y-48792442D01*
X37725376Y-48792446D01*
X37628904Y-48981784D01*
X37599272Y-49072984D01*
X37563308Y-49122484D01*
X37505117Y-49141391D01*
X37446926Y-49122484D01*
X37410962Y-49072984D01*
X37410962Y-49072983D01*
X37409824Y-49069483D01*
X37406211Y-49058361D01*
X37323996Y-48897006D01*
X37217553Y-48750499D01*
X37089501Y-48622447D01*
X36942994Y-48516004D01*
X36942990Y-48516001D01*
X36942988Y-48516000D01*
X36932527Y-48510670D01*
X36932526Y-48510670D01*
X36781637Y-48433788D01*
X36609406Y-48377828D01*
X36430549Y-48349500D01*
X36430546Y-48349500D01*
X36249454Y-48349500D01*
X36249451Y-48349500D01*
X36070593Y-48377828D01*
X35898362Y-48433788D01*
X35737008Y-48516002D01*
X35667891Y-48566219D01*
X35590499Y-48622447D01*
X35462447Y-48750499D01*
X35431975Y-48792440D01*
X35356002Y-48897008D01*
X35273788Y-49058362D01*
X35217828Y-49230593D01*
X35189500Y-49409450D01*
X34950500Y-49409450D01*
X34922171Y-49230593D01*
X34922171Y-49230591D01*
X34866211Y-49058361D01*
X34783996Y-48897006D01*
X34677553Y-48750499D01*
X34549501Y-48622447D01*
X34402994Y-48516004D01*
X34402993Y-48516003D01*
X34402991Y-48516002D01*
X34241637Y-48433788D01*
X34069406Y-48377828D01*
X33890549Y-48349500D01*
X33890546Y-48349500D01*
X33709454Y-48349500D01*
X33709451Y-48349500D01*
X33530593Y-48377828D01*
X33358362Y-48433788D01*
X33197008Y-48516002D01*
X33127891Y-48566219D01*
X33050499Y-48622447D01*
X32922447Y-48750499D01*
X32891975Y-48792440D01*
X32816002Y-48897008D01*
X32733788Y-49058362D01*
X32677828Y-49230593D01*
X32649500Y-49409450D01*
X32410500Y-49409450D01*
X32382171Y-49230593D01*
X32382171Y-49230591D01*
X32326211Y-49058361D01*
X32243996Y-48897006D01*
X32137553Y-48750499D01*
X32009501Y-48622447D01*
X31862994Y-48516004D01*
X31862993Y-48516003D01*
X31862991Y-48516002D01*
X31701637Y-48433788D01*
X31529406Y-48377828D01*
X31350549Y-48349500D01*
X31350546Y-48349500D01*
X31169454Y-48349500D01*
X31169451Y-48349500D01*
X30990593Y-48377828D01*
X30818362Y-48433788D01*
X30657008Y-48516002D01*
X30587891Y-48566219D01*
X30510499Y-48622447D01*
X30382447Y-48750499D01*
X30351975Y-48792440D01*
X30276002Y-48897008D01*
X30193788Y-49058362D01*
X30137828Y-49230593D01*
X30109500Y-49409450D01*
X30109500Y-49590549D01*
X30137828Y-49769406D01*
X30193788Y-49941637D01*
X30232806Y-50018215D01*
X30276004Y-50102994D01*
X30382447Y-50249501D01*
X30510499Y-50377553D01*
X30657006Y-50483996D01*
X30818361Y-50566211D01*
X30829483Y-50569824D01*
X30832983Y-50570962D01*
X30882483Y-50606926D01*
X30901391Y-50665116D01*
X30882484Y-50723307D01*
X30832985Y-50759271D01*
X30832984Y-50759272D01*
X30741784Y-50788904D01*
X30552446Y-50885376D01*
X30552442Y-50885378D01*
X30498282Y-50924728D01*
X31130591Y-51557037D01*
X31067007Y-51574075D01*
X30952993Y-51639901D01*
X30859901Y-51732993D01*
X30794075Y-51847007D01*
X30777037Y-51910591D01*
X30144728Y-51278282D01*
X30105378Y-51332442D01*
X30105376Y-51332446D01*
X30008904Y-51521784D01*
X29979272Y-51612984D01*
X29943308Y-51662484D01*
X29885117Y-51681391D01*
X29826926Y-51662484D01*
X29790962Y-51612984D01*
X29790962Y-51612983D01*
X29789824Y-51609483D01*
X29786211Y-51598361D01*
X29703996Y-51437006D01*
X29597553Y-51290499D01*
X29469501Y-51162447D01*
X29322994Y-51056004D01*
X29322993Y-51056003D01*
X29322991Y-51056002D01*
X29161637Y-50973788D01*
X28989406Y-50917828D01*
X28810549Y-50889500D01*
X28810546Y-50889500D01*
X28629454Y-50889500D01*
X28629451Y-50889500D01*
X28450593Y-50917828D01*
X28278362Y-50973788D01*
X28117008Y-51056002D01*
X28043752Y-51109225D01*
X27970499Y-51162447D01*
X27842447Y-51290499D01*
X27812500Y-51331718D01*
X27736002Y-51437008D01*
X27653788Y-51598362D01*
X27597828Y-51770593D01*
X27569500Y-51949450D01*
X27330500Y-51949450D01*
X27302171Y-51770593D01*
X27302171Y-51770591D01*
X27246211Y-51598361D01*
X27163996Y-51437006D01*
X27057553Y-51290499D01*
X26929501Y-51162447D01*
X26782994Y-51056004D01*
X26782993Y-51056003D01*
X26782991Y-51056002D01*
X26621637Y-50973788D01*
X26449406Y-50917828D01*
X26270549Y-50889500D01*
X26270546Y-50889500D01*
X26089454Y-50889500D01*
X26089451Y-50889500D01*
X25910593Y-50917828D01*
X25738362Y-50973788D01*
X25577008Y-51056002D01*
X25503752Y-51109225D01*
X25430499Y-51162447D01*
X25302447Y-51290499D01*
X25272500Y-51331718D01*
X25196002Y-51437008D01*
X25113787Y-51598364D01*
X25113786Y-51598366D01*
X25109035Y-51612988D01*
X25073069Y-51662486D01*
X25014878Y-51681391D01*
X24956688Y-51662481D01*
X24920727Y-51612983D01*
X24891096Y-51521786D01*
X24794623Y-51332446D01*
X24794619Y-51332440D01*
X24755270Y-51278282D01*
X24755269Y-51278282D01*
X24122962Y-51910589D01*
X24105925Y-51847007D01*
X24040099Y-51732993D01*
X23947007Y-51639901D01*
X23832993Y-51574075D01*
X23769407Y-51557037D01*
X24401716Y-50924729D01*
X24401716Y-50924728D01*
X24347559Y-50885380D01*
X24347553Y-50885376D01*
X24158215Y-50788904D01*
X24067015Y-50759272D01*
X24017515Y-50723308D01*
X23998608Y-50665117D01*
X24017515Y-50606926D01*
X24067013Y-50570962D01*
X24067017Y-50570962D01*
X24067018Y-50570962D01*
X24081633Y-50566213D01*
X24081633Y-50566212D01*
X24081639Y-50566211D01*
X24242994Y-50483996D01*
X24389501Y-50377553D01*
X24517553Y-50249501D01*
X24623996Y-50102994D01*
X24706211Y-49941639D01*
X24762171Y-49769409D01*
X24790500Y-49590546D01*
X24790500Y-49409454D01*
X24790500Y-49409450D01*
X25029500Y-49409450D01*
X25029500Y-49590549D01*
X25057828Y-49769406D01*
X25113788Y-49941637D01*
X25152806Y-50018215D01*
X25196004Y-50102994D01*
X25302447Y-50249501D01*
X25430499Y-50377553D01*
X25577006Y-50483996D01*
X25738361Y-50566211D01*
X25910591Y-50622171D01*
X25982136Y-50633502D01*
X26089451Y-50650500D01*
X26089454Y-50650500D01*
X26270549Y-50650500D01*
X26359977Y-50636335D01*
X26449409Y-50622171D01*
X26621639Y-50566211D01*
X26782994Y-50483996D01*
X26929501Y-50377553D01*
X27057553Y-50249501D01*
X27163996Y-50102994D01*
X27246211Y-49941639D01*
X27302171Y-49769409D01*
X27330500Y-49590546D01*
X27330500Y-49409454D01*
X27330500Y-49409450D01*
X27569500Y-49409450D01*
X27569500Y-49590549D01*
X27597828Y-49769406D01*
X27653788Y-49941637D01*
X27692806Y-50018215D01*
X27736004Y-50102994D01*
X27842447Y-50249501D01*
X27970499Y-50377553D01*
X28117006Y-50483996D01*
X28278361Y-50566211D01*
X28450591Y-50622171D01*
X28522136Y-50633502D01*
X28629451Y-50650500D01*
X28629454Y-50650500D01*
X28810549Y-50650500D01*
X28899977Y-50636335D01*
X28989409Y-50622171D01*
X29161639Y-50566211D01*
X29322994Y-50483996D01*
X29469501Y-50377553D01*
X29597553Y-50249501D01*
X29703996Y-50102994D01*
X29786211Y-49941639D01*
X29842171Y-49769409D01*
X29870500Y-49590546D01*
X29870500Y-49409454D01*
X29870500Y-49409450D01*
X29842171Y-49230593D01*
X29842171Y-49230591D01*
X29786211Y-49058361D01*
X29703996Y-48897006D01*
X29597553Y-48750499D01*
X29469501Y-48622447D01*
X29322994Y-48516004D01*
X29322993Y-48516003D01*
X29322991Y-48516002D01*
X29161637Y-48433788D01*
X28989406Y-48377828D01*
X28810549Y-48349500D01*
X28810546Y-48349500D01*
X28629454Y-48349500D01*
X28629451Y-48349500D01*
X28450593Y-48377828D01*
X28278362Y-48433788D01*
X28117008Y-48516002D01*
X28047891Y-48566219D01*
X27970499Y-48622447D01*
X27842447Y-48750499D01*
X27811975Y-48792440D01*
X27736002Y-48897008D01*
X27653788Y-49058362D01*
X27597828Y-49230593D01*
X27569500Y-49409450D01*
X27330500Y-49409450D01*
X27302171Y-49230593D01*
X27302171Y-49230591D01*
X27246211Y-49058361D01*
X27163996Y-48897006D01*
X27057553Y-48750499D01*
X26929501Y-48622447D01*
X26782994Y-48516004D01*
X26782993Y-48516003D01*
X26782991Y-48516002D01*
X26621637Y-48433788D01*
X26449406Y-48377828D01*
X26270549Y-48349500D01*
X26270546Y-48349500D01*
X26089454Y-48349500D01*
X26089451Y-48349500D01*
X25910593Y-48377828D01*
X25738362Y-48433788D01*
X25577008Y-48516002D01*
X25507891Y-48566219D01*
X25430499Y-48622447D01*
X25302447Y-48750499D01*
X25271975Y-48792440D01*
X25196002Y-48897008D01*
X25113788Y-49058362D01*
X25057828Y-49230593D01*
X25029500Y-49409450D01*
X24790500Y-49409450D01*
X24762171Y-49230593D01*
X24762171Y-49230591D01*
X24706211Y-49058361D01*
X24623996Y-48897006D01*
X24517553Y-48750499D01*
X24389501Y-48622447D01*
X24242994Y-48516004D01*
X24242993Y-48516003D01*
X24242991Y-48516002D01*
X24081637Y-48433788D01*
X23909406Y-48377828D01*
X23730549Y-48349500D01*
X23730546Y-48349500D01*
X23549454Y-48349500D01*
X23549451Y-48349500D01*
X23370593Y-48377828D01*
X23198362Y-48433788D01*
X23037008Y-48516002D01*
X22967891Y-48566219D01*
X22890499Y-48622447D01*
X22762447Y-48750499D01*
X22731975Y-48792440D01*
X22656002Y-48897008D01*
X22573788Y-49058362D01*
X22517828Y-49230593D01*
X22489500Y-49409450D01*
X22489500Y-49590549D01*
X22517828Y-49769406D01*
X22573788Y-49941637D01*
X22612806Y-50018215D01*
X22656004Y-50102994D01*
X22762447Y-50249501D01*
X22890499Y-50377553D01*
X23037006Y-50483996D01*
X23198361Y-50566211D01*
X23209483Y-50569824D01*
X23212983Y-50570962D01*
X23262483Y-50606926D01*
X23281391Y-50665116D01*
X23262484Y-50723307D01*
X23212985Y-50759271D01*
X23212984Y-50759272D01*
X23121784Y-50788904D01*
X22932446Y-50885376D01*
X22932442Y-50885378D01*
X22878282Y-50924728D01*
X23510591Y-51557037D01*
X23447007Y-51574075D01*
X23332993Y-51639901D01*
X23239901Y-51732993D01*
X23174075Y-51847007D01*
X23157037Y-51910591D01*
X22524728Y-51278282D01*
X22485378Y-51332442D01*
X22485376Y-51332446D01*
X22388904Y-51521784D01*
X22359272Y-51612984D01*
X22323308Y-51662484D01*
X22265117Y-51681391D01*
X22206926Y-51662484D01*
X22170962Y-51612984D01*
X22170962Y-51612983D01*
X22169824Y-51609483D01*
X22166211Y-51598361D01*
X22083996Y-51437006D01*
X21977553Y-51290499D01*
X21849501Y-51162447D01*
X21702994Y-51056004D01*
X21702993Y-51056003D01*
X21702991Y-51056002D01*
X21541637Y-50973788D01*
X21369406Y-50917828D01*
X21190549Y-50889500D01*
X21190546Y-50889500D01*
X21009454Y-50889500D01*
X21009451Y-50889500D01*
X20830593Y-50917828D01*
X20658362Y-50973788D01*
X20497008Y-51056002D01*
X20423752Y-51109225D01*
X20350499Y-51162447D01*
X20222447Y-51290499D01*
X20192500Y-51331718D01*
X20116002Y-51437008D01*
X20033788Y-51598362D01*
X19977828Y-51770593D01*
X19949500Y-51949450D01*
X19710500Y-51949450D01*
X19682171Y-51770593D01*
X19682171Y-51770591D01*
X19626211Y-51598361D01*
X19543996Y-51437006D01*
X19437553Y-51290499D01*
X19309501Y-51162447D01*
X19162994Y-51056004D01*
X19162993Y-51056003D01*
X19162991Y-51056002D01*
X19001637Y-50973788D01*
X18987013Y-50969036D01*
X18937514Y-50933071D01*
X18918608Y-50874880D01*
X18937517Y-50816689D01*
X18987016Y-50780727D01*
X19078213Y-50751096D01*
X19267556Y-50654620D01*
X19321716Y-50615270D01*
X18689408Y-49982962D01*
X18752993Y-49965925D01*
X18867007Y-49900099D01*
X18960099Y-49807007D01*
X19025925Y-49692993D01*
X19042962Y-49629408D01*
X19675270Y-50261716D01*
X19714620Y-50207556D01*
X19811096Y-50018213D01*
X19840727Y-49927016D01*
X19876690Y-49877516D01*
X19934881Y-49858608D01*
X19993072Y-49877515D01*
X20029036Y-49927013D01*
X20033788Y-49941637D01*
X20072806Y-50018215D01*
X20116004Y-50102994D01*
X20222447Y-50249501D01*
X20350499Y-50377553D01*
X20497006Y-50483996D01*
X20658361Y-50566211D01*
X20830591Y-50622171D01*
X20902136Y-50633502D01*
X21009451Y-50650500D01*
X21009454Y-50650500D01*
X21190549Y-50650500D01*
X21279977Y-50636335D01*
X21369409Y-50622171D01*
X21541639Y-50566211D01*
X21702994Y-50483996D01*
X21849501Y-50377553D01*
X21977553Y-50249501D01*
X22083996Y-50102994D01*
X22166211Y-49941639D01*
X22222171Y-49769409D01*
X22250500Y-49590546D01*
X22250500Y-49409454D01*
X22250500Y-49409450D01*
X22222171Y-49230593D01*
X22222171Y-49230591D01*
X22166211Y-49058361D01*
X22083996Y-48897006D01*
X21977553Y-48750499D01*
X21849501Y-48622447D01*
X21702994Y-48516004D01*
X21702993Y-48516003D01*
X21702991Y-48516002D01*
X21541637Y-48433788D01*
X21369406Y-48377828D01*
X21190549Y-48349500D01*
X21190546Y-48349500D01*
X21009454Y-48349500D01*
X21009451Y-48349500D01*
X20830593Y-48377828D01*
X20658362Y-48433788D01*
X20497008Y-48516002D01*
X20427891Y-48566219D01*
X20350499Y-48622447D01*
X20222447Y-48750499D01*
X20191975Y-48792440D01*
X20116002Y-48897008D01*
X20033787Y-49058364D01*
X20033786Y-49058366D01*
X20029035Y-49072988D01*
X19993069Y-49122486D01*
X19934878Y-49141391D01*
X19876688Y-49122481D01*
X19840727Y-49072983D01*
X19811096Y-48981786D01*
X19714623Y-48792446D01*
X19714619Y-48792440D01*
X19675270Y-48738282D01*
X19675269Y-48738282D01*
X19042962Y-49370589D01*
X19025925Y-49307007D01*
X18960099Y-49192993D01*
X18867007Y-49099901D01*
X18752993Y-49034075D01*
X18689407Y-49017037D01*
X19321716Y-48384729D01*
X19321716Y-48384728D01*
X19267559Y-48345380D01*
X19267553Y-48345376D01*
X19078215Y-48248904D01*
X18876121Y-48183240D01*
X18666250Y-48150000D01*
X18453750Y-48150000D01*
X18243878Y-48183240D01*
X18041784Y-48248904D01*
X17852446Y-48345376D01*
X17852442Y-48345378D01*
X17798282Y-48384728D01*
X18430591Y-49017037D01*
X18367007Y-49034075D01*
X18252993Y-49099901D01*
X18159901Y-49192993D01*
X18094075Y-49307007D01*
X18077037Y-49370591D01*
X17444728Y-48738282D01*
X17405378Y-48792442D01*
X17405376Y-48792446D01*
X17308904Y-48981784D01*
X17279272Y-49072984D01*
X17243308Y-49122484D01*
X17185117Y-49141391D01*
X17126926Y-49122484D01*
X17090962Y-49072984D01*
X17090962Y-49072983D01*
X17089824Y-49069483D01*
X17086211Y-49058361D01*
X17003996Y-48897006D01*
X16897553Y-48750499D01*
X16769501Y-48622447D01*
X16622994Y-48516004D01*
X16622990Y-48516001D01*
X16622988Y-48516000D01*
X16612527Y-48510670D01*
X16612526Y-48510670D01*
X16461637Y-48433788D01*
X16289406Y-48377828D01*
X16110549Y-48349500D01*
X16110546Y-48349500D01*
X15929454Y-48349500D01*
X15929451Y-48349500D01*
X15750593Y-48377828D01*
X15578362Y-48433788D01*
X15417008Y-48516002D01*
X15347891Y-48566219D01*
X15270499Y-48622447D01*
X15142447Y-48750499D01*
X15111975Y-48792440D01*
X15036002Y-48897008D01*
X14953788Y-49058362D01*
X14897828Y-49230593D01*
X14869500Y-49409450D01*
X14630500Y-49409450D01*
X14602171Y-49230593D01*
X14602171Y-49230591D01*
X14546211Y-49058361D01*
X14463996Y-48897006D01*
X14389611Y-48794623D01*
X14370705Y-48736435D01*
X14389612Y-48678244D01*
X14426045Y-48649528D01*
X14425464Y-48648521D01*
X14431081Y-48645277D01*
X14431084Y-48645277D01*
X14568016Y-48566220D01*
X14679820Y-48454416D01*
X14758877Y-48317484D01*
X14799800Y-48164757D01*
X14799800Y-48006643D01*
X14758877Y-47853916D01*
X14679820Y-47716984D01*
X14568016Y-47605180D01*
X14431084Y-47526123D01*
X14278357Y-47485200D01*
X14120243Y-47485200D01*
X13967516Y-47526123D01*
X13830584Y-47605180D01*
X13718780Y-47716984D01*
X13639723Y-47853916D01*
X13598800Y-48006643D01*
X13598800Y-48164757D01*
X13614909Y-48224879D01*
X13611708Y-48285978D01*
X13573203Y-48333528D01*
X13519283Y-48349500D01*
X13389451Y-48349500D01*
X13210593Y-48377828D01*
X13038362Y-48433788D01*
X12877008Y-48516002D01*
X12807891Y-48566219D01*
X12730499Y-48622447D01*
X12602447Y-48750499D01*
X12571975Y-48792440D01*
X12496002Y-48897008D01*
X12413788Y-49058362D01*
X12357828Y-49230593D01*
X12329500Y-49409450D01*
X12329500Y-49590549D01*
X12357828Y-49769406D01*
X12413788Y-49941637D01*
X12452806Y-50018215D01*
X12496004Y-50102994D01*
X12602447Y-50249501D01*
X12730499Y-50377553D01*
X12877006Y-50483996D01*
X13038361Y-50566211D01*
X13049483Y-50569824D01*
X13052983Y-50570962D01*
X13102483Y-50606926D01*
X13121391Y-50665116D01*
X13102484Y-50723307D01*
X13052985Y-50759271D01*
X13052984Y-50759272D01*
X12961784Y-50788904D01*
X12772446Y-50885376D01*
X12772442Y-50885378D01*
X12718282Y-50924728D01*
X13350591Y-51557037D01*
X13287007Y-51574075D01*
X13172993Y-51639901D01*
X13079901Y-51732993D01*
X13014075Y-51847007D01*
X12997037Y-51910591D01*
X12364728Y-51278282D01*
X12325378Y-51332442D01*
X12325376Y-51332446D01*
X12228904Y-51521784D01*
X12199272Y-51612984D01*
X12163308Y-51662484D01*
X12105117Y-51681391D01*
X12046926Y-51662484D01*
X12010962Y-51612984D01*
X12010962Y-51612983D01*
X12009824Y-51609483D01*
X12006211Y-51598361D01*
X11923996Y-51437006D01*
X11817553Y-51290499D01*
X11689501Y-51162447D01*
X11542994Y-51056004D01*
X11542993Y-51056003D01*
X11542991Y-51056002D01*
X11381637Y-50973788D01*
X11209406Y-50917828D01*
X11030549Y-50889500D01*
X11030546Y-50889500D01*
X10849454Y-50889500D01*
X10849451Y-50889500D01*
X10670593Y-50917828D01*
X10498362Y-50973788D01*
X10337008Y-51056002D01*
X10263752Y-51109225D01*
X10190499Y-51162447D01*
X10062447Y-51290499D01*
X10032500Y-51331718D01*
X9956002Y-51437008D01*
X9873788Y-51598362D01*
X9817828Y-51770593D01*
X9789500Y-51949450D01*
X9550500Y-51949450D01*
X9522171Y-51770593D01*
X9522171Y-51770591D01*
X9466211Y-51598361D01*
X9383996Y-51437006D01*
X9277553Y-51290499D01*
X9149501Y-51162447D01*
X9002994Y-51056004D01*
X9002993Y-51056003D01*
X9002991Y-51056002D01*
X8841637Y-50973788D01*
X8669406Y-50917828D01*
X8490549Y-50889500D01*
X8490546Y-50889500D01*
X8309454Y-50889500D01*
X8309451Y-50889500D01*
X8130593Y-50917828D01*
X7958362Y-50973788D01*
X7797008Y-51056002D01*
X7723752Y-51109225D01*
X7650499Y-51162447D01*
X7650497Y-51162449D01*
X7522446Y-51290500D01*
X7518624Y-51295761D01*
X7469121Y-51331722D01*
X7407936Y-51331718D01*
X7358438Y-51295750D01*
X7339535Y-51237558D01*
X7342909Y-51211941D01*
X7354399Y-51169059D01*
X7354400Y-51169056D01*
X7354400Y-51010944D01*
X7349750Y-50993589D01*
X7313477Y-50858216D01*
X7234420Y-50721284D01*
X7122616Y-50609480D01*
X6985684Y-50530423D01*
X6832957Y-50489500D01*
X6674843Y-50489500D01*
X6522116Y-50530423D01*
X6385184Y-50609480D01*
X6273380Y-50721284D01*
X6194323Y-50858216D01*
X6153400Y-51010943D01*
X4158032Y-51010943D01*
X4123973Y-50993589D01*
X3880636Y-50914525D01*
X3627933Y-50874500D01*
X3627930Y-50874500D01*
X3372070Y-50874500D01*
X3372067Y-50874500D01*
X3119363Y-50914525D01*
X2876026Y-50993589D01*
X2648055Y-51109746D01*
X2566422Y-51169056D01*
X2441058Y-51260138D01*
X2260138Y-51441058D01*
X2201486Y-51521786D01*
X2109746Y-51648055D01*
X1993589Y-51876026D01*
X1914525Y-52119363D01*
X1874500Y-52372066D01*
X600000Y-52372066D01*
X600000Y-48605130D01*
X7249500Y-48605130D01*
X7249500Y-50394860D01*
X7249501Y-50394863D01*
X7252414Y-50419990D01*
X7280676Y-50483997D01*
X7297794Y-50522765D01*
X7377235Y-50602206D01*
X7480009Y-50647585D01*
X7505135Y-50650500D01*
X9294864Y-50650499D01*
X9319991Y-50647585D01*
X9422765Y-50602206D01*
X9502206Y-50522765D01*
X9547585Y-50419991D01*
X9550500Y-50394865D01*
X9550499Y-49409450D01*
X9789500Y-49409450D01*
X9789500Y-49590549D01*
X9817828Y-49769406D01*
X9873788Y-49941637D01*
X9912806Y-50018215D01*
X9956004Y-50102994D01*
X10062447Y-50249501D01*
X10190499Y-50377553D01*
X10337006Y-50483996D01*
X10498361Y-50566211D01*
X10670591Y-50622171D01*
X10742136Y-50633502D01*
X10849451Y-50650500D01*
X10849454Y-50650500D01*
X11030549Y-50650500D01*
X11119977Y-50636335D01*
X11209409Y-50622171D01*
X11381639Y-50566211D01*
X11542994Y-50483996D01*
X11689501Y-50377553D01*
X11817553Y-50249501D01*
X11923996Y-50102994D01*
X12006211Y-49941639D01*
X12062171Y-49769409D01*
X12090500Y-49590546D01*
X12090500Y-49409454D01*
X12090500Y-49409450D01*
X12062171Y-49230593D01*
X12062171Y-49230591D01*
X12006211Y-49058361D01*
X11923996Y-48897006D01*
X11817553Y-48750499D01*
X11689501Y-48622447D01*
X11542994Y-48516004D01*
X11542993Y-48516003D01*
X11542991Y-48516002D01*
X11381637Y-48433788D01*
X11209406Y-48377828D01*
X11030549Y-48349500D01*
X11030546Y-48349500D01*
X10849454Y-48349500D01*
X10849451Y-48349500D01*
X10670593Y-48377828D01*
X10498362Y-48433788D01*
X10337008Y-48516002D01*
X10267891Y-48566219D01*
X10190499Y-48622447D01*
X10062447Y-48750499D01*
X10031975Y-48792440D01*
X9956002Y-48897008D01*
X9873788Y-49058362D01*
X9817828Y-49230593D01*
X9789500Y-49409450D01*
X9550499Y-49409450D01*
X9550499Y-48605136D01*
X9547585Y-48580009D01*
X9502206Y-48477235D01*
X9422765Y-48397794D01*
X9319991Y-48352415D01*
X9319990Y-48352414D01*
X9319988Y-48352414D01*
X9294868Y-48349500D01*
X7505139Y-48349500D01*
X7505136Y-48349501D01*
X7480009Y-48352414D01*
X7377235Y-48397794D01*
X7297794Y-48477235D01*
X7252414Y-48580011D01*
X7249500Y-48605130D01*
X600000Y-48605130D01*
X600000Y-39106892D01*
X12599500Y-39106892D01*
X12599500Y-40893098D01*
X12599501Y-40893108D01*
X12610123Y-40981564D01*
X12610124Y-40981570D01*
X12652836Y-41089877D01*
X12665639Y-41122343D01*
X12757077Y-41242923D01*
X12877657Y-41334361D01*
X13018435Y-41389877D01*
X13106897Y-41400500D01*
X14893102Y-41400499D01*
X14981565Y-41389877D01*
X15122343Y-41334361D01*
X15242923Y-41242923D01*
X15334361Y-41122343D01*
X15389877Y-40981565D01*
X15400500Y-40893103D01*
X15400499Y-39889774D01*
X22759500Y-39889774D01*
X22759500Y-40110225D01*
X22793984Y-40327948D01*
X22862102Y-40537599D01*
X22862104Y-40537602D01*
X22862105Y-40537606D01*
X22890381Y-40593100D01*
X22958056Y-40725920D01*
X22962185Y-40734022D01*
X23091758Y-40912365D01*
X23247635Y-41068242D01*
X23425978Y-41197815D01*
X23622394Y-41297895D01*
X23832049Y-41366015D01*
X23919140Y-41379809D01*
X24049775Y-41400500D01*
X24049778Y-41400500D01*
X24270225Y-41400500D01*
X24379086Y-41383257D01*
X24487951Y-41366015D01*
X24697606Y-41297895D01*
X24894022Y-41197815D01*
X25072365Y-41068242D01*
X25228242Y-40912365D01*
X25357815Y-40734022D01*
X25457895Y-40537606D01*
X25526015Y-40327951D01*
X25560500Y-40110222D01*
X25560500Y-39889778D01*
X25560500Y-39889774D01*
X25534043Y-39722734D01*
X25526015Y-39672049D01*
X25457895Y-39462394D01*
X25429616Y-39406893D01*
X28899500Y-39406893D01*
X28899500Y-40593106D01*
X28910123Y-40681565D01*
X28965637Y-40822339D01*
X28965638Y-40822341D01*
X28965639Y-40822342D01*
X29057078Y-40942922D01*
X29177658Y-41034361D01*
X29177659Y-41034361D01*
X29177660Y-41034362D01*
X29248047Y-41062119D01*
X29318436Y-41089877D01*
X29406898Y-41100500D01*
X29406900Y-41100500D01*
X30593100Y-41100500D01*
X30593102Y-41100500D01*
X30681564Y-41089877D01*
X30822342Y-41034361D01*
X30942922Y-40942922D01*
X31034361Y-40822342D01*
X31089877Y-40681564D01*
X31100500Y-40593102D01*
X31100500Y-40369343D01*
X31119407Y-40311152D01*
X31168907Y-40275188D01*
X31230093Y-40275188D01*
X31269501Y-40299337D01*
X31282184Y-40312020D01*
X31419116Y-40391077D01*
X31571843Y-40432000D01*
X31571845Y-40432000D01*
X31729955Y-40432000D01*
X31729957Y-40432000D01*
X31882684Y-40391077D01*
X32019616Y-40312020D01*
X32067553Y-40264082D01*
X32122067Y-40236306D01*
X32182499Y-40245877D01*
X32225764Y-40289141D01*
X32231710Y-40303494D01*
X32295243Y-40499027D01*
X32388139Y-40681348D01*
X32388143Y-40681353D01*
X32420523Y-40725920D01*
X32420524Y-40725920D01*
X33100000Y-40046444D01*
X33100000Y-40052661D01*
X33127259Y-40154394D01*
X33179920Y-40245606D01*
X33254394Y-40320080D01*
X33345606Y-40372741D01*
X33447339Y-40400000D01*
X33453553Y-40400000D01*
X32774078Y-41079475D01*
X32818647Y-41111858D01*
X33000972Y-41204756D01*
X33195587Y-41267991D01*
X33397685Y-41300000D01*
X33602315Y-41300000D01*
X33804412Y-41267991D01*
X33999027Y-41204756D01*
X34181342Y-41111863D01*
X34181350Y-41111858D01*
X34225920Y-41079475D01*
X33546445Y-40400000D01*
X33552661Y-40400000D01*
X33654394Y-40372741D01*
X33745606Y-40320080D01*
X33820080Y-40245606D01*
X33872741Y-40154394D01*
X33900000Y-40052661D01*
X33900000Y-40046445D01*
X34579475Y-40725920D01*
X34611858Y-40681350D01*
X34611863Y-40681342D01*
X34704756Y-40499027D01*
X34767991Y-40304412D01*
X34800000Y-40102315D01*
X34800000Y-39913385D01*
X38899500Y-39913385D01*
X38899500Y-40086614D01*
X38926597Y-40257702D01*
X38926598Y-40257706D01*
X38980123Y-40422438D01*
X38980125Y-40422441D01*
X39019143Y-40499020D01*
X39058768Y-40576788D01*
X39160586Y-40716928D01*
X39283072Y-40839414D01*
X39423212Y-40941232D01*
X39577555Y-41019873D01*
X39577557Y-41019873D01*
X39577558Y-41019874D01*
X39577561Y-41019876D01*
X39742293Y-41073401D01*
X39742297Y-41073402D01*
X39913386Y-41100500D01*
X39913389Y-41100500D01*
X40086614Y-41100500D01*
X40257702Y-41073402D01*
X40257706Y-41073401D01*
X40422438Y-41019876D01*
X40422440Y-41019874D01*
X40422445Y-41019873D01*
X40576788Y-40941232D01*
X40716928Y-40839414D01*
X40839414Y-40716928D01*
X40941232Y-40576788D01*
X41019873Y-40422445D01*
X41050962Y-40326763D01*
X41086925Y-40277265D01*
X41145116Y-40258358D01*
X41203307Y-40277265D01*
X41239270Y-40326765D01*
X41295239Y-40499020D01*
X41295241Y-40499023D01*
X41388139Y-40681348D01*
X41388143Y-40681353D01*
X41420523Y-40725920D01*
X41420524Y-40725920D01*
X42100000Y-40046444D01*
X42100000Y-40052661D01*
X42127259Y-40154394D01*
X42179920Y-40245606D01*
X42254394Y-40320080D01*
X42345606Y-40372741D01*
X42447339Y-40400000D01*
X42453553Y-40400000D01*
X41774078Y-41079475D01*
X41818647Y-41111858D01*
X42000972Y-41204756D01*
X42195587Y-41267991D01*
X42397685Y-41300000D01*
X42602315Y-41300000D01*
X42804412Y-41267991D01*
X42999027Y-41204756D01*
X43181342Y-41111863D01*
X43181350Y-41111858D01*
X43225920Y-41079475D01*
X42546445Y-40400000D01*
X42552661Y-40400000D01*
X42654394Y-40372741D01*
X42745606Y-40320080D01*
X42820080Y-40245606D01*
X42872741Y-40154394D01*
X42900000Y-40052661D01*
X42900000Y-40046445D01*
X43579475Y-40725920D01*
X43611858Y-40681350D01*
X43611863Y-40681342D01*
X43704756Y-40499027D01*
X43767991Y-40304412D01*
X43800000Y-40102315D01*
X43800000Y-39897684D01*
X43767991Y-39695587D01*
X43704756Y-39500972D01*
X43611858Y-39318647D01*
X43579475Y-39274078D01*
X42900000Y-39953553D01*
X42900000Y-39947339D01*
X42872741Y-39845606D01*
X42820080Y-39754394D01*
X42745606Y-39679920D01*
X42654394Y-39627259D01*
X42552661Y-39600000D01*
X42546445Y-39600000D01*
X43225920Y-38920524D01*
X43225920Y-38920523D01*
X43181353Y-38888143D01*
X43181348Y-38888139D01*
X42999027Y-38795243D01*
X42804412Y-38732008D01*
X42602315Y-38700000D01*
X42397685Y-38700000D01*
X42195587Y-38732008D01*
X42000972Y-38795243D01*
X41818651Y-38888139D01*
X41818647Y-38888141D01*
X41774078Y-38920523D01*
X42453555Y-39600000D01*
X42447339Y-39600000D01*
X42345606Y-39627259D01*
X42254394Y-39679920D01*
X42179920Y-39754394D01*
X42127259Y-39845606D01*
X42100000Y-39947339D01*
X42100000Y-39953555D01*
X41420523Y-39274078D01*
X41388141Y-39318647D01*
X41388139Y-39318651D01*
X41295241Y-39500976D01*
X41295239Y-39500979D01*
X41239270Y-39673234D01*
X41203306Y-39722734D01*
X41145115Y-39741641D01*
X41086925Y-39722733D01*
X41050961Y-39673234D01*
X41042257Y-39646445D01*
X41019873Y-39577555D01*
X40941232Y-39423212D01*
X40839414Y-39283072D01*
X40716928Y-39160586D01*
X40576788Y-39058768D01*
X40576787Y-39058767D01*
X40576785Y-39058766D01*
X40552642Y-39046465D01*
X40422441Y-38980125D01*
X40422438Y-38980123D01*
X40257706Y-38926598D01*
X40257702Y-38926597D01*
X40086614Y-38899500D01*
X40086611Y-38899500D01*
X39913389Y-38899500D01*
X39913386Y-38899500D01*
X39742297Y-38926597D01*
X39742293Y-38926598D01*
X39577561Y-38980123D01*
X39577558Y-38980125D01*
X39423214Y-39058766D01*
X39283073Y-39160585D01*
X39160585Y-39283073D01*
X39058766Y-39423214D01*
X38980125Y-39577558D01*
X38980123Y-39577561D01*
X38926598Y-39742293D01*
X38926597Y-39742297D01*
X38899500Y-39913385D01*
X34800000Y-39913385D01*
X34800000Y-39897684D01*
X34767991Y-39695587D01*
X34704756Y-39500972D01*
X34611858Y-39318647D01*
X34579475Y-39274078D01*
X33900000Y-39953553D01*
X33900000Y-39947339D01*
X33872741Y-39845606D01*
X33820080Y-39754394D01*
X33745606Y-39679920D01*
X33654394Y-39627259D01*
X33552661Y-39600000D01*
X33546445Y-39600000D01*
X34225920Y-38920524D01*
X34225920Y-38920523D01*
X34181353Y-38888143D01*
X34181348Y-38888139D01*
X33999027Y-38795243D01*
X33804412Y-38732008D01*
X33602315Y-38700000D01*
X33397685Y-38700000D01*
X33195587Y-38732008D01*
X33000972Y-38795243D01*
X32818651Y-38888139D01*
X32818647Y-38888141D01*
X32774078Y-38920523D01*
X33453555Y-39600000D01*
X33447339Y-39600000D01*
X33345606Y-39627259D01*
X33254394Y-39679920D01*
X33179920Y-39754394D01*
X33127259Y-39845606D01*
X33100000Y-39947339D01*
X33100000Y-39953555D01*
X32420523Y-39274078D01*
X32388141Y-39318647D01*
X32388139Y-39318651D01*
X32311557Y-39468953D01*
X32268292Y-39512218D01*
X32207860Y-39521789D01*
X32153343Y-39494011D01*
X32137611Y-39473508D01*
X32131420Y-39462784D01*
X32019616Y-39350980D01*
X31882684Y-39271923D01*
X31729957Y-39231000D01*
X31571843Y-39231000D01*
X31419116Y-39271923D01*
X31327894Y-39324590D01*
X31282181Y-39350982D01*
X31257996Y-39375167D01*
X31203479Y-39402943D01*
X31143047Y-39393371D01*
X31099784Y-39350106D01*
X31091979Y-39324451D01*
X31091433Y-39324590D01*
X31089877Y-39318437D01*
X31075931Y-39283073D01*
X31034361Y-39177658D01*
X30942922Y-39057078D01*
X30822342Y-38965639D01*
X30822341Y-38965638D01*
X30822339Y-38965637D01*
X30681565Y-38910123D01*
X30593106Y-38899500D01*
X30593102Y-38899500D01*
X29406898Y-38899500D01*
X29406893Y-38899500D01*
X29318434Y-38910123D01*
X29177660Y-38965637D01*
X29177656Y-38965640D01*
X29057081Y-39057075D01*
X29057075Y-39057081D01*
X28965640Y-39177656D01*
X28965637Y-39177660D01*
X28910123Y-39318434D01*
X28899500Y-39406893D01*
X25429616Y-39406893D01*
X25357815Y-39265978D01*
X25228242Y-39087635D01*
X25072365Y-38931758D01*
X24894022Y-38802185D01*
X24894021Y-38802184D01*
X24894019Y-38802183D01*
X24756293Y-38732008D01*
X24697606Y-38702105D01*
X24697602Y-38702104D01*
X24697599Y-38702102D01*
X24487948Y-38633984D01*
X24270225Y-38599500D01*
X24270222Y-38599500D01*
X24049778Y-38599500D01*
X24049775Y-38599500D01*
X23832051Y-38633984D01*
X23622400Y-38702102D01*
X23425980Y-38802183D01*
X23336806Y-38866971D01*
X23247635Y-38931758D01*
X23091758Y-39087635D01*
X23077763Y-39106898D01*
X22962183Y-39265980D01*
X22862102Y-39462400D01*
X22793984Y-39672051D01*
X22759500Y-39889774D01*
X15400499Y-39889774D01*
X15400499Y-39106898D01*
X15389877Y-39018435D01*
X15334361Y-38877657D01*
X15242923Y-38757077D01*
X15122343Y-38665639D01*
X14981566Y-38610123D01*
X14893104Y-38599500D01*
X13106901Y-38599500D01*
X13106891Y-38599501D01*
X13018435Y-38610123D01*
X13018429Y-38610124D01*
X12877656Y-38665639D01*
X12757080Y-38757074D01*
X12757074Y-38757080D01*
X12665639Y-38877656D01*
X12610123Y-39018433D01*
X12599500Y-39106892D01*
X600000Y-39106892D01*
X600000Y-30906893D01*
X3399500Y-30906893D01*
X3399500Y-33093106D01*
X3410123Y-33181565D01*
X3465637Y-33322339D01*
X3465638Y-33322341D01*
X3465639Y-33322342D01*
X3557078Y-33442922D01*
X3677658Y-33534361D01*
X3677659Y-33534361D01*
X3677660Y-33534362D01*
X3748047Y-33562119D01*
X3818436Y-33589877D01*
X3906898Y-33600500D01*
X3906900Y-33600500D01*
X6093100Y-33600500D01*
X6093102Y-33600500D01*
X6181564Y-33589877D01*
X6322342Y-33534361D01*
X6442922Y-33442922D01*
X6534361Y-33322342D01*
X6589877Y-33181564D01*
X6600500Y-33093102D01*
X6600500Y-31882021D01*
X8280000Y-31882021D01*
X8280000Y-32117978D01*
X8310798Y-32351908D01*
X8310798Y-32351913D01*
X8371867Y-32579824D01*
X8371871Y-32579837D01*
X8462163Y-32797824D01*
X8462165Y-32797829D01*
X8580142Y-33002169D01*
X8642720Y-33083724D01*
X9478957Y-32247486D01*
X9503978Y-32307890D01*
X9575112Y-32414351D01*
X9665649Y-32504888D01*
X9772110Y-32576022D01*
X9832510Y-32601041D01*
X8996274Y-33437278D01*
X8996273Y-33437278D01*
X9077830Y-33499857D01*
X9282170Y-33617834D01*
X9282175Y-33617836D01*
X9500162Y-33708128D01*
X9500175Y-33708132D01*
X9728088Y-33769201D01*
X9962021Y-33799999D01*
X9962023Y-33800000D01*
X10197977Y-33800000D01*
X10197978Y-33799999D01*
X10431908Y-33769201D01*
X10431913Y-33769201D01*
X10659824Y-33708132D01*
X10659837Y-33708128D01*
X10877824Y-33617836D01*
X10877829Y-33617834D01*
X11082165Y-33499860D01*
X11163724Y-33437278D01*
X10327487Y-32601041D01*
X10387890Y-32576022D01*
X10494351Y-32504888D01*
X10584888Y-32414351D01*
X10656022Y-32307890D01*
X10681041Y-32247487D01*
X11517278Y-33083724D01*
X11579860Y-33002165D01*
X11697834Y-32797829D01*
X11697836Y-32797824D01*
X11788128Y-32579837D01*
X11788132Y-32579824D01*
X11849201Y-32351913D01*
X11849201Y-32351908D01*
X11879999Y-32117978D01*
X11880000Y-32117977D01*
X11880000Y-31882023D01*
X11879999Y-31882021D01*
X11855837Y-31698486D01*
X11849201Y-31648089D01*
X11849201Y-31648086D01*
X11788132Y-31420175D01*
X11788128Y-31420162D01*
X11697836Y-31202175D01*
X11697834Y-31202170D01*
X11579857Y-30997830D01*
X11517278Y-30916274D01*
X10681041Y-31752510D01*
X10656022Y-31692110D01*
X10584888Y-31585649D01*
X10494351Y-31495112D01*
X10387890Y-31423978D01*
X10327486Y-31398957D01*
X11163724Y-30562720D01*
X11163725Y-30562720D01*
X11082169Y-30500142D01*
X10877829Y-30382165D01*
X10877824Y-30382163D01*
X10659837Y-30291871D01*
X10659824Y-30291867D01*
X10431911Y-30230798D01*
X10197978Y-30200000D01*
X9962021Y-30200000D01*
X9728091Y-30230798D01*
X9728086Y-30230798D01*
X9500175Y-30291867D01*
X9500162Y-30291871D01*
X9282175Y-30382163D01*
X9282170Y-30382165D01*
X9077831Y-30500141D01*
X8996274Y-30562720D01*
X9832512Y-31398958D01*
X9772110Y-31423978D01*
X9665649Y-31495112D01*
X9575112Y-31585649D01*
X9503978Y-31692110D01*
X9478958Y-31752512D01*
X8642720Y-30916274D01*
X8580141Y-30997831D01*
X8462165Y-31202170D01*
X8462163Y-31202175D01*
X8371871Y-31420162D01*
X8371867Y-31420175D01*
X8310798Y-31648086D01*
X8310798Y-31648091D01*
X8280000Y-31882021D01*
X6600500Y-31882021D01*
X6600500Y-30906898D01*
X6589877Y-30818436D01*
X6546735Y-30709035D01*
X6534362Y-30677660D01*
X6534361Y-30677659D01*
X6534361Y-30677658D01*
X6442922Y-30557078D01*
X6322342Y-30465639D01*
X6322341Y-30465638D01*
X6322339Y-30465637D01*
X6181565Y-30410123D01*
X6093106Y-30399500D01*
X6093102Y-30399500D01*
X3906898Y-30399500D01*
X3906893Y-30399500D01*
X3818434Y-30410123D01*
X3677660Y-30465637D01*
X3677656Y-30465640D01*
X3557081Y-30557075D01*
X3557075Y-30557081D01*
X3465640Y-30677656D01*
X3465637Y-30677660D01*
X3410123Y-30818434D01*
X3399500Y-30906893D01*
X600000Y-30906893D01*
X600000Y-29133749D01*
X28650000Y-29133749D01*
X28650000Y-29346250D01*
X28683240Y-29556121D01*
X28748904Y-29758215D01*
X28845376Y-29947553D01*
X28845380Y-29947559D01*
X28884728Y-30001716D01*
X28884729Y-30001716D01*
X29517037Y-29369407D01*
X29534075Y-29432993D01*
X29599901Y-29547007D01*
X29692993Y-29640099D01*
X29807007Y-29705925D01*
X29870589Y-29722962D01*
X29238282Y-30355269D01*
X29238282Y-30355270D01*
X29292440Y-30394619D01*
X29292446Y-30394623D01*
X29481786Y-30491096D01*
X29572983Y-30520727D01*
X29622483Y-30556691D01*
X29641391Y-30614881D01*
X29622484Y-30673072D01*
X29572988Y-30709035D01*
X29558366Y-30713786D01*
X29558364Y-30713787D01*
X29397008Y-30796002D01*
X29337257Y-30839414D01*
X29250499Y-30902447D01*
X29122447Y-31030499D01*
X29071589Y-31100500D01*
X29016002Y-31177008D01*
X28933788Y-31338362D01*
X28877828Y-31510593D01*
X28849500Y-31689450D01*
X28849500Y-31870549D01*
X28877828Y-32049406D01*
X28933788Y-32221637D01*
X29000164Y-32351908D01*
X29016004Y-32382994D01*
X29122447Y-32529501D01*
X29250499Y-32657553D01*
X29397006Y-32763996D01*
X29558361Y-32846211D01*
X29730591Y-32902171D01*
X29802136Y-32913502D01*
X29909451Y-32930500D01*
X29909454Y-32930500D01*
X30090549Y-32930500D01*
X30179977Y-32916335D01*
X30269409Y-32902171D01*
X30441639Y-32846211D01*
X30602994Y-32763996D01*
X30749501Y-32657553D01*
X30877553Y-32529501D01*
X30983996Y-32382994D01*
X31066211Y-32221639D01*
X31122171Y-32049409D01*
X31140136Y-31935981D01*
X31150500Y-31870549D01*
X31150500Y-31689450D01*
X31122171Y-31510593D01*
X31122171Y-31510591D01*
X31066211Y-31338361D01*
X30983996Y-31177006D01*
X30877553Y-31030499D01*
X30749501Y-30902447D01*
X30602994Y-30796004D01*
X30602993Y-30796003D01*
X30602991Y-30796002D01*
X30441637Y-30713788D01*
X30427013Y-30709036D01*
X30377514Y-30673071D01*
X30358608Y-30614880D01*
X30377517Y-30556689D01*
X30427016Y-30520727D01*
X30518213Y-30491096D01*
X30707556Y-30394620D01*
X30761716Y-30355270D01*
X30129408Y-29722962D01*
X30192993Y-29705925D01*
X30307007Y-29640099D01*
X30400099Y-29547007D01*
X30465925Y-29432993D01*
X30482962Y-29369408D01*
X31115270Y-30001716D01*
X31154624Y-29947551D01*
X31172032Y-29913385D01*
X42899500Y-29913385D01*
X42899500Y-30086614D01*
X42926597Y-30257702D01*
X42926598Y-30257706D01*
X42980123Y-30422438D01*
X42980125Y-30422441D01*
X43048726Y-30557081D01*
X43058768Y-30576788D01*
X43160586Y-30716928D01*
X43283072Y-30839414D01*
X43423212Y-30941232D01*
X43577555Y-31019873D01*
X43577557Y-31019873D01*
X43577558Y-31019874D01*
X43577561Y-31019876D01*
X43742293Y-31073401D01*
X43742297Y-31073402D01*
X43913386Y-31100500D01*
X43913389Y-31100500D01*
X44086614Y-31100500D01*
X44257702Y-31073402D01*
X44257706Y-31073401D01*
X44422438Y-31019876D01*
X44422440Y-31019874D01*
X44422445Y-31019873D01*
X44576788Y-30941232D01*
X44716928Y-30839414D01*
X44839414Y-30716928D01*
X44941232Y-30576788D01*
X45019873Y-30422445D01*
X45019874Y-30422440D01*
X45019876Y-30422438D01*
X45073401Y-30257706D01*
X45073402Y-30257702D01*
X45100500Y-30086614D01*
X45100500Y-29913385D01*
X50519500Y-29913385D01*
X50519500Y-30086614D01*
X50546597Y-30257702D01*
X50546598Y-30257706D01*
X50600123Y-30422438D01*
X50600125Y-30422441D01*
X50668726Y-30557081D01*
X50678768Y-30576788D01*
X50780586Y-30716928D01*
X50903072Y-30839414D01*
X51043212Y-30941232D01*
X51197555Y-31019873D01*
X51197557Y-31019873D01*
X51197558Y-31019874D01*
X51197561Y-31019876D01*
X51362293Y-31073401D01*
X51362297Y-31073402D01*
X51533386Y-31100500D01*
X51533389Y-31100500D01*
X51706614Y-31100500D01*
X51877702Y-31073402D01*
X51877706Y-31073401D01*
X52042438Y-31019876D01*
X52042440Y-31019874D01*
X52042445Y-31019873D01*
X52183850Y-30947824D01*
X54599999Y-30947824D01*
X54606401Y-31007370D01*
X54606403Y-31007381D01*
X54656646Y-31142088D01*
X54656647Y-31142090D01*
X54742807Y-31257184D01*
X54742815Y-31257192D01*
X54857909Y-31343352D01*
X54857911Y-31343353D01*
X54992618Y-31393596D01*
X54992629Y-31393598D01*
X55052176Y-31400000D01*
X55749999Y-31400000D01*
X55750000Y-31399999D01*
X55750000Y-30375277D01*
X55826306Y-30419333D01*
X55940756Y-30450000D01*
X56059244Y-30450000D01*
X56173694Y-30419333D01*
X56250000Y-30375277D01*
X56250000Y-31399999D01*
X56250001Y-31400000D01*
X56947824Y-31400000D01*
X57007370Y-31393598D01*
X57007381Y-31393596D01*
X57142088Y-31343353D01*
X57142090Y-31343352D01*
X57257184Y-31257192D01*
X57257192Y-31257184D01*
X57343352Y-31142090D01*
X57343353Y-31142088D01*
X57393596Y-31007381D01*
X57393598Y-31007370D01*
X57400000Y-30947824D01*
X57400000Y-30778027D01*
X57418907Y-30719836D01*
X57468407Y-30683872D01*
X57529593Y-30683872D01*
X57579090Y-30719834D01*
X57624310Y-30782073D01*
X57757927Y-30915690D01*
X57910801Y-31026760D01*
X58079168Y-31112547D01*
X58258882Y-31170940D01*
X58258883Y-31170940D01*
X58258886Y-31170941D01*
X58445516Y-31200500D01*
X58445519Y-31200500D01*
X58634484Y-31200500D01*
X58821113Y-31170941D01*
X58821114Y-31170940D01*
X58821118Y-31170940D01*
X59000832Y-31112547D01*
X59169199Y-31026760D01*
X59322073Y-30915690D01*
X59455690Y-30782073D01*
X59566760Y-30629199D01*
X59652547Y-30460832D01*
X59710940Y-30281118D01*
X59714649Y-30257701D01*
X59740500Y-30094484D01*
X59740500Y-29905515D01*
X59710941Y-29718886D01*
X59706730Y-29705925D01*
X59652547Y-29539168D01*
X59566760Y-29370801D01*
X59455690Y-29217927D01*
X59322073Y-29084310D01*
X59169199Y-28973240D01*
X59169198Y-28973239D01*
X59169196Y-28973238D01*
X59000832Y-28887453D01*
X58821113Y-28829058D01*
X58634484Y-28799500D01*
X58634481Y-28799500D01*
X58445519Y-28799500D01*
X58445516Y-28799500D01*
X58258886Y-28829058D01*
X58079167Y-28887453D01*
X57910803Y-28973238D01*
X57757928Y-29084309D01*
X57624305Y-29217932D01*
X57579092Y-29280163D01*
X57529592Y-29316127D01*
X57468407Y-29316126D01*
X57418907Y-29280162D01*
X57400000Y-29221972D01*
X57400000Y-29052175D01*
X57393598Y-28992629D01*
X57393596Y-28992618D01*
X57343353Y-28857911D01*
X57343352Y-28857909D01*
X57257192Y-28742815D01*
X57257184Y-28742807D01*
X57142090Y-28656647D01*
X57142088Y-28656646D01*
X57007381Y-28606403D01*
X57007370Y-28606401D01*
X56947824Y-28600000D01*
X56250001Y-28600000D01*
X56250000Y-28600001D01*
X56250000Y-29624722D01*
X56173694Y-29580667D01*
X56059244Y-29550000D01*
X55940756Y-29550000D01*
X55826306Y-29580667D01*
X55750000Y-29624722D01*
X55750000Y-28600001D01*
X55749999Y-28600000D01*
X55052176Y-28600000D01*
X54992629Y-28606401D01*
X54992618Y-28606403D01*
X54857911Y-28656646D01*
X54857909Y-28656647D01*
X54742815Y-28742807D01*
X54742807Y-28742815D01*
X54656647Y-28857909D01*
X54656646Y-28857911D01*
X54606403Y-28992618D01*
X54606401Y-28992629D01*
X54600000Y-29052175D01*
X54600000Y-29749999D01*
X54600001Y-29750000D01*
X55624722Y-29750000D01*
X55580667Y-29826306D01*
X55550000Y-29940756D01*
X55550000Y-30059244D01*
X55580667Y-30173694D01*
X55624722Y-30250000D01*
X54600001Y-30250000D01*
X54600000Y-30250001D01*
X54600000Y-30947824D01*
X54599999Y-30947824D01*
X52183850Y-30947824D01*
X52196788Y-30941232D01*
X52336928Y-30839414D01*
X52459414Y-30716928D01*
X52561232Y-30576788D01*
X52639873Y-30422445D01*
X52639874Y-30422440D01*
X52639876Y-30422438D01*
X52693401Y-30257706D01*
X52693402Y-30257702D01*
X52703570Y-30193506D01*
X52720500Y-30086614D01*
X52720500Y-29913385D01*
X52693402Y-29742297D01*
X52693401Y-29742293D01*
X52639876Y-29577561D01*
X52639874Y-29577558D01*
X52639873Y-29577557D01*
X52639873Y-29577555D01*
X52561232Y-29423212D01*
X52459414Y-29283072D01*
X52336928Y-29160586D01*
X52196788Y-29058768D01*
X52196787Y-29058767D01*
X52196785Y-29058766D01*
X52042441Y-28980125D01*
X52042438Y-28980123D01*
X51877706Y-28926598D01*
X51877702Y-28926597D01*
X51706614Y-28899500D01*
X51706611Y-28899500D01*
X51533389Y-28899500D01*
X51533386Y-28899500D01*
X51362297Y-28926597D01*
X51362293Y-28926598D01*
X51197561Y-28980123D01*
X51197558Y-28980125D01*
X51043214Y-29058766D01*
X50903073Y-29160585D01*
X50780585Y-29283073D01*
X50678766Y-29423214D01*
X50600125Y-29577558D01*
X50600123Y-29577561D01*
X50546598Y-29742293D01*
X50546597Y-29742297D01*
X50519500Y-29913385D01*
X45100500Y-29913385D01*
X45073402Y-29742297D01*
X45073401Y-29742293D01*
X45019876Y-29577561D01*
X45019874Y-29577558D01*
X45019873Y-29577557D01*
X45019873Y-29577555D01*
X44941232Y-29423212D01*
X44839414Y-29283072D01*
X44716928Y-29160586D01*
X44576788Y-29058768D01*
X44576787Y-29058767D01*
X44576785Y-29058766D01*
X44422441Y-28980125D01*
X44422438Y-28980123D01*
X44257706Y-28926598D01*
X44257702Y-28926597D01*
X44086614Y-28899500D01*
X44086611Y-28899500D01*
X43913389Y-28899500D01*
X43913386Y-28899500D01*
X43742297Y-28926597D01*
X43742293Y-28926598D01*
X43577561Y-28980123D01*
X43577558Y-28980125D01*
X43423214Y-29058766D01*
X43283073Y-29160585D01*
X43160585Y-29283073D01*
X43058766Y-29423214D01*
X42980125Y-29577558D01*
X42980123Y-29577561D01*
X42926598Y-29742293D01*
X42926597Y-29742297D01*
X42899500Y-29913385D01*
X31172032Y-29913385D01*
X31196908Y-29864564D01*
X31196913Y-29864554D01*
X31251095Y-29758215D01*
X31316759Y-29556121D01*
X31350000Y-29346250D01*
X31350000Y-29133749D01*
X31316759Y-28923878D01*
X31251095Y-28721784D01*
X31154623Y-28532446D01*
X31154619Y-28532440D01*
X31115270Y-28478282D01*
X31115269Y-28478282D01*
X30482962Y-29110589D01*
X30465925Y-29047007D01*
X30400099Y-28932993D01*
X30307007Y-28839901D01*
X30192993Y-28774075D01*
X30129407Y-28757037D01*
X30761716Y-28124729D01*
X30761716Y-28124728D01*
X30707559Y-28085380D01*
X30707553Y-28085376D01*
X30518215Y-27988904D01*
X30427015Y-27959272D01*
X30377515Y-27923308D01*
X30358608Y-27865117D01*
X30377515Y-27806926D01*
X30427013Y-27770962D01*
X30427017Y-27770962D01*
X30427018Y-27770962D01*
X30441633Y-27766213D01*
X30441633Y-27766212D01*
X30441639Y-27766211D01*
X30602994Y-27683996D01*
X30749501Y-27577553D01*
X30877553Y-27449501D01*
X30983996Y-27302994D01*
X31066211Y-27141639D01*
X31122171Y-26969409D01*
X31150500Y-26790546D01*
X31150500Y-26609454D01*
X31150500Y-26609450D01*
X31122171Y-26430593D01*
X31122171Y-26430591D01*
X31066211Y-26258361D01*
X30983996Y-26097006D01*
X30877553Y-25950499D01*
X30749501Y-25822447D01*
X30602994Y-25716004D01*
X30602993Y-25716003D01*
X30602991Y-25716002D01*
X30441637Y-25633788D01*
X30269406Y-25577828D01*
X30090549Y-25549500D01*
X30090546Y-25549500D01*
X29909454Y-25549500D01*
X29909451Y-25549500D01*
X29730593Y-25577828D01*
X29558362Y-25633788D01*
X29397008Y-25716002D01*
X29323752Y-25769225D01*
X29250499Y-25822447D01*
X29122447Y-25950499D01*
X29072044Y-26019873D01*
X29016002Y-26097008D01*
X28933788Y-26258362D01*
X28877828Y-26430593D01*
X28849500Y-26609450D01*
X28849500Y-26790549D01*
X28877828Y-26969406D01*
X28877829Y-26969409D01*
X28933789Y-27141639D01*
X29016004Y-27302994D01*
X29122447Y-27449501D01*
X29250499Y-27577553D01*
X29397006Y-27683996D01*
X29558361Y-27766211D01*
X29569483Y-27769824D01*
X29572983Y-27770962D01*
X29622483Y-27806926D01*
X29641391Y-27865116D01*
X29622484Y-27923307D01*
X29572985Y-27959271D01*
X29572984Y-27959272D01*
X29481784Y-27988904D01*
X29292446Y-28085376D01*
X29292442Y-28085378D01*
X29238282Y-28124728D01*
X29870591Y-28757037D01*
X29807007Y-28774075D01*
X29692993Y-28839901D01*
X29599901Y-28932993D01*
X29534075Y-29047007D01*
X29517037Y-29110591D01*
X28884728Y-28478282D01*
X28845378Y-28532442D01*
X28845376Y-28532446D01*
X28748904Y-28721784D01*
X28683240Y-28923878D01*
X28650000Y-29133749D01*
X600000Y-29133749D01*
X600000Y-24069450D01*
X28849500Y-24069450D01*
X28849500Y-24250549D01*
X28877828Y-24429406D01*
X28925965Y-24577561D01*
X28933789Y-24601639D01*
X29016004Y-24762994D01*
X29122447Y-24909501D01*
X29250499Y-25037553D01*
X29397006Y-25143996D01*
X29558361Y-25226211D01*
X29730591Y-25282171D01*
X29802136Y-25293502D01*
X29909451Y-25310500D01*
X29909454Y-25310500D01*
X30090549Y-25310500D01*
X30179977Y-25296335D01*
X30269409Y-25282171D01*
X30441639Y-25226211D01*
X30602994Y-25143996D01*
X30749501Y-25037553D01*
X30873669Y-24913385D01*
X42899500Y-24913385D01*
X42899500Y-25086614D01*
X42926597Y-25257702D01*
X42926598Y-25257706D01*
X42980123Y-25422438D01*
X42980125Y-25422441D01*
X42980126Y-25422444D01*
X42980127Y-25422445D01*
X43058768Y-25576788D01*
X43160586Y-25716928D01*
X43283072Y-25839414D01*
X43423212Y-25941232D01*
X43577555Y-26019873D01*
X43577557Y-26019873D01*
X43577558Y-26019874D01*
X43577561Y-26019876D01*
X43742293Y-26073401D01*
X43742297Y-26073402D01*
X43913386Y-26100500D01*
X43913389Y-26100500D01*
X44086614Y-26100500D01*
X44257702Y-26073402D01*
X44257706Y-26073401D01*
X44422438Y-26019876D01*
X44422440Y-26019874D01*
X44422445Y-26019873D01*
X44576788Y-25941232D01*
X44716928Y-25839414D01*
X44839414Y-25716928D01*
X44941232Y-25576788D01*
X45019873Y-25422445D01*
X45019874Y-25422440D01*
X45019876Y-25422438D01*
X45073401Y-25257706D01*
X45073402Y-25257702D01*
X45100500Y-25086614D01*
X45100500Y-24913385D01*
X50519500Y-24913385D01*
X50519500Y-25086614D01*
X50546597Y-25257702D01*
X50546598Y-25257706D01*
X50600123Y-25422438D01*
X50600125Y-25422441D01*
X50600126Y-25422444D01*
X50600127Y-25422445D01*
X50678768Y-25576788D01*
X50780586Y-25716928D01*
X50903072Y-25839414D01*
X51043212Y-25941232D01*
X51197555Y-26019873D01*
X51197557Y-26019873D01*
X51197558Y-26019874D01*
X51197561Y-26019876D01*
X51362293Y-26073401D01*
X51362297Y-26073402D01*
X51533386Y-26100500D01*
X51533389Y-26100500D01*
X51706614Y-26100500D01*
X51877702Y-26073402D01*
X51877706Y-26073401D01*
X52042438Y-26019876D01*
X52042440Y-26019874D01*
X52042445Y-26019873D01*
X52196788Y-25941232D01*
X52336928Y-25839414D01*
X52459414Y-25716928D01*
X52561232Y-25576788D01*
X52639873Y-25422445D01*
X52639874Y-25422440D01*
X52639876Y-25422438D01*
X52693401Y-25257706D01*
X52693402Y-25257702D01*
X52720500Y-25086614D01*
X52720500Y-24913385D01*
X52693402Y-24742297D01*
X52693401Y-24742293D01*
X52639876Y-24577561D01*
X52639874Y-24577558D01*
X52639873Y-24577557D01*
X52639873Y-24577555D01*
X52561232Y-24423212D01*
X52459414Y-24283072D01*
X52336928Y-24160586D01*
X52196788Y-24058768D01*
X52196787Y-24058767D01*
X52196785Y-24058766D01*
X52042441Y-23980125D01*
X52042438Y-23980123D01*
X51877706Y-23926598D01*
X51877702Y-23926597D01*
X51706614Y-23899500D01*
X51706611Y-23899500D01*
X51533389Y-23899500D01*
X51533386Y-23899500D01*
X51362297Y-23926597D01*
X51362293Y-23926598D01*
X51197561Y-23980123D01*
X51197558Y-23980125D01*
X51043214Y-24058766D01*
X50903073Y-24160585D01*
X50780585Y-24283073D01*
X50678766Y-24423214D01*
X50600125Y-24577558D01*
X50600123Y-24577561D01*
X50546598Y-24742293D01*
X50546597Y-24742297D01*
X50519500Y-24913385D01*
X45100500Y-24913385D01*
X45073402Y-24742297D01*
X45073401Y-24742293D01*
X45019876Y-24577561D01*
X45019874Y-24577558D01*
X45019873Y-24577557D01*
X45019873Y-24577555D01*
X44941232Y-24423212D01*
X44839414Y-24283072D01*
X44716928Y-24160586D01*
X44576788Y-24058768D01*
X44576787Y-24058767D01*
X44576785Y-24058766D01*
X44422441Y-23980125D01*
X44422438Y-23980123D01*
X44257706Y-23926598D01*
X44257702Y-23926597D01*
X44086614Y-23899500D01*
X44086611Y-23899500D01*
X43913389Y-23899500D01*
X43913386Y-23899500D01*
X43742297Y-23926597D01*
X43742293Y-23926598D01*
X43577561Y-23980123D01*
X43577558Y-23980125D01*
X43423214Y-24058766D01*
X43283073Y-24160585D01*
X43160585Y-24283073D01*
X43058766Y-24423214D01*
X42980125Y-24577558D01*
X42980123Y-24577561D01*
X42926598Y-24742293D01*
X42926597Y-24742297D01*
X42899500Y-24913385D01*
X30873669Y-24913385D01*
X30877553Y-24909501D01*
X30983996Y-24762994D01*
X31066211Y-24601639D01*
X31122171Y-24429409D01*
X31136335Y-24339977D01*
X31150500Y-24250549D01*
X31150500Y-24069450D01*
X31122171Y-23890593D01*
X31122171Y-23890591D01*
X31066211Y-23718361D01*
X30983996Y-23557006D01*
X30877553Y-23410499D01*
X30749501Y-23282447D01*
X30602994Y-23176004D01*
X30602993Y-23176003D01*
X30602991Y-23176002D01*
X30441637Y-23093788D01*
X30269406Y-23037828D01*
X30090549Y-23009500D01*
X30090546Y-23009500D01*
X29909454Y-23009500D01*
X29909451Y-23009500D01*
X29730593Y-23037828D01*
X29558362Y-23093788D01*
X29397008Y-23176002D01*
X29323752Y-23229225D01*
X29250499Y-23282447D01*
X29122447Y-23410499D01*
X29069225Y-23483752D01*
X29016002Y-23557008D01*
X28933788Y-23718362D01*
X28877828Y-23890593D01*
X28849500Y-24069450D01*
X600000Y-24069450D01*
X600000Y-22433749D01*
X8650000Y-22433749D01*
X8650000Y-22646250D01*
X8683240Y-22856121D01*
X8748904Y-23058215D01*
X8845376Y-23247553D01*
X8845380Y-23247559D01*
X8884728Y-23301716D01*
X8884729Y-23301716D01*
X9517037Y-22669407D01*
X9534075Y-22732993D01*
X9599901Y-22847007D01*
X9692993Y-22940099D01*
X9807007Y-23005925D01*
X9870589Y-23022962D01*
X9238282Y-23655269D01*
X9238282Y-23655270D01*
X9292440Y-23694619D01*
X9292446Y-23694623D01*
X9481784Y-23791095D01*
X9683878Y-23856759D01*
X9893750Y-23890000D01*
X10106250Y-23890000D01*
X10316121Y-23856759D01*
X10518215Y-23791095D01*
X10707556Y-23694620D01*
X10761716Y-23655270D01*
X10129408Y-23022962D01*
X10192993Y-23005925D01*
X10307007Y-22940099D01*
X10400099Y-22847007D01*
X10465925Y-22732993D01*
X10482962Y-22669408D01*
X11115270Y-23301716D01*
X11154620Y-23247556D01*
X11251095Y-23058215D01*
X11316759Y-22856121D01*
X11350000Y-22646250D01*
X11350000Y-22433749D01*
X11316759Y-22223878D01*
X11251095Y-22021784D01*
X11154623Y-21832446D01*
X11154619Y-21832440D01*
X11115270Y-21778282D01*
X11115269Y-21778282D01*
X10482962Y-22410589D01*
X10465925Y-22347007D01*
X10400099Y-22232993D01*
X10307007Y-22139901D01*
X10192993Y-22074075D01*
X10129408Y-22057037D01*
X10656996Y-21529450D01*
X28849500Y-21529450D01*
X28849500Y-21710549D01*
X28877828Y-21889406D01*
X28920839Y-22021784D01*
X28933789Y-22061639D01*
X29016004Y-22222994D01*
X29122447Y-22369501D01*
X29250499Y-22497553D01*
X29397006Y-22603996D01*
X29558361Y-22686211D01*
X29730591Y-22742171D01*
X29802136Y-22753502D01*
X29909451Y-22770500D01*
X29909454Y-22770500D01*
X30090549Y-22770500D01*
X30179977Y-22756335D01*
X30269409Y-22742171D01*
X30441639Y-22686211D01*
X30602994Y-22603996D01*
X30749501Y-22497553D01*
X30877553Y-22369501D01*
X30983996Y-22222994D01*
X31066211Y-22061639D01*
X31122171Y-21889409D01*
X31150500Y-21710546D01*
X31150500Y-21529454D01*
X31150500Y-21529450D01*
X31122171Y-21350593D01*
X31122171Y-21350591D01*
X31066211Y-21178361D01*
X30983996Y-21017006D01*
X30877553Y-20870499D01*
X30749501Y-20742447D01*
X30602994Y-20636004D01*
X30602993Y-20636003D01*
X30602991Y-20636002D01*
X30441637Y-20553788D01*
X30269406Y-20497828D01*
X30090549Y-20469500D01*
X30090546Y-20469500D01*
X29909454Y-20469500D01*
X29909451Y-20469500D01*
X29730593Y-20497828D01*
X29558362Y-20553788D01*
X29397008Y-20636002D01*
X29323752Y-20689225D01*
X29250499Y-20742447D01*
X29122447Y-20870499D01*
X29086490Y-20919990D01*
X29016002Y-21017008D01*
X28933788Y-21178362D01*
X28877828Y-21350593D01*
X28849500Y-21529450D01*
X10656996Y-21529450D01*
X10730886Y-21455560D01*
X10761716Y-21424729D01*
X10761716Y-21424728D01*
X10707559Y-21385380D01*
X10707553Y-21385376D01*
X10614000Y-21337709D01*
X10570735Y-21294444D01*
X10561164Y-21234012D01*
X10588941Y-21179496D01*
X10643458Y-21151718D01*
X10658943Y-21150499D01*
X10894864Y-21150499D01*
X10919991Y-21147585D01*
X11022765Y-21102206D01*
X11102206Y-21022765D01*
X11147585Y-20919991D01*
X11150500Y-20894865D01*
X11150499Y-19105136D01*
X11147585Y-19080009D01*
X11102206Y-18977235D01*
X11022765Y-18897794D01*
X10919991Y-18852415D01*
X10919990Y-18852414D01*
X10919988Y-18852414D01*
X10894868Y-18849500D01*
X9105139Y-18849500D01*
X9105136Y-18849501D01*
X9080009Y-18852414D01*
X8977235Y-18897794D01*
X8897794Y-18977235D01*
X8852414Y-19080011D01*
X8849500Y-19105130D01*
X8849500Y-20894860D01*
X8849501Y-20894863D01*
X8852414Y-20919990D01*
X8861794Y-20941233D01*
X8897794Y-21022765D01*
X8977235Y-21102206D01*
X9080009Y-21147585D01*
X9105135Y-21150500D01*
X9341055Y-21150499D01*
X9399243Y-21169406D01*
X9435207Y-21218906D01*
X9435208Y-21280091D01*
X9399244Y-21329591D01*
X9385999Y-21337708D01*
X9292451Y-21385373D01*
X9292442Y-21385378D01*
X9238282Y-21424728D01*
X9870591Y-22057037D01*
X9807007Y-22074075D01*
X9692993Y-22139901D01*
X9599901Y-22232993D01*
X9534075Y-22347007D01*
X9517037Y-22410591D01*
X8884728Y-21778282D01*
X8845378Y-21832442D01*
X8845376Y-21832446D01*
X8748904Y-22021784D01*
X8683240Y-22223878D01*
X8650000Y-22433749D01*
X600000Y-22433749D01*
X600000Y-16433749D01*
X28650000Y-16433749D01*
X28650000Y-16646250D01*
X28683240Y-16856121D01*
X28748904Y-17058215D01*
X28845376Y-17247553D01*
X28845380Y-17247559D01*
X28884728Y-17301716D01*
X28884729Y-17301716D01*
X29517037Y-16669407D01*
X29534075Y-16732993D01*
X29599901Y-16847007D01*
X29692993Y-16940099D01*
X29807007Y-17005925D01*
X29870589Y-17022962D01*
X29238282Y-17655269D01*
X29238282Y-17655270D01*
X29292440Y-17694619D01*
X29292446Y-17694623D01*
X29481786Y-17791096D01*
X29572983Y-17820727D01*
X29622483Y-17856691D01*
X29641391Y-17914881D01*
X29622484Y-17973072D01*
X29572988Y-18009035D01*
X29558366Y-18013786D01*
X29558364Y-18013787D01*
X29397008Y-18096002D01*
X29323752Y-18149225D01*
X29250499Y-18202447D01*
X29122447Y-18330499D01*
X29069225Y-18403752D01*
X29016002Y-18477008D01*
X28933788Y-18638362D01*
X28877828Y-18810593D01*
X28849500Y-18989450D01*
X28849500Y-19170549D01*
X28877828Y-19349406D01*
X28901808Y-19423212D01*
X28933789Y-19521639D01*
X29016004Y-19682994D01*
X29122447Y-19829501D01*
X29250499Y-19957553D01*
X29397006Y-20063996D01*
X29558361Y-20146211D01*
X29730591Y-20202171D01*
X29802136Y-20213502D01*
X29909451Y-20230500D01*
X29909454Y-20230500D01*
X30090549Y-20230500D01*
X30179977Y-20216335D01*
X30269409Y-20202171D01*
X30441639Y-20146211D01*
X30602994Y-20063996D01*
X30749501Y-19957553D01*
X30793669Y-19913385D01*
X42899500Y-19913385D01*
X42899500Y-20086614D01*
X42926597Y-20257702D01*
X42926598Y-20257706D01*
X42980123Y-20422438D01*
X42980125Y-20422441D01*
X43047049Y-20553789D01*
X43058768Y-20576788D01*
X43160586Y-20716928D01*
X43283072Y-20839414D01*
X43423212Y-20941232D01*
X43577555Y-21019873D01*
X43577557Y-21019873D01*
X43577558Y-21019874D01*
X43577561Y-21019876D01*
X43742293Y-21073401D01*
X43742297Y-21073402D01*
X43913386Y-21100500D01*
X43913389Y-21100500D01*
X44086614Y-21100500D01*
X44257702Y-21073402D01*
X44257706Y-21073401D01*
X44422438Y-21019876D01*
X44422440Y-21019874D01*
X44422445Y-21019873D01*
X44576788Y-20941232D01*
X44716928Y-20839414D01*
X44839414Y-20716928D01*
X44941232Y-20576788D01*
X45019873Y-20422445D01*
X45019874Y-20422440D01*
X45019876Y-20422438D01*
X45073401Y-20257706D01*
X45073402Y-20257702D01*
X45100500Y-20086614D01*
X45100500Y-19913385D01*
X50519500Y-19913385D01*
X50519500Y-20086614D01*
X50546597Y-20257702D01*
X50546598Y-20257706D01*
X50600123Y-20422438D01*
X50600125Y-20422441D01*
X50667049Y-20553789D01*
X50678768Y-20576788D01*
X50780586Y-20716928D01*
X50903072Y-20839414D01*
X51043212Y-20941232D01*
X51197555Y-21019873D01*
X51197557Y-21019873D01*
X51197558Y-21019874D01*
X51197561Y-21019876D01*
X51362293Y-21073401D01*
X51362297Y-21073402D01*
X51533386Y-21100500D01*
X51533389Y-21100500D01*
X51706614Y-21100500D01*
X51877702Y-21073402D01*
X51877706Y-21073401D01*
X52042438Y-21019876D01*
X52042440Y-21019874D01*
X52042445Y-21019873D01*
X52196788Y-20941232D01*
X52336928Y-20839414D01*
X52459414Y-20716928D01*
X52561232Y-20576788D01*
X52639873Y-20422445D01*
X52639874Y-20422440D01*
X52639876Y-20422438D01*
X52693401Y-20257706D01*
X52693402Y-20257702D01*
X52720500Y-20086614D01*
X52720500Y-19913385D01*
X52693402Y-19742297D01*
X52693401Y-19742293D01*
X52639876Y-19577561D01*
X52639874Y-19577558D01*
X52639873Y-19577557D01*
X52639873Y-19577555D01*
X52561232Y-19423212D01*
X52459414Y-19283072D01*
X52336928Y-19160586D01*
X52196788Y-19058768D01*
X52196787Y-19058767D01*
X52196785Y-19058766D01*
X52042441Y-18980125D01*
X52042438Y-18980123D01*
X51877706Y-18926598D01*
X51877702Y-18926597D01*
X51706614Y-18899500D01*
X51706611Y-18899500D01*
X51533389Y-18899500D01*
X51533386Y-18899500D01*
X51362297Y-18926597D01*
X51362293Y-18926598D01*
X51197561Y-18980123D01*
X51197558Y-18980125D01*
X51043214Y-19058766D01*
X50903073Y-19160585D01*
X50780585Y-19283073D01*
X50678766Y-19423214D01*
X50600125Y-19577558D01*
X50600123Y-19577561D01*
X50546598Y-19742293D01*
X50546597Y-19742297D01*
X50519500Y-19913385D01*
X45100500Y-19913385D01*
X45073402Y-19742297D01*
X45073401Y-19742293D01*
X45019876Y-19577561D01*
X45019874Y-19577558D01*
X45019873Y-19577557D01*
X45019873Y-19577555D01*
X44941232Y-19423212D01*
X44839414Y-19283072D01*
X44716928Y-19160586D01*
X44576788Y-19058768D01*
X44576787Y-19058767D01*
X44576785Y-19058766D01*
X44422441Y-18980125D01*
X44422438Y-18980123D01*
X44257706Y-18926598D01*
X44257702Y-18926597D01*
X44086614Y-18899500D01*
X44086611Y-18899500D01*
X43913389Y-18899500D01*
X43913386Y-18899500D01*
X43742297Y-18926597D01*
X43742293Y-18926598D01*
X43577561Y-18980123D01*
X43577558Y-18980125D01*
X43423214Y-19058766D01*
X43283073Y-19160585D01*
X43160585Y-19283073D01*
X43058766Y-19423214D01*
X42980125Y-19577558D01*
X42980123Y-19577561D01*
X42926598Y-19742293D01*
X42926597Y-19742297D01*
X42899500Y-19913385D01*
X30793669Y-19913385D01*
X30877553Y-19829501D01*
X30983996Y-19682994D01*
X31066211Y-19521639D01*
X31122171Y-19349409D01*
X31150500Y-19170546D01*
X31150500Y-18989454D01*
X31150500Y-18989450D01*
X31128334Y-18849501D01*
X31122171Y-18810591D01*
X31066211Y-18638361D01*
X30983996Y-18477006D01*
X30877553Y-18330499D01*
X30749501Y-18202447D01*
X30602994Y-18096004D01*
X30602993Y-18096003D01*
X30602991Y-18096002D01*
X30441637Y-18013788D01*
X30427013Y-18009036D01*
X30377514Y-17973071D01*
X30358608Y-17914880D01*
X30377517Y-17856689D01*
X30427016Y-17820727D01*
X30518213Y-17791096D01*
X30707556Y-17694620D01*
X30761716Y-17655270D01*
X30129408Y-17022962D01*
X30192993Y-17005925D01*
X30307007Y-16940099D01*
X30400099Y-16847007D01*
X30465925Y-16732993D01*
X30482962Y-16669408D01*
X31115270Y-17301716D01*
X31154620Y-17247556D01*
X31251095Y-17058215D01*
X31316759Y-16856121D01*
X31350000Y-16646250D01*
X31350000Y-16433749D01*
X31316759Y-16223878D01*
X31251095Y-16021784D01*
X31154623Y-15832446D01*
X31154619Y-15832440D01*
X31115270Y-15778282D01*
X31115269Y-15778282D01*
X30482962Y-16410589D01*
X30465925Y-16347007D01*
X30400099Y-16232993D01*
X30307007Y-16139901D01*
X30192993Y-16074075D01*
X30129407Y-16057037D01*
X30761716Y-15424729D01*
X30761716Y-15424728D01*
X30707559Y-15385380D01*
X30707553Y-15385376D01*
X30614000Y-15337709D01*
X30570735Y-15294444D01*
X30561164Y-15234012D01*
X30588941Y-15179496D01*
X30643458Y-15151718D01*
X30658943Y-15150499D01*
X30894864Y-15150499D01*
X30919991Y-15147585D01*
X31022765Y-15102206D01*
X31102206Y-15022765D01*
X31147585Y-14919991D01*
X31150500Y-14894865D01*
X31150499Y-13105136D01*
X31147585Y-13080009D01*
X31102206Y-12977235D01*
X31022765Y-12897794D01*
X30919991Y-12852415D01*
X30919990Y-12852414D01*
X30919988Y-12852414D01*
X30894868Y-12849500D01*
X29105139Y-12849500D01*
X29105136Y-12849501D01*
X29080009Y-12852414D01*
X28977235Y-12897794D01*
X28897794Y-12977235D01*
X28852414Y-13080011D01*
X28849500Y-13105130D01*
X28849500Y-14894860D01*
X28849501Y-14894863D01*
X28852414Y-14919990D01*
X28877756Y-14977385D01*
X28897794Y-15022765D01*
X28977235Y-15102206D01*
X29080009Y-15147585D01*
X29105135Y-15150500D01*
X29341055Y-15150499D01*
X29399243Y-15169406D01*
X29435207Y-15218906D01*
X29435208Y-15280091D01*
X29399244Y-15329591D01*
X29385999Y-15337708D01*
X29292451Y-15385373D01*
X29292442Y-15385378D01*
X29238282Y-15424728D01*
X29870591Y-16057037D01*
X29807007Y-16074075D01*
X29692993Y-16139901D01*
X29599901Y-16232993D01*
X29534075Y-16347007D01*
X29517037Y-16410591D01*
X28884728Y-15778282D01*
X28845378Y-15832442D01*
X28845376Y-15832446D01*
X28748904Y-16021784D01*
X28683240Y-16223878D01*
X28650000Y-16433749D01*
X600000Y-16433749D01*
X600000Y-8973749D01*
X13650000Y-8973749D01*
X13650000Y-9186250D01*
X13683240Y-9396121D01*
X13748904Y-9598215D01*
X13845376Y-9787553D01*
X13845380Y-9787559D01*
X13884728Y-9841716D01*
X13884729Y-9841716D01*
X14517037Y-9209407D01*
X14534075Y-9272993D01*
X14599901Y-9387007D01*
X14692993Y-9480099D01*
X14807007Y-9545925D01*
X14870589Y-9562962D01*
X14238282Y-10195269D01*
X14238282Y-10195270D01*
X14292440Y-10234619D01*
X14292446Y-10234623D01*
X14481784Y-10331095D01*
X14683878Y-10396759D01*
X14893750Y-10430000D01*
X15106250Y-10430000D01*
X15316121Y-10396759D01*
X15518215Y-10331095D01*
X15707556Y-10234620D01*
X15761716Y-10195270D01*
X15129408Y-9562962D01*
X15192993Y-9545925D01*
X15307007Y-9480099D01*
X15400099Y-9387007D01*
X15465925Y-9272993D01*
X15482962Y-9209408D01*
X16115270Y-9841716D01*
X16154620Y-9787556D01*
X16251095Y-9598215D01*
X16316759Y-9396121D01*
X16350000Y-9186250D01*
X16350000Y-8973749D01*
X25650000Y-8973749D01*
X25650000Y-9186250D01*
X25683240Y-9396121D01*
X25748904Y-9598215D01*
X25845376Y-9787553D01*
X25845380Y-9787559D01*
X25884728Y-9841716D01*
X25884729Y-9841716D01*
X26517037Y-9209407D01*
X26534075Y-9272993D01*
X26599901Y-9387007D01*
X26692993Y-9480099D01*
X26807007Y-9545925D01*
X26870589Y-9562962D01*
X26238282Y-10195269D01*
X26238282Y-10195270D01*
X26292440Y-10234619D01*
X26292446Y-10234623D01*
X26481784Y-10331095D01*
X26683878Y-10396759D01*
X26893750Y-10430000D01*
X27106250Y-10430000D01*
X27316121Y-10396759D01*
X27518215Y-10331095D01*
X27707556Y-10234620D01*
X27761716Y-10195270D01*
X27129408Y-9562962D01*
X27192993Y-9545925D01*
X27307007Y-9480099D01*
X27400099Y-9387007D01*
X27465925Y-9272993D01*
X27482962Y-9209408D01*
X28115270Y-9841716D01*
X28154620Y-9787556D01*
X28251095Y-9598215D01*
X28316759Y-9396121D01*
X28350000Y-9186250D01*
X28350000Y-8973749D01*
X37650000Y-8973749D01*
X37650000Y-9186250D01*
X37683240Y-9396121D01*
X37748904Y-9598215D01*
X37845376Y-9787553D01*
X37845380Y-9787559D01*
X37884728Y-9841716D01*
X37884729Y-9841716D01*
X38517037Y-9209407D01*
X38534075Y-9272993D01*
X38599901Y-9387007D01*
X38692993Y-9480099D01*
X38807007Y-9545925D01*
X38870589Y-9562962D01*
X38238282Y-10195269D01*
X38238282Y-10195270D01*
X38292440Y-10234619D01*
X38292446Y-10234623D01*
X38481784Y-10331095D01*
X38683878Y-10396759D01*
X38893750Y-10430000D01*
X39106250Y-10430000D01*
X39316121Y-10396759D01*
X39518215Y-10331095D01*
X39707556Y-10234620D01*
X39761716Y-10195270D01*
X39129408Y-9562962D01*
X39192993Y-9545925D01*
X39307007Y-9480099D01*
X39400099Y-9387007D01*
X39465925Y-9272993D01*
X39482962Y-9209408D01*
X40115270Y-9841716D01*
X40154620Y-9787556D01*
X40251095Y-9598215D01*
X40316759Y-9396121D01*
X40350000Y-9186250D01*
X40350000Y-8973749D01*
X49650000Y-8973749D01*
X49650000Y-9186250D01*
X49683240Y-9396121D01*
X49748904Y-9598215D01*
X49845376Y-9787553D01*
X49845380Y-9787559D01*
X49884728Y-9841716D01*
X49884729Y-9841716D01*
X50517037Y-9209407D01*
X50534075Y-9272993D01*
X50599901Y-9387007D01*
X50692993Y-9480099D01*
X50807007Y-9545925D01*
X50870589Y-9562962D01*
X50238282Y-10195269D01*
X50238282Y-10195270D01*
X50292440Y-10234619D01*
X50292446Y-10234623D01*
X50481784Y-10331095D01*
X50683878Y-10396759D01*
X50893750Y-10430000D01*
X51106250Y-10430000D01*
X51316121Y-10396759D01*
X51518215Y-10331095D01*
X51707556Y-10234620D01*
X51761716Y-10195270D01*
X51129408Y-9562962D01*
X51192993Y-9545925D01*
X51307007Y-9480099D01*
X51400099Y-9387007D01*
X51465925Y-9272993D01*
X51482962Y-9209408D01*
X52115270Y-9841716D01*
X52154620Y-9787556D01*
X52251095Y-9598215D01*
X52316759Y-9396121D01*
X52350000Y-9186250D01*
X52350000Y-8973749D01*
X52316759Y-8763878D01*
X52251095Y-8561784D01*
X52154623Y-8372446D01*
X52154619Y-8372440D01*
X52115270Y-8318282D01*
X52115269Y-8318282D01*
X51482962Y-8950589D01*
X51465925Y-8887007D01*
X51400099Y-8772993D01*
X51307007Y-8679901D01*
X51192993Y-8614075D01*
X51129407Y-8597037D01*
X51761716Y-7964729D01*
X51761716Y-7964728D01*
X51707559Y-7925380D01*
X51707553Y-7925376D01*
X51518215Y-7828904D01*
X51427015Y-7799272D01*
X51377515Y-7763308D01*
X51358608Y-7705117D01*
X51377515Y-7646926D01*
X51427013Y-7610962D01*
X51427017Y-7610962D01*
X51427018Y-7610962D01*
X51441633Y-7606213D01*
X51441633Y-7606212D01*
X51441639Y-7606211D01*
X51602994Y-7523996D01*
X51749501Y-7417553D01*
X51877553Y-7289501D01*
X51983996Y-7142994D01*
X52066211Y-6981639D01*
X52122171Y-6809409D01*
X52150500Y-6630546D01*
X52150500Y-6449454D01*
X52150500Y-6449450D01*
X52122171Y-6270593D01*
X52122171Y-6270591D01*
X52066211Y-6098361D01*
X51983996Y-5937006D01*
X51877553Y-5790499D01*
X51749501Y-5662447D01*
X51602994Y-5556004D01*
X51602993Y-5556003D01*
X51602991Y-5556002D01*
X51441637Y-5473788D01*
X51269406Y-5417828D01*
X51090549Y-5389500D01*
X51090546Y-5389500D01*
X50909454Y-5389500D01*
X50909451Y-5389500D01*
X50730593Y-5417828D01*
X50558362Y-5473788D01*
X50397008Y-5556002D01*
X50323752Y-5609225D01*
X50250499Y-5662447D01*
X50122447Y-5790499D01*
X50069225Y-5863752D01*
X50016002Y-5937008D01*
X49933788Y-6098362D01*
X49877828Y-6270593D01*
X49849500Y-6449450D01*
X49849500Y-6630549D01*
X49877828Y-6809406D01*
X49877829Y-6809409D01*
X49933789Y-6981639D01*
X50016004Y-7142994D01*
X50122447Y-7289501D01*
X50250499Y-7417553D01*
X50397006Y-7523996D01*
X50558361Y-7606211D01*
X50569483Y-7609824D01*
X50572983Y-7610962D01*
X50622483Y-7646926D01*
X50641391Y-7705116D01*
X50622484Y-7763307D01*
X50572985Y-7799271D01*
X50572984Y-7799272D01*
X50481784Y-7828904D01*
X50292446Y-7925376D01*
X50292442Y-7925378D01*
X50238282Y-7964728D01*
X50870591Y-8597037D01*
X50807007Y-8614075D01*
X50692993Y-8679901D01*
X50599901Y-8772993D01*
X50534075Y-8887007D01*
X50517037Y-8950591D01*
X49884728Y-8318282D01*
X49845378Y-8372442D01*
X49845376Y-8372446D01*
X49748904Y-8561784D01*
X49683240Y-8763878D01*
X49650000Y-8973749D01*
X40350000Y-8973749D01*
X40316759Y-8763878D01*
X40251095Y-8561784D01*
X40154623Y-8372446D01*
X40154619Y-8372440D01*
X40115270Y-8318282D01*
X40115269Y-8318282D01*
X39482962Y-8950589D01*
X39465925Y-8887007D01*
X39400099Y-8772993D01*
X39307007Y-8679901D01*
X39192993Y-8614075D01*
X39129407Y-8597037D01*
X39761716Y-7964729D01*
X39761716Y-7964728D01*
X39707559Y-7925380D01*
X39707553Y-7925376D01*
X39518215Y-7828904D01*
X39427015Y-7799272D01*
X39377515Y-7763308D01*
X39358608Y-7705117D01*
X39377515Y-7646926D01*
X39427013Y-7610962D01*
X39427017Y-7610962D01*
X39427018Y-7610962D01*
X39441633Y-7606213D01*
X39441633Y-7606212D01*
X39441639Y-7606211D01*
X39602994Y-7523996D01*
X39749501Y-7417553D01*
X39877553Y-7289501D01*
X39983996Y-7142994D01*
X40066211Y-6981639D01*
X40122171Y-6809409D01*
X40150500Y-6630546D01*
X40150500Y-6449454D01*
X40150500Y-6449450D01*
X40122171Y-6270593D01*
X40122171Y-6270591D01*
X40066211Y-6098361D01*
X39983996Y-5937006D01*
X39877553Y-5790499D01*
X39749501Y-5662447D01*
X39602994Y-5556004D01*
X39602993Y-5556003D01*
X39602991Y-5556002D01*
X39441637Y-5473788D01*
X39269406Y-5417828D01*
X39090549Y-5389500D01*
X39090546Y-5389500D01*
X38909454Y-5389500D01*
X38909451Y-5389500D01*
X38730593Y-5417828D01*
X38558362Y-5473788D01*
X38397008Y-5556002D01*
X38323752Y-5609225D01*
X38250499Y-5662447D01*
X38122447Y-5790499D01*
X38069225Y-5863752D01*
X38016002Y-5937008D01*
X37933788Y-6098362D01*
X37877828Y-6270593D01*
X37849500Y-6449450D01*
X37849500Y-6630549D01*
X37877828Y-6809406D01*
X37877829Y-6809409D01*
X37933789Y-6981639D01*
X38016004Y-7142994D01*
X38122447Y-7289501D01*
X38250499Y-7417553D01*
X38397006Y-7523996D01*
X38558361Y-7606211D01*
X38569483Y-7609824D01*
X38572983Y-7610962D01*
X38622483Y-7646926D01*
X38641391Y-7705116D01*
X38622484Y-7763307D01*
X38572985Y-7799271D01*
X38572984Y-7799272D01*
X38481784Y-7828904D01*
X38292446Y-7925376D01*
X38292442Y-7925378D01*
X38238282Y-7964728D01*
X38870591Y-8597037D01*
X38807007Y-8614075D01*
X38692993Y-8679901D01*
X38599901Y-8772993D01*
X38534075Y-8887007D01*
X38517037Y-8950591D01*
X37884728Y-8318282D01*
X37845378Y-8372442D01*
X37845376Y-8372446D01*
X37748904Y-8561784D01*
X37683240Y-8763878D01*
X37650000Y-8973749D01*
X28350000Y-8973749D01*
X28316759Y-8763878D01*
X28251095Y-8561784D01*
X28154623Y-8372446D01*
X28154619Y-8372440D01*
X28115270Y-8318282D01*
X28115269Y-8318282D01*
X27482962Y-8950589D01*
X27465925Y-8887007D01*
X27400099Y-8772993D01*
X27307007Y-8679901D01*
X27192993Y-8614075D01*
X27129407Y-8597037D01*
X27761716Y-7964729D01*
X27761716Y-7964728D01*
X27707559Y-7925380D01*
X27707553Y-7925376D01*
X27518215Y-7828904D01*
X27427015Y-7799272D01*
X27377515Y-7763308D01*
X27358608Y-7705117D01*
X27377515Y-7646926D01*
X27427013Y-7610962D01*
X27427017Y-7610962D01*
X27427018Y-7610962D01*
X27441633Y-7606213D01*
X27441633Y-7606212D01*
X27441639Y-7606211D01*
X27602994Y-7523996D01*
X27749501Y-7417553D01*
X27877553Y-7289501D01*
X27983996Y-7142994D01*
X28066211Y-6981639D01*
X28122171Y-6809409D01*
X28150500Y-6630546D01*
X28150500Y-6449454D01*
X28150500Y-6449450D01*
X28122171Y-6270593D01*
X28122171Y-6270591D01*
X28066211Y-6098361D01*
X27983996Y-5937006D01*
X27877553Y-5790499D01*
X27749501Y-5662447D01*
X27602994Y-5556004D01*
X27602993Y-5556003D01*
X27602991Y-5556002D01*
X27441637Y-5473788D01*
X27269406Y-5417828D01*
X27090549Y-5389500D01*
X27090546Y-5389500D01*
X26909454Y-5389500D01*
X26909451Y-5389500D01*
X26730593Y-5417828D01*
X26558362Y-5473788D01*
X26397008Y-5556002D01*
X26323752Y-5609225D01*
X26250499Y-5662447D01*
X26122447Y-5790499D01*
X26069225Y-5863752D01*
X26016002Y-5937008D01*
X25933788Y-6098362D01*
X25877828Y-6270593D01*
X25849500Y-6449450D01*
X25849500Y-6630549D01*
X25877828Y-6809406D01*
X25877829Y-6809409D01*
X25933789Y-6981639D01*
X26016004Y-7142994D01*
X26122447Y-7289501D01*
X26250499Y-7417553D01*
X26397006Y-7523996D01*
X26558361Y-7606211D01*
X26569483Y-7609824D01*
X26572983Y-7610962D01*
X26622483Y-7646926D01*
X26641391Y-7705116D01*
X26622484Y-7763307D01*
X26572985Y-7799271D01*
X26572984Y-7799272D01*
X26481784Y-7828904D01*
X26292446Y-7925376D01*
X26292442Y-7925378D01*
X26238282Y-7964728D01*
X26870591Y-8597037D01*
X26807007Y-8614075D01*
X26692993Y-8679901D01*
X26599901Y-8772993D01*
X26534075Y-8887007D01*
X26517037Y-8950591D01*
X25884728Y-8318282D01*
X25845378Y-8372442D01*
X25845376Y-8372446D01*
X25748904Y-8561784D01*
X25683240Y-8763878D01*
X25650000Y-8973749D01*
X16350000Y-8973749D01*
X16316759Y-8763878D01*
X16251095Y-8561784D01*
X16154623Y-8372446D01*
X16154619Y-8372440D01*
X16115270Y-8318282D01*
X16115269Y-8318282D01*
X15482962Y-8950589D01*
X15465925Y-8887007D01*
X15400099Y-8772993D01*
X15307007Y-8679901D01*
X15192993Y-8614075D01*
X15129407Y-8597037D01*
X15761716Y-7964729D01*
X15761716Y-7964728D01*
X15707559Y-7925380D01*
X15707553Y-7925376D01*
X15518215Y-7828904D01*
X15427015Y-7799272D01*
X15377515Y-7763308D01*
X15358608Y-7705117D01*
X15377515Y-7646926D01*
X15427013Y-7610962D01*
X15427017Y-7610962D01*
X15427018Y-7610962D01*
X15441633Y-7606213D01*
X15441633Y-7606212D01*
X15441639Y-7606211D01*
X15602994Y-7523996D01*
X15749501Y-7417553D01*
X15877553Y-7289501D01*
X15983996Y-7142994D01*
X16066211Y-6981639D01*
X16122171Y-6809409D01*
X16150500Y-6630546D01*
X16150500Y-6449454D01*
X16150500Y-6449450D01*
X16122171Y-6270593D01*
X16122171Y-6270591D01*
X16066211Y-6098361D01*
X15983996Y-5937006D01*
X15877553Y-5790499D01*
X15749501Y-5662447D01*
X15602994Y-5556004D01*
X15602993Y-5556003D01*
X15602991Y-5556002D01*
X15441637Y-5473788D01*
X15269406Y-5417828D01*
X15090549Y-5389500D01*
X15090546Y-5389500D01*
X14909454Y-5389500D01*
X14909451Y-5389500D01*
X14730593Y-5417828D01*
X14558362Y-5473788D01*
X14397008Y-5556002D01*
X14323752Y-5609225D01*
X14250499Y-5662447D01*
X14122447Y-5790499D01*
X14069225Y-5863752D01*
X14016002Y-5937008D01*
X13933788Y-6098362D01*
X13877828Y-6270593D01*
X13849500Y-6449450D01*
X13849500Y-6630549D01*
X13877828Y-6809406D01*
X13877829Y-6809409D01*
X13933789Y-6981639D01*
X14016004Y-7142994D01*
X14122447Y-7289501D01*
X14250499Y-7417553D01*
X14397006Y-7523996D01*
X14558361Y-7606211D01*
X14569483Y-7609824D01*
X14572983Y-7610962D01*
X14622483Y-7646926D01*
X14641391Y-7705116D01*
X14622484Y-7763307D01*
X14572985Y-7799271D01*
X14572984Y-7799272D01*
X14481784Y-7828904D01*
X14292446Y-7925376D01*
X14292442Y-7925378D01*
X14238282Y-7964728D01*
X14870591Y-8597037D01*
X14807007Y-8614075D01*
X14692993Y-8679901D01*
X14599901Y-8772993D01*
X14534075Y-8887007D01*
X14517037Y-8950591D01*
X13884728Y-8318282D01*
X13845378Y-8372442D01*
X13845376Y-8372446D01*
X13748904Y-8561784D01*
X13683240Y-8763878D01*
X13650000Y-8973749D01*
X600000Y-8973749D01*
X600000Y-3541008D01*
X618907Y-3482817D01*
X628996Y-3471004D01*
X727934Y-3372066D01*
X1874500Y-3372066D01*
X1874500Y-3627933D01*
X1914525Y-3880636D01*
X1914526Y-3880639D01*
X1993590Y-4123975D01*
X2109748Y-4351947D01*
X2260138Y-4558942D01*
X2441058Y-4739862D01*
X2648053Y-4890252D01*
X2876025Y-5006410D01*
X3119361Y-5085474D01*
X3220444Y-5101484D01*
X3372067Y-5125500D01*
X3372070Y-5125500D01*
X3627933Y-5125500D01*
X3774999Y-5102206D01*
X3880639Y-5085474D01*
X4123975Y-5006410D01*
X4351947Y-4890252D01*
X4558942Y-4739862D01*
X4739862Y-4558942D01*
X4890252Y-4351947D01*
X5006410Y-4123975D01*
X5085474Y-3880639D01*
X5125500Y-3627930D01*
X5125500Y-3372070D01*
X5125499Y-3372066D01*
X5085474Y-3119360D01*
X5080850Y-3105130D01*
X13849500Y-3105130D01*
X13849500Y-4894860D01*
X13849501Y-4894863D01*
X13852414Y-4919990D01*
X13877756Y-4977385D01*
X13897794Y-5022765D01*
X13977235Y-5102206D01*
X14080009Y-5147585D01*
X14105135Y-5150500D01*
X15894864Y-5150499D01*
X15919991Y-5147585D01*
X16022765Y-5102206D01*
X16102206Y-5022765D01*
X16147585Y-4919991D01*
X16150500Y-4894865D01*
X16150499Y-3105136D01*
X16150498Y-3105130D01*
X25849500Y-3105130D01*
X25849500Y-4894860D01*
X25849501Y-4894863D01*
X25852414Y-4919990D01*
X25877756Y-4977385D01*
X25897794Y-5022765D01*
X25977235Y-5102206D01*
X26080009Y-5147585D01*
X26105135Y-5150500D01*
X27894864Y-5150499D01*
X27919991Y-5147585D01*
X28022765Y-5102206D01*
X28102206Y-5022765D01*
X28147585Y-4919991D01*
X28150500Y-4894865D01*
X28150499Y-3105136D01*
X28150498Y-3105130D01*
X37849500Y-3105130D01*
X37849500Y-4894860D01*
X37849501Y-4894863D01*
X37852414Y-4919990D01*
X37877756Y-4977385D01*
X37897794Y-5022765D01*
X37977235Y-5102206D01*
X38080009Y-5147585D01*
X38105135Y-5150500D01*
X39894864Y-5150499D01*
X39919991Y-5147585D01*
X40022765Y-5102206D01*
X40102206Y-5022765D01*
X40147585Y-4919991D01*
X40150500Y-4894865D01*
X40150499Y-3105136D01*
X40150498Y-3105130D01*
X49849500Y-3105130D01*
X49849500Y-4894860D01*
X49849501Y-4894863D01*
X49852414Y-4919990D01*
X49877756Y-4977385D01*
X49897794Y-5022765D01*
X49977235Y-5102206D01*
X50080009Y-5147585D01*
X50105135Y-5150500D01*
X51894864Y-5150499D01*
X51919991Y-5147585D01*
X52022765Y-5102206D01*
X52102206Y-5022765D01*
X52147585Y-4919991D01*
X52150500Y-4894865D01*
X52150499Y-3372066D01*
X59874500Y-3372066D01*
X59874500Y-3627933D01*
X59914525Y-3880636D01*
X59914526Y-3880639D01*
X59993590Y-4123975D01*
X60109748Y-4351947D01*
X60260138Y-4558942D01*
X60441058Y-4739862D01*
X60648053Y-4890252D01*
X60876025Y-5006410D01*
X61119361Y-5085474D01*
X61220444Y-5101484D01*
X61372067Y-5125500D01*
X61372070Y-5125500D01*
X61627933Y-5125500D01*
X61774999Y-5102206D01*
X61880639Y-5085474D01*
X62123975Y-5006410D01*
X62351947Y-4890252D01*
X62558942Y-4739862D01*
X62739862Y-4558942D01*
X62890252Y-4351947D01*
X63006410Y-4123975D01*
X63085474Y-3880639D01*
X63125500Y-3627930D01*
X63125500Y-3372070D01*
X63125500Y-3372067D01*
X63125500Y-3372066D01*
X63085474Y-3119363D01*
X63085474Y-3119361D01*
X63006410Y-2876025D01*
X62890252Y-2648053D01*
X62739862Y-2441058D01*
X62558942Y-2260138D01*
X62351947Y-2109748D01*
X62351946Y-2109747D01*
X62351944Y-2109746D01*
X62123973Y-1993589D01*
X61880636Y-1914525D01*
X61627933Y-1874500D01*
X61627930Y-1874500D01*
X61372070Y-1874500D01*
X61372067Y-1874500D01*
X61119363Y-1914525D01*
X60876026Y-1993589D01*
X60648055Y-2109746D01*
X60544555Y-2184943D01*
X60441058Y-2260138D01*
X60260138Y-2441058D01*
X60227668Y-2485750D01*
X60109746Y-2648055D01*
X59993589Y-2876026D01*
X59914525Y-3119363D01*
X59874500Y-3372066D01*
X52150499Y-3372066D01*
X52150499Y-3105136D01*
X52147585Y-3080009D01*
X52102206Y-2977235D01*
X52022765Y-2897794D01*
X51919991Y-2852415D01*
X51919990Y-2852414D01*
X51919988Y-2852414D01*
X51894868Y-2849500D01*
X50105139Y-2849500D01*
X50105136Y-2849501D01*
X50080009Y-2852414D01*
X49977235Y-2897794D01*
X49897794Y-2977235D01*
X49852414Y-3080011D01*
X49849500Y-3105130D01*
X40150498Y-3105130D01*
X40147585Y-3080009D01*
X40102206Y-2977235D01*
X40022765Y-2897794D01*
X39919991Y-2852415D01*
X39919990Y-2852414D01*
X39919988Y-2852414D01*
X39894868Y-2849500D01*
X38105139Y-2849500D01*
X38105136Y-2849501D01*
X38080009Y-2852414D01*
X37977235Y-2897794D01*
X37897794Y-2977235D01*
X37852414Y-3080011D01*
X37849500Y-3105130D01*
X28150498Y-3105130D01*
X28147585Y-3080009D01*
X28102206Y-2977235D01*
X28022765Y-2897794D01*
X27919991Y-2852415D01*
X27919990Y-2852414D01*
X27919988Y-2852414D01*
X27894868Y-2849500D01*
X26105139Y-2849500D01*
X26105136Y-2849501D01*
X26080009Y-2852414D01*
X25977235Y-2897794D01*
X25897794Y-2977235D01*
X25852414Y-3080011D01*
X25849500Y-3105130D01*
X16150498Y-3105130D01*
X16147585Y-3080009D01*
X16102206Y-2977235D01*
X16022765Y-2897794D01*
X15919991Y-2852415D01*
X15919990Y-2852414D01*
X15919988Y-2852414D01*
X15894868Y-2849500D01*
X14105139Y-2849500D01*
X14105136Y-2849501D01*
X14080009Y-2852414D01*
X13977235Y-2897794D01*
X13897794Y-2977235D01*
X13852414Y-3080011D01*
X13849500Y-3105130D01*
X5080850Y-3105130D01*
X5006410Y-2876026D01*
X5006410Y-2876025D01*
X4890252Y-2648053D01*
X4739862Y-2441058D01*
X4558942Y-2260138D01*
X4351947Y-2109748D01*
X4351946Y-2109747D01*
X4351944Y-2109746D01*
X4123973Y-1993589D01*
X3880636Y-1914525D01*
X3627933Y-1874500D01*
X3627930Y-1874500D01*
X3372070Y-1874500D01*
X3372067Y-1874500D01*
X3119363Y-1914525D01*
X2876026Y-1993589D01*
X2648055Y-2109746D01*
X2544555Y-2184943D01*
X2441058Y-2260138D01*
X2260138Y-2441058D01*
X2227668Y-2485750D01*
X2109746Y-2648055D01*
X1993589Y-2876026D01*
X1914525Y-3119363D01*
X1874500Y-3372066D01*
X727934Y-3372066D01*
X3471004Y-628996D01*
X3525521Y-601219D01*
X3541008Y-600000D01*
X61458992Y-600000D01*
X61517183Y-618907D01*
G37*
%TD.AperFunction*%
%TD*%
M02*
