%TF.GenerationSoftware,KiCad,Pcbnew,10.0.4*%
%TF.CreationDate,2026-07-29T23:15:59+02:00*%
%TF.ProjectId,RPi-DroneRover-HAT,5250692d-4472-46f6-9e65-526f7665722d,rev?*%
%TF.SameCoordinates,Original*%
%TF.FileFunction,Other,User*%
%FSLAX46Y46*%
G04 Gerber Fmt 4.6, Leading zero omitted, Abs format (unit mm)*
G04 Created by KiCad (PCBNEW 10.0.4) date 2026-07-29 23:15:59*
%MOMM*%
%LPD*%
G01*
G04 APERTURE LIST*
%ADD10C,0.050000*%
G04 APERTURE END LIST*
%TO.C,BZ*%
D10*
X8230000Y-18230000D02*
X11770000Y-18230000D01*
X11770000Y-24320000D01*
X8230000Y-24320000D01*
X8230000Y-18230000D01*
%TO.C,J_M1*%
X13230000Y-2230000D02*
X16770000Y-2230000D01*
X16770000Y-10850000D01*
X13230000Y-10850000D01*
X13230000Y-2230000D01*
%TO.C,C_DEC*%
X38950000Y-38950000D02*
X43550000Y-38950000D01*
X43550000Y-41050000D01*
X38950000Y-41050000D01*
X38950000Y-38950000D01*
%TO.C,J_IMU*%
X28230000Y-12230000D02*
X31770000Y-12230000D01*
X28230000Y-33550000D02*
X28230000Y-12230000D01*
X31770000Y-12230000D02*
X31770000Y-33550000D01*
X31770000Y-33550000D02*
X28230000Y-33550000D01*
%TO.C,J_M3*%
X37230000Y-2230000D02*
X40770000Y-2230000D01*
X40770000Y-10850000D01*
X37230000Y-10850000D01*
X37230000Y-2230000D01*
%TO.C,J_PI*%
X6630000Y-47730000D02*
X58430000Y-47730000D01*
X6630000Y-53810000D02*
X6630000Y-47730000D01*
X58430000Y-47730000D02*
X58430000Y-53810000D01*
X58430000Y-53810000D02*
X6630000Y-53810000D01*
%TO.C,J_M4*%
X49230000Y-2230000D02*
X52770000Y-2230000D01*
X52770000Y-10850000D01*
X49230000Y-10850000D01*
X49230000Y-2230000D01*
%TO.C,R_LED*%
X42950000Y-28500000D02*
X52670000Y-28500000D01*
X52670000Y-31500000D01*
X42950000Y-31500000D01*
X42950000Y-28500000D01*
%TO.C,C_BULK*%
X36000000Y-40000000D02*
G75*
G02*
X27500000Y-40000000I-4250000J0D01*
G01*
X27500000Y-40000000D02*
G75*
G02*
X36000000Y-40000000I4250000J0D01*
G01*
%TO.C,LED1*%
X54060000Y-26790000D02*
X60490000Y-26790000D01*
X60490000Y-33210000D01*
X54060000Y-33210000D01*
X54060000Y-26790000D01*
%TO.C,R_SCL*%
X42950000Y-23500000D02*
X52670000Y-23500000D01*
X52670000Y-26500000D01*
X42950000Y-26500000D01*
X42950000Y-23500000D01*
%TO.C,R_SDA*%
X42950000Y-18500000D02*
X52670000Y-18500000D01*
X52670000Y-21500000D01*
X42950000Y-21500000D01*
X42950000Y-18500000D01*
%TO.C,J_BEC*%
X1960000Y-26290000D02*
X13130000Y-26290000D01*
X13130000Y-37100000D01*
X1960000Y-37100000D01*
X1960000Y-26290000D01*
%TO.C,J_M2*%
X25230000Y-2230000D02*
X28770000Y-2230000D01*
X28770000Y-10850000D01*
X25230000Y-10850000D01*
X25230000Y-2230000D01*
%TO.C,D_PWR*%
X12650000Y-38400000D02*
X25510000Y-38400000D01*
X25510000Y-41600000D01*
X12650000Y-41600000D01*
X12650000Y-38400000D01*
%TD*%
M02*
